<?xml version="1.0" encoding="utf-8"?>
<!-- Generator: Adobe Illustrator 23.0.2, SVG Export Plug-In . SVG Version: 6.00 Build 0)  -->
<svg version="1.1" baseProfile="tiny" id="Layer_3" xmlns="http://www.w3.org/2000/svg" xmlns:xlink="http://www.w3.org/1999/xlink"
	 x="0px" y="0px" viewBox="0 0 16 16" xml:space="preserve">
<path fill="#070606" d="M9,0H2C0.9,0,0,0.9,0,2v6c0,1.1,0.9,2,2,2h3.4c-0.2,0.6-0.7,2-0.7,3.2C4.7,16,6,16,7,16c0-1,0-1.8,0-2.4
	c0.3-1.5,2-3.3,2.8-3.8C10.5,9.5,11,8.8,11,8V2C11,0.9,10.1,0,9,0z"/>
<path fill="#070606" d="M15,0h-2c-0.5,0-1,0.5-1,1v8c0,0.5,0.5,1,1,1h2c0.5,0,1-0.5,1-1V1C16,0.5,15.5,0,15,0z"/>
</svg>
