<?xml version="1.0" encoding="utf-8"?>
<!-- Generator: Adobe Illustrator 23.0.2, SVG Export Plug-In . SVG Version: 6.00 Build 0)  -->
<svg version="1.1" baseProfile="tiny" id="Layer_2" xmlns="http://www.w3.org/2000/svg" xmlns:xlink="http://www.w3.org/1999/xlink"
	 x="0px" y="0px" viewBox="0 0 16 16" xml:space="preserve">
<g>
	<path d="M1.5,15h4C5.8,15,6,14.8,6,14.5S5.8,14,5.5,14H2.7l4.1-4.1C7,9.7,7,9.3,6.9,9.1C6.7,9,6.3,9,6.1,9.1L2,13.3v-2.8
		C2,10.2,1.8,10,1.5,10S1,10.2,1,10.5v4C1,14.8,1.2,15,1.5,15z"/>
	<path d="M9.1,6.9C9.3,7,9.7,7,9.9,6.9L14,2.7v2.8C14,5.8,14.2,6,14.5,6S15,5.8,15,5.5v-4C15,1.2,14.8,1,14.5,1h-4
		C10.2,1,10,1.2,10,1.5S10.2,2,10.5,2h2.8L9.1,6.1C9,6.3,9,6.7,9.1,6.9z"/>
</g>
</svg>
