<?xml version="1.0" encoding="utf-8"?>
<!-- Generator: Adobe Illustrator 23.0.2, SVG Export Plug-In . SVG Version: 6.00 Build 0)  -->
<svg version="1.1" baseProfile="tiny" id="Layer_2" xmlns="http://www.w3.org/2000/svg" xmlns:xlink="http://www.w3.org/1999/xlink"
	 x="0px" y="0px" viewBox="0 0 16 16" xml:space="preserve">
<g>
	<g>
		<path fill="none" stroke="#070606" stroke-width="1.0006" stroke-linecap="round" stroke-miterlimit="10" d="M11.5,6.6"/>
	</g>
</g>
<g>
	<path fill="#070606" d="M4.8,9.1c-0.7-0.7-1-1.6-1-2.5s0.4-1.8,1-2.5L6.9,2c1.4-1.4,3.6-1.4,4.9,0c0.7,0.7,1,1.6,1,2.5
		c0,0.7-0.2,1.4-0.7,2c-0.2,0.2-0.5,0.3-0.7,0.1c-0.2-0.2-0.3-0.5-0.1-0.7c0.3-0.4,0.5-0.9,0.5-1.4c0-0.7-0.3-1.3-0.7-1.8
		c-1-1-2.6-1-3.5,0L5.5,4.8C5.1,5.3,4.8,5.9,4.8,6.6c0,0.7,0.3,1.3,0.7,1.8c0.9,0.9,2.2,1,3.2,0.3C9,8.5,9.3,8.5,9.4,8.7
		C9.6,9,9.5,9.3,9.3,9.4C7.9,10.4,6,10.3,4.8,9.1z"/>
</g>
<g>
	<path fill="none" stroke="#070606" stroke-linecap="round" stroke-miterlimit="10" d="M11.5,6.6"/>
</g>
<g>
	<g>
		<path fill="none" stroke="#070606" stroke-width="1.0006" stroke-linecap="round" stroke-miterlimit="10" d="M4.5,9.4"/>
	</g>
</g>
<g>
	<path fill="#070606" d="M4.1,14c-0.7-0.7-1-1.6-1-2.5c0-0.7,0.2-1.4,0.7-2c0.2-0.2,0.5-0.3,0.7-0.1c0.2,0.2,0.3,0.5,0.1,0.7
		c-0.3,0.4-0.5,0.9-0.5,1.4c0,0.7,0.3,1.3,0.7,1.8c1,1,2.6,1,3.5,0l2.1-2.1c0.5-0.5,0.7-1.1,0.7-1.8c0-0.7-0.3-1.3-0.7-1.8
		c-0.9-0.9-2.2-1-3.2-0.3C7,7.5,6.7,7.5,6.6,7.3C6.4,7,6.5,6.7,6.7,6.6c1.4-1,3.3-0.8,4.5,0.4c0.7,0.7,1,1.6,1,2.5
		c0,0.9-0.4,1.8-1,2.5L9.1,14C7.7,15.4,5.5,15.4,4.1,14z"/>
</g>
<g>
	<path fill="none" stroke="#070606" stroke-linecap="round" stroke-miterlimit="10" d="M4.5,9.4"/>
</g>
</svg>
