<?xml version="1.0" encoding="utf-8"?>
<!-- Generator: Adobe Illustrator 23.0.2, SVG Export Plug-In . SVG Version: 6.00 Build 0)  -->
<svg version="1.1" baseProfile="tiny" id="Layer_3" xmlns="http://www.w3.org/2000/svg" xmlns:xlink="http://www.w3.org/1999/xlink"
	 x="0px" y="0px" viewBox="0 0 16 16" xml:space="preserve">
<path d="M11,0H5C2.2,0,0,2.2,0,5v6c0,2.8,2.2,5,5,5h6c2.8,0,5-2.2,5-5V5C16,2.2,13.8,0,11,0z M4.5,11C5.3,11,6,10.3,6,9.5V9H4.5
	C4.2,9,4,8.8,4,8.5C4,8.2,4.2,8,4.5,8h2C6.8,8,7,8.2,7,8.5V9v0.5c0,0,0,0,0,0C7,10.9,5.9,12,4.5,12S2,10.9,2,9.5v-3
	C2,5.1,3.1,4,4.5,4S7,5.1,7,6.5C7,6.8,6.8,7,6.5,7S6,6.8,6,6.5C6,5.7,5.3,5,4.5,5S3,5.7,3,6.5v3C3,10.3,3.7,11,4.5,11z M9,11.5
	C9,11.8,8.8,12,8.5,12S8,11.8,8,11.5v-7C8,4.2,8.2,4,8.5,4S9,4.2,9,4.5V11.5z M13.5,8C13.8,8,14,8.2,14,8.5C14,8.8,13.8,9,13.5,9H11
	v2.5c0,0.3-0.2,0.5-0.5,0.5S10,11.8,10,11.5v-7C10,4.2,10.2,4,10.5,4h3C13.8,4,14,4.2,14,4.5C14,4.8,13.8,5,13.5,5H11v3H13.5z"/>
</svg>
