<?xml version="1.0" encoding="utf-8"?>
<!-- Generator: Adobe Illustrator 23.0.2, SVG Export Plug-In . SVG Version: 6.00 Build 0)  -->
<svg version="1.1" baseProfile="tiny" id="Layer_2" xmlns="http://www.w3.org/2000/svg" xmlns:xlink="http://www.w3.org/1999/xlink"
	 x="0px" y="0px" viewBox="0 0 16 16" xml:space="preserve">
<g>
	<path d="M6.5,9h-4C2.2,9,2,9.2,2,9.5S2.2,10,2.5,10h2.8l-4.1,4.1c-0.2,0.2-0.2,0.5,0,0.7c0.2,0.2,0.5,0.2,0.7,0L6,10.7v2.8
		C6,13.8,6.2,14,6.5,14S7,13.8,7,13.5v-4C7,9.2,6.8,9,6.5,9z"/>
	<path d="M14.9,1.1c-0.2-0.2-0.5-0.2-0.7,0L10,5.3V2.5C10,2.2,9.8,2,9.5,2S9,2.2,9,2.5v4C9,6.8,9.2,7,9.5,7h4C13.8,7,14,6.8,14,6.5
		S13.8,6,13.5,6h-2.8l4.1-4.1C15,1.7,15,1.3,14.9,1.1z"/>
</g>
</svg>
