<?xml version="1.0" encoding="utf-8"?>
<!-- Generator: Adobe Illustrator 23.0.2, SVG Export Plug-In . SVG Version: 6.00 Build 0)  -->
<svg version="1.1" baseProfile="tiny" id="Layer_3" xmlns="http://www.w3.org/2000/svg" xmlns:xlink="http://www.w3.org/1999/xlink"
	 x="0px" y="0px" viewBox="0 0 16 16" xml:space="preserve">
<path fill="#070606" d="M14,6h-3.4c0.2-0.6,0.7-2,0.7-3.2C11.3,0,10,0,9,0c0,1,0,1.8,0,2.4C8.7,3.9,7,5.7,6.2,6.2C5.5,6.5,5,7.2,5,8
	v6c0,1.1,0.9,2,2,2h7c1.1,0,2-0.9,2-2V8C16,6.9,15.1,6,14,6z"/>
<path fill="#070606" d="M3,16H1c-0.6,0-1-0.4-1-1l0-8c0-0.6,0.4-1,1-1h2c0.5,0,1,0.4,1,1v8C4,15.6,3.5,16,3,16z"/>
</svg>
