<?xml version="1.0" encoding="utf-8"?>
<!-- Generator: Adobe Illustrator 23.0.2, SVG Export Plug-In . SVG Version: 6.00 Build 0)  -->
<svg version="1.1" baseProfile="tiny" xmlns="http://www.w3.org/2000/svg" xmlns:xlink="http://www.w3.org/1999/xlink" x="0px"
	 y="0px" viewBox="0 0 16 16" xml:space="preserve">
<g id="Layer_3">
</g>
<g id="Layer_4">
	<path d="M8,0C3.6,0,0,3.6,0,8s3.6,8,8,8s8-3.6,8-8S12.4,0,8,0z M3,6.5C3,5.7,3.7,5,4.5,5S6,5.7,6,6.5S5.3,8,4.5,8S3,7.3,3,6.5z
		 M8,13.5c-1.4,0-4-0.9-4.2-2.7c-0.1-1.1,1-0.7,1.6-0.5c0.8,0.2,1.7,0.3,2.5,0.3c0.8,0,1.7-0.1,2.5-0.3c0.7-0.2,1.7-0.5,1.6,0.5
		C12,12.6,9.4,13.5,8,13.5z M11.5,8C10.7,8,10,7.3,10,6.5S10.7,5,11.5,5S13,5.7,13,6.5S12.3,8,11.5,8z"/>
</g>
</svg>
