<?xml version="1.0" encoding="utf-8"?>
<!-- Generator: Adobe Illustrator 23.0.2, SVG Export Plug-In . SVG Version: 6.00 Build 0)  -->
<svg version="1.1" baseProfile="tiny" id="Layer_3" xmlns="http://www.w3.org/2000/svg" xmlns:xlink="http://www.w3.org/1999/xlink"
	 x="0px" y="0px" viewBox="0 0 16 16" xml:space="preserve">
<path fill="#070606" d="M11.1,5.5l2.8-3.7c0.1-0.2,0.1-0.4,0-0.5S13.7,1,13.5,1H3V0.5C3,0.2,2.8,0,2.5,0S2,0.2,2,0.5v1v6v2V12v0.5
	V13v1v1.5C2,15.8,2.2,16,2.5,16S3,15.8,3,15.5V14v-1v-0.5V10h10.5c0.2,0,0.4-0.1,0.4-0.3s0.1-0.4,0-0.5L11.1,5.5z M3,9V8V7V2h9.5
	l-2.4,3.2c-0.1,0.2-0.1,0.4,0,0.6L12.5,9H3z"/>
</svg>
