<?xml version="1.0" encoding="utf-8"?>
<!-- Generator: Adobe Illustrator 21.1.0, SVG Export Plug-In . SVG Version: 6.00 Build 0)  -->
<svg version="1.1" id="Layer_2" xmlns="http://www.w3.org/2000/svg" xmlns:xlink="http://www.w3.org/1999/xlink" x="0px" y="0px"
	 viewBox="0 0 100 100" style="enable-background:new 0 0 100 100;" xml:space="preserve">
<path d="M99.5,55.7c0.3-3.1,1-5.8-0.1-8.8C98,43,95.7,39.4,93,35.7c-2-2.8-5.3-5.1-8.7-7.2c-3.5-2.1-8-4.5-12.6-4.6
	c-1-1.1-2.5-1.5-4-1.5c-0.7,0-1.4,0.2-2.1,0.1c-1.1-0.1-1.9-0.6-3-0.7c-3.3-0.5-7.2-1.2-9.9,0.8c-4.7,3.4,3.4,5,6.3,5.6
	c1.6,0.3,3.3,0.3,4.9,0.6c1,0.2,1.8,0.7,2.9,0.8c6.1,0.6,11.2,2.6,16,5.7c3.4,2.2,6.7,5.2,8.9,8c2,2.6,2.3,6.9,1.4,10
	c-1,3.9-3.5,7.7-6.2,11.2c-1.3,1.7-2.8,3.6-4.6,4.9c-1.6,1.1-3.1,1.4-4.3,3c-0.9,0.2-1.5,0.8-2.2,1.2c-1.1,0.6-2.2,0.7-3.3,1.5
	c-1.4,0.2-2.5,1-3.8,1.5c-0.8,0.3-1.6,0.3-2.4,0.5c-0.9,0.3-1.5,0.9-2.4,1.2c-1.2,0.4-2.8,0.4-4,0.6c-2.5,0.4-5.6,0.4-8,1.4
	c-1.4,0.7-1,0.7-2.3,0.7c-1.3,0-1.7-0.2-3,0.6c-0.7-0.3-1.3-0.3-2-0.1c-0.4-0.1-0.8-0.1-1.2,0.1c-1.8-1-4.5,0.5-6.4,0.4
	c-1.1-0.1-2.4-0.3-3.6-0.5c-1.2-0.2-2.4-0.9-3.6-0.6c-0.7-0.3-1.3-0.7-2-0.8c-1-0.6-2-0.5-3-0.9c-1-0.4-1.9-1.1-2.8-1.6
	c-1.5-0.8-2.9-1.5-4.2-2.7c-1.4-1.3-7.7-6.7-6.7-9C9.9,62.6,9.2,59.3,9,55.8c-0.2-3.4,1.5-6.5,1.5-9.9c1-1.3,1.3-3,2.2-4.5
	c0.9-1.5,1.9-2.9,3-4.2c1-1.3,2.1-2.3,3.2-3.6c1.3-1.5,2-2,3.8-3.1c2.8-1.7,5.3-3.7,8.4-5.2c1.7-0.9,3.7-1.3,5.5-2
	c1.3-0.5,2.2-0.9,3.7-0.6c0.5-1.3,1.4-1,2.7-1.4c0.9-0.2,1.5-0.8,2.4-1c1.1-0.3,2.3-0.2,3.4-0.4h0.1c1.3,0,2-0.8,3.1-1.1
	c1.6-0.4,3.7-0.3,5.4-0.4c4-0.3,8.1-0.5,12.2-0.7c6.1-0.3,12.3,0.7,18-1.3c0.5-0.9,0.5-2.1,0-3.2c-1.7-1.3-3.3-1-5.2-1.3
	c-1.1-0.1-2.1-0.6-3.2-0.8c-1-0.1-2.1,0.2-3.1,0c-1.8-0.2-3.4-0.7-5.3-0.7c-2.3,0-4.6,0.2-6.9,0.2c-1.5,0-3.1-0.8-4.4-0.6
	c-0.9,0.1-1.1,0.7-1.8,0.9C57,11.1,56.1,11,55.4,11c-3.3,0.1-9.5-0.1-12,1.8C41.9,13,40,13,38.5,13.4c-1.6,0.5-2.3,1.1-4.1,1.3
	c-2.1,0.3-3,1.5-4.7,2.3c-1.1,0.5-2.4,0.6-3.5,1.2c-3.6,1.9-7.1,4-10.3,6.3c-2.9,2.1-5.3,4.3-7.6,6.9C6,34.1,4.8,37.3,3,40.1
	c-1.9,3-3.1,7.2-3,10.8c0.2,8.2,3.3,15.7,8.9,22.7c2.7,3.3,6.1,6.2,9.4,8.5c1.8,1.3,3.7,2.3,5.7,3.1c0.9,0.3,1.6,0.5,2.4,1
	c0.7,0.4,1.6,1.6,2.5,1.1c1,0.1,1.8,1,2.9,0.9c1.7,0.8,4,0.7,5.8,1c1.1,0.2,1.9,0.7,3,0.7c1.4-0.1,2.9-0.3,4.2-0.5
	c1.2,0.5,2.2,1,3.3,0c1.7,0.7,4.4-0.3,6.2-0.6c1.4-0.2,2.9-0.5,4.3-0.7c1-0.2,2.1-0.3,3.1-0.5s1.6-0.8,2.5-1.2
	c2.7-1.1,5.4-0.5,8-2.4c1.7-0.2,3.8-1.2,5.5-1.9c1.5-0.7,3.6-1.9,4.9-3c3.3-2.9,7.3-5.8,10-9.1c1.6-1,2.3-3.4,3-4.8
	c0.7-1.5,1.3-3,2.4-4.4C98.3,59,99.3,57.4,99.5,55.7z"/>
</svg>
