<?xml version="1.0" encoding="utf-8"?>
<!-- Generator: Adobe Illustrator 21.1.0, SVG Export Plug-In . SVG Version: 6.00 Build 0)  -->
<svg version="1.1" baseProfile="tiny" id="Layer_4" xmlns="http://www.w3.org/2000/svg" xmlns:xlink="http://www.w3.org/1999/xlink"
	 x="0px" y="0px" viewBox="0 0 20 20" xml:space="preserve" width="50px" height="50px">
<g>
	<path fill="none" d="M10,6C9.3,6,8.6,6.2,8,6.6l5.5,5.5c0.4-0.6,0.6-1.3,0.6-2C14,7.8,12.2,6,10,6z"/>
	<path d="M18.4,17c0.9-0.2,1.6-1,1.6-2V5c0-1.1-0.9-2-2-2h-2.6L13,0H7L4.6,3H4.4l-3-3H0l3,3l4.2,4.2l5.7,5.7L17,17l3,3v-1.4L18.4,17
		z M13.4,12L8,6.6C8.6,6.2,9.3,6,10,6c2.2,0,4,1.8,4,4C14,10.7,13.8,11.4,13.4,12z"/>
	<path d="M10,14c-2.2,0-4-1.8-4-4c0-0.7,0.2-1.4,0.6-2L1.6,3C0.7,3.2,0,4,0,5v10c0,1.1,0.9,2,2,2h13.6L12,13.4
		C11.4,13.8,10.7,14,10,14z"/>
</g>
</svg>
