<?xml version="1.0" encoding="utf-8"?>
<!-- Generator: Adobe Illustrator 21.1.0, SVG Export Plug-In . SVG Version: 6.00 Build 0)  -->
<svg version="1.1" xmlns="http://www.w3.org/2000/svg" xmlns:xlink="http://www.w3.org/1999/xlink" x="0px" y="0px"
	 viewBox="0 0 39.9 39.9" style="enable-background:new 0 0 39.9 39.9;" xml:space="preserve" width="100px" height="100px">
	<path d="M18.8,6.4c-2.5,0-4.5,1.5-6.1,4.2l-5-3.8C10,3.1,13,0,19.3,0c7.2,0,13.1,4,13.1,11.9c0,7-5.8,11.2-11.3,12l-0.3,5.5h-5.3
		l-1.1-10.1h1.9c6.4,0,8.8-3.9,8.8-7.4C25.2,8.2,22.5,6.4,18.8,6.4z M18.2,31.5c2.4,0,4.4,1.9,4.4,4.2c0,2.3-2,4.2-4.4,4.2
		s-4.4-1.9-4.4-4.2C13.8,33.4,15.7,31.5,18.2,31.5z"/>
</svg>
