<?xml version="1.0" encoding="utf-8"?>
<!-- Generator: Adobe Illustrator 21.1.0, SVG Export Plug-In . SVG Version: 6.00 Build 0)  -->
<svg version="1.1" baseProfile="tiny" id="Layer_2" xmlns="http://www.w3.org/2000/svg" xmlns:xlink="http://www.w3.org/1999/xlink"
	 x="0px" y="0px" viewBox="0 0 39.9 39.9" xml:space="preserve" width="100px" height="100px">
<path id="S" fill="#010101" d="M15.2,20.2L8.1,5.5H0l15.2,28.8L30.4,5.5h-8.1L15.2,20.2z M26.5,26.3l-4,2.8c1.3,3.3,4.9,5.4,8.8,5.4
	c5.2,0,8.7-2.1,8.7-6.6c0-4.2-3.9-5.9-6-6.7c-2.3-1-4-1.6-4-2.9c0-0.6,0.5-1,1.7-1c1.4,0,2.5,0.8,3.6,2.4l4.4-2.3
	c-0.8-2-3.1-4.8-7.8-4.8c-4.7,0-7.9,2.4-7.9,6.1c0,4.2,3.5,5.8,5.4,6.6c2.3,1,4.5,1.6,4.5,2.8c0,0.9-0.8,1.6-2.3,1.6
	C29.8,29.7,27.7,28.5,26.5,26.3L26.5,26.3z"/>
</svg>
