<svg width="125" height="110" viewBox="0 0 125 110" fill="none" xmlns="http://www.w3.org/2000/svg">
<rect x="0.5" y="0.5" width="124" height="109" rx="4.5" stroke="#E4EBF0"/>
<rect x="13" y="86" width="98" height="10" rx="1.94628" fill="#C8D0D7"/>
<rect x="13" y="13" width="17.8571" height="3.125" rx="0.389256" fill="#C8D0D7"/>
<rect x="13" y="17.9107" width="98" height="10.7143" rx="1.94628" fill="#E4EBF0"/>
<rect x="13" y="34" width="17.8571" height="3.125" rx="0.389256" fill="#C8D0D7"/>
<rect x="13" y="38.9107" width="98" height="10.7143" rx="1.94628" fill="#E4EBF0"/>
<rect x="30.5284" y="58.125" width="15.935" height="3.125" rx="0.389256" fill="#E4EBF0"/>
<rect x="95.0651" y="58.125" width="15.935" height="3.125" rx="0.389256" fill="#E4EBF0"/>
<rect x="13" y="54.5536" width="14.3415" height="10.7143" rx="1.94628" fill="#E4EBF0"/>
<rect x="30.5284" y="72.4107" width="15.935" height="3.125" rx="0.389256" fill="#E4EBF0"/>
<rect x="95.065" y="72.4107" width="15.935" height="3.125" rx="0.389256" fill="#E4EBF0"/>
<rect x="13" y="68.8393" width="14.3415" height="10.7143" rx="1.94628" fill="#E4EBF0"/>
</svg>
