<svg width="125" height="110" viewBox="0 0 125 110" fill="none" xmlns="http://www.w3.org/2000/svg">
<rect x="0.5" y="0.5" width="124" height="109" rx="4.5" stroke="#E4EBF0"/>
<rect x="13" y="86" width="98" height="10" rx="1.94628" fill="#C8D0D7"/>
<rect x="28" y="15.5" width="83" height="3" fill="#E4EBF0"/>
<rect x="28" y="20.5" width="20" height="2" fill="#E4EBF0"/>
<rect x="13" y="14" width="12" height="10" rx="1" fill="#C8D0D7"/>
<rect x="28" y="31.5" width="83" height="3" fill="#E4EBF0"/>
<rect x="28" y="36.5" width="20" height="2" fill="#E4EBF0"/>
<rect x="13" y="30" width="12" height="10" rx="1" fill="#C8D0D7"/>
<rect x="28" y="48" width="83" height="3" fill="#E4EBF0"/>
<rect x="28" y="53" width="20" height="1" fill="#E4EBF0"/>
<rect x="13" y="46" width="12" height="10" rx="1" fill="#C8D0D7"/>
<rect x="28" y="64" width="83" height="3" fill="#E4EBF0"/>
<rect x="28" y="69" width="20" height="1" fill="#E4EBF0"/>
<rect x="13" y="62" width="12" height="10" rx="1" fill="#C8D0D7"/>
</svg>
