<svg width="80" height="64" viewBox="0 0 80 64" fill="none" xmlns="http://www.w3.org/2000/svg">
<g clip-path="url(#clip0_9521_95001)">
<path d="M8.63228 38.7599L6.31564 46.6777C6.31564 46.6777 4.91529 51.2616 4.91529 52.5465C4.91529 53.8314 5.45123 56.8179 5.45123 56.8179L1.40576 64.9093H16.412L18.0025 58.9189C18.0025 58.9189 21.7714 55.6025 22.048 54.1439H14.251C14.251 54.1439 14.3893 47.841 11.675 45.5664C11.675 45.5664 13.6459 40.3747 12.2455 38.2737C10.8452 36.1727 8.90889 36.9367 8.63228 38.7599Z" fill="#FFC2A7"/>
<path d="M14.0954 56.905C14.0781 56.905 14.0435 56.905 14.0262 56.8876C13.9052 56.8529 13.836 56.7313 13.8706 56.6098C14.0608 55.95 14.0262 54.1789 14.0262 54.1615C14.0262 54.04 14.1299 53.9185 14.251 53.9185C14.372 53.9185 14.493 54.0226 14.493 54.1442C14.493 54.2136 14.5276 56.0021 14.3201 56.7313C14.2855 56.8355 14.1991 56.905 14.0954 56.905Z" fill="#D88260"/>
<path d="M15.271 60.6728C15.1327 60.6728 15.0462 60.5687 15.0462 60.4297C15.0462 60.3256 15.1154 60.2388 15.2018 60.204C16.5503 59.8047 17.8124 58.7281 17.8297 58.7281C17.9161 58.6413 18.0717 58.6413 18.1581 58.7455C18.2446 58.8323 18.2446 58.9886 18.1408 59.0754L18.1236 59.0928C18.0717 59.1449 16.7751 60.2214 15.3228 60.6555C15.3228 60.6728 15.2883 60.6728 15.271 60.6728Z" fill="#D88260"/>
<path d="M5.9526 58.6932C5.86616 58.6932 5.77972 58.6411 5.74514 58.5716C5.67599 58.398 5.62412 58.207 5.58954 58.016C5.5031 57.6514 5.38208 57.1131 5.26107 56.9394C5.19191 56.8353 5.2092 56.6964 5.31293 56.6095C5.41666 56.5401 5.55497 56.5575 5.64141 56.6616C5.64141 56.6616 5.64141 56.6616 5.64141 56.679C5.797 56.9047 5.90073 57.3562 6.03904 57.8944C6.07362 58.0681 6.14277 58.2938 6.16006 58.3459C6.21192 58.4674 6.16006 58.6063 6.05633 58.6584C6.02175 58.6758 5.98718 58.6932 5.9526 58.6932Z" fill="#D88260"/>
<path d="M11.675 45.8093C11.5886 45.8093 11.5194 45.7572 11.4848 45.6877C11.1218 45.1147 10.6204 44.4376 10.4475 44.3681C10.3265 44.3334 10.2574 44.1945 10.292 44.0729C10.3265 43.9514 10.4648 43.8819 10.5859 43.9167C10.6031 43.9167 10.6031 43.9167 10.6204 43.934C11.0353 44.0903 11.7096 45.1321 11.8998 45.4446C11.9689 45.5488 11.9343 45.7051 11.8306 45.7745C11.7787 45.7919 11.7269 45.8093 11.675 45.8093Z" fill="#D88260"/>
<path d="M28.4447 54.3874H15.2019C15.0808 54.3874 14.9598 54.2832 14.9598 54.1443C14.9598 54.0054 15.0636 53.9012 15.2019 53.9012H28.4447C29.5684 53.9012 30.4847 52.9809 30.4847 51.8523V27.2135C30.4847 26.0849 29.5684 25.1646 28.4447 25.1646H12.332C11.2083 25.1646 10.292 26.0849 10.292 27.2135V37.0065C10.292 37.1281 10.1882 37.2322 10.0499 37.2322C9.92892 37.2322 9.8252 37.1281 9.8252 37.0065V27.2135C9.8252 25.8244 10.9489 24.6958 12.332 24.6958H28.4447C29.8278 24.6958 30.9515 25.8244 30.9515 27.2135V51.8523C30.9515 53.2587 29.8278 54.3874 28.4447 54.3874Z" fill="#000111"/>
<path d="M11.7096 36.1209V26.8662H16.4985C16.7751 26.8662 16.9998 27.0919 16.9998 27.3698V27.6302C16.9998 27.908 17.2246 28.1337 17.5012 28.1337C17.5012 28.1337 17.5012 28.1337 17.5185 28.1337H23.6904C23.967 28.1337 24.1918 27.908 24.1918 27.6302C24.1918 27.3524 24.4165 27.1267 24.6931 27.1267H28.5312V51.7134H15.0981C15.0981 51.7134 14.6313 45.9313 12.7296 44.4901C12.7296 44.4901 15.392 38.2046 11.7096 36.1209Z" fill="url(#paint0_linear_9521_95001)"/>
<path d="M19.5239 27.422C19.8581 27.422 20.129 27.1499 20.129 26.8143C20.129 26.4786 19.8581 26.2065 19.5239 26.2065C19.1898 26.2065 18.9189 26.4786 18.9189 26.8143C18.9189 27.1499 19.1898 27.422 19.5239 27.422Z" fill="#000111"/>
<path d="M21.1663 27.1266C21.3382 27.1266 21.4775 26.9866 21.4775 26.814C21.4775 26.6414 21.3382 26.5015 21.1663 26.5015C20.9945 26.5015 20.8551 26.6414 20.8551 26.814C20.8551 26.9866 20.9945 27.1266 21.1663 27.1266Z" fill="#000111"/>
<path d="M66.1678 53.9707H32.1444C32.0234 53.9707 31.9024 53.8665 31.9024 53.7276C31.9024 53.5887 32.0061 53.4845 32.1444 53.4845H66.1678C67.015 53.4845 67.7065 52.79 67.6892 51.9392C67.6892 51.453 67.4645 51.0016 67.0668 50.7064L57.8349 43.9173C57.783 43.8652 57.7484 43.7957 57.7484 43.7263V19.2264C57.7484 18.1846 56.9013 17.3338 55.8467 17.3338H21.4257C20.3884 17.3338 19.5412 18.1846 19.5412 19.2264V24.6438C19.5412 24.7653 19.4375 24.8869 19.3165 24.8869C19.1955 24.8869 19.0745 24.7827 19.0745 24.6612V19.2438C19.0745 17.9415 20.129 16.8823 21.4257 16.8823H55.864C57.1606 16.8823 58.2152 17.9415 58.2152 19.2611V43.6047L67.3607 50.3244C68.2597 50.9842 68.4499 52.2344 67.7929 53.1373C67.4126 53.6582 66.8075 53.9707 66.1678 53.9707Z" fill="#000111"/>
<path d="M57.9732 43.9696H30.8305C30.7095 43.9696 30.5885 43.8654 30.5885 43.7265C30.5885 43.5876 30.6922 43.4834 30.8305 43.4834H57.9904C58.1115 43.4834 58.2325 43.5876 58.2325 43.7265C58.2325 43.8654 58.1115 43.9696 57.9732 43.9696Z" fill="#000111"/>
<path d="M55.7775 41.8508H30.8997C30.7786 41.8508 30.6749 41.7467 30.6749 41.6078C30.6749 41.4862 30.7786 41.382 30.8997 41.382H55.5528V19.2957H21.028V24.4353C21.028 24.5568 20.9243 24.661 20.786 24.661C20.665 24.661 20.5612 24.5568 20.5612 24.4353V19.07C20.5612 18.9484 20.665 18.8442 20.786 18.8442H55.7603C55.8813 18.8442 56.0023 18.9484 56.0023 19.07V41.6251C56.0196 41.7467 55.9158 41.8508 55.7775 41.8508Z" fill="#000111"/>
<path d="M23.7769 22.6297C24.2161 22.6297 24.5722 22.2721 24.5722 21.8309C24.5722 21.3898 24.2161 21.0322 23.7769 21.0322C23.3377 21.0322 22.9816 21.3898 22.9816 21.8309C22.9816 22.2721 23.3377 22.6297 23.7769 22.6297Z" fill="url(#paint1_linear_9521_95001)"/>
<path d="M26.0071 22.6297C26.4463 22.6297 26.8023 22.2721 26.8023 21.8309C26.8023 21.3898 26.4463 21.0322 26.0071 21.0322C25.5679 21.0322 25.2118 21.3898 25.2118 21.8309C25.2118 22.2721 25.5679 22.6297 26.0071 22.6297Z" fill="url(#paint2_linear_9521_95001)"/>
<path d="M28.2546 22.6297C28.6938 22.6297 29.0498 22.2721 29.0498 21.8309C29.0498 21.3898 28.6938 21.0322 28.2546 21.0322C27.8153 21.0322 27.4593 21.3898 27.4593 21.8309C27.4593 22.2721 27.8153 22.6297 28.2546 22.6297Z" fill="url(#paint3_linear_9521_95001)"/>
<path d="M67.4126 51.1405H48.6721C48.5856 51.1405 48.5165 51.0885 48.4646 51.019L47.0988 48.6402H33.9078L32.4902 50.9148C32.4383 50.9843 32.3692 51.019 32.3 51.019H30.6749C30.5539 51.019 30.4329 50.9148 30.4329 50.7759C30.4329 50.637 30.5366 50.5328 30.6749 50.5328H32.1617L33.5794 48.2756C33.6139 48.2061 33.7004 48.1714 33.7695 48.1714H47.2198C47.3063 48.1714 47.3754 48.2235 47.4273 48.2929L48.7931 50.6717H67.3953C67.5163 50.6544 67.6373 50.7585 67.6546 50.8801C67.6719 51.0016 67.5682 51.1232 67.4472 51.1405C67.4299 51.1579 67.4299 51.1579 67.4126 51.1405Z" fill="#000111"/>
<path d="M48.6721 51.0189H32.2827C32.1617 51.0189 32.0407 50.9147 32.0407 50.7758C32.0407 50.6369 32.1444 50.5327 32.2827 50.5327H48.6721C48.7931 50.5327 48.9141 50.6369 48.9141 50.7758C48.9141 50.9147 48.7931 51.0189 48.6721 51.0189Z" fill="#000111"/>
<path d="M46.9777 31.7451H28.3582V41.5555H46.9777V31.7451Z" fill="url(#paint4_linear_9521_95001)"/>
<path d="M34.1843 31.7451C36.7909 31.7451 38.904 29.6228 38.904 27.0049C38.904 24.3869 36.7909 22.2646 34.1843 22.2646C31.5777 22.2646 29.4646 24.3869 29.4646 27.0049C29.4646 29.6228 31.5777 31.7451 34.1843 31.7451Z" fill="#FED490"/>
<path d="M33.0433 27.3868C32.0752 27.3868 31.2972 27.1785 31.0897 26.5707C30.8131 25.772 31.349 24.7649 32.663 23.5495C33.2853 22.9939 33.9423 22.473 34.6338 22.0041C34.7376 21.9347 34.8931 21.9694 34.9623 22.091C35.0315 22.1951 34.9969 22.3341 34.8931 22.4035C33.8213 23.098 31.107 25.1817 31.5392 26.4145C31.885 27.4216 35.7921 26.6923 38.4372 25.8241C38.5583 25.7894 38.6966 25.8588 38.7312 25.9804C38.7657 26.1019 38.6966 26.2408 38.5756 26.2756C37.8149 26.5187 35.0142 27.3868 33.0433 27.3868Z" fill="#000111"/>
<path d="M36.3972 31.3458C36.3454 31.3458 36.3108 31.3284 36.2589 31.311C36.1552 31.2416 36.1206 31.0853 36.207 30.9811C36.207 30.9811 36.622 30.3734 36.4837 29.8525C36.3799 29.5747 36.1552 29.349 35.8786 29.2622C34.7894 28.7933 32.2826 30.1998 31.4009 30.7901C31.2972 30.8596 31.1416 30.8249 31.0724 30.7207C31.0033 30.6165 31.0378 30.4776 31.1416 30.4081C31.2799 30.3213 34.5301 28.1683 36.0687 28.8454C36.5355 29.0538 36.8294 29.349 36.9332 29.7483C37.1406 30.4776 36.622 31.2416 36.6047 31.2763C36.5528 31.311 36.4837 31.3458 36.3972 31.3458Z" fill="#000111"/>
<path d="M43.3125 41.7466C43.1915 41.7466 43.0878 41.6424 43.0705 41.5209V31.9189C43.0705 31.7973 43.1742 31.6758 43.3125 31.6758C43.4508 31.6758 43.5546 31.78 43.5546 31.9189V41.5209C43.5373 41.6424 43.4335 41.7466 43.3125 41.7466Z" fill="#000111"/>
<path d="M50.9021 40.9304C53.862 40.9304 56.2615 38.5205 56.2615 35.5477C56.2615 32.5749 53.862 30.165 50.9021 30.165C47.9422 30.165 45.5427 32.5749 45.5427 35.5477C45.5427 38.5205 47.9422 40.9304 50.9021 40.9304Z" fill="url(#paint5_linear_9521_95001)"/>
<path d="M43.4163 31.8145C43.2952 31.8145 43.1742 31.7103 43.1742 31.5888C43.1742 31.5714 43.1742 31.5367 43.1915 31.5193L46.1305 21.1012C46.1651 20.9797 46.2861 20.9102 46.4244 20.945C46.459 20.9623 46.5109 20.9797 46.5282 21.0144L53.6682 29.0364C53.7547 29.1405 53.7374 29.2794 53.6509 29.3663C53.6164 29.3836 53.5818 29.4184 53.5472 29.4184L43.4681 31.8145C43.4508 31.8145 43.4336 31.8145 43.4163 31.8145ZM46.459 21.6395L43.7447 31.2589L53.0631 29.0537L46.459 21.6395Z" fill="#000111"/>
<path d="M68.5362 44.1428C68.2077 43.7781 67.862 43.4135 67.5508 43.0315C66.6518 42.0244 65.8392 40.9305 65.1131 39.7845C64.4735 38.6906 63.8857 37.562 63.367 36.416C62.468 34.4366 61.6382 32.214 61.6555 29.9915C62.9348 30.252 64.5599 32.0404 64.5599 32.0404C64.5599 32.0404 64.4389 28.8976 64.0586 27.1439C63.2806 23.4281 66.427 21.7439 67.7237 23.4976C67.7237 23.4976 68.8128 28.0468 69.4006 29.8526C69.9884 31.6584 69.6081 37.4057 68.882 41.191C68.6918 42.1633 68.5881 43.153 68.5362 44.1428Z" fill="#D88260"/>
<path d="M58.6127 42.9097C61.1022 43.2743 62.6063 40.1316 60.6873 38.482L60.6354 38.4299C58.8548 36.954 55.8293 35.4955 55.8293 35.4955C52.3198 36.711 49.1041 33.6723 51.3343 32.2833C51.3343 32.2833 55.3452 31.7276 57.4717 31.6408C58.7856 31.5887 61.4134 33.464 61.4134 33.464C61.4134 33.464 60.0131 30.6511 58.9585 29.1926C56.7283 26.1366 58.8893 23.289 60.8083 24.3482C60.8083 24.3482 63.6609 28.0466 64.9402 29.453C66.2196 30.8595 67.7582 36.381 69.1067 40.01C70.68 44.2293 78.9956 63.5549 79.5489 64.9266L60.7565 64.8224C60.7565 64.8224 59.0795 56.2101 57.0395 53.5883C54.9995 50.9664 50.4353 46.9901 50.2106 44.5766C49.7611 42.4235 50.4353 39.2287 53.5818 41.1907C55.0859 42.1805 57.1086 42.6666 58.6127 42.9097Z" fill="#FFC2A7"/>
<path d="M66.2196 39.177C66.1159 39.177 66.0294 39.1075 65.9948 39.0033C65.7528 38.2393 65.407 37.5274 64.9575 36.8676C64.266 35.8953 61.2924 33.6554 61.2578 33.638C61.1541 33.5686 61.1368 33.4123 61.206 33.3081C61.2751 33.2039 61.4307 33.1866 61.5345 33.256C61.6555 33.3428 64.6118 35.548 65.3379 36.5898C65.8047 37.2844 66.185 38.0483 66.4443 38.8644C66.4789 38.986 66.4098 39.1249 66.2887 39.1596C66.2542 39.177 66.2369 39.177 66.2196 39.177Z" fill="#D88260"/>
<path d="M61.8802 55.9324H61.8629C60.1341 55.7761 58.5781 54.8038 57.6618 54.2308C57.4371 54.0745 57.1951 53.9356 56.953 53.8141C56.832 53.762 56.7801 53.6231 56.832 53.5015C56.8839 53.38 57.0222 53.3279 57.1432 53.38C57.4025 53.5189 57.6618 53.6578 57.9212 53.8314C58.872 54.4218 60.2897 55.3247 61.9148 55.4636C62.0358 55.481 62.1395 55.6025 62.1222 55.724C62.0877 55.8456 62.0012 55.9324 61.8802 55.9324Z" fill="#D88260"/>
<path d="M72.3915 51.5224C72.3569 51.5224 72.3224 51.5224 72.2878 51.5051C72.1668 51.453 72.1322 51.3141 72.184 51.1925C72.8583 49.8208 72.3396 49.1089 72.3051 49.0915C72.2186 48.9874 72.2532 48.8485 72.3396 48.7616C72.4434 48.6748 72.5817 48.6922 72.6681 48.7964C72.7027 48.8311 73.4115 49.7514 72.599 51.4009C72.5644 51.4703 72.4779 51.5224 72.3915 51.5224Z" fill="#D88260"/>
<path fill-rule="evenodd" clip-rule="evenodd" d="M20 43C23.3137 43 26 40.3137 26 37C26 33.6863 23.3137 31 20 31C16.6863 31 14 33.6863 14 37C14 40.3137 16.6863 43 20 43ZM21.8451 38.758C22.192 38.5387 22.4 38.1717 22.4 37.7791C22.4 37.2334 22.0016 36.7589 21.4366 36.6315L19.7435 36.2113C19.5839 36.1753 19.5457 35.9785 19.6815 35.8919L21.0005 35.0506C21.6144 34.659 21.7741 33.8742 21.357 33.2977C21.3049 33.2256 21.2004 33.2069 21.1237 33.2558L18.144 35.2657C17.8037 35.4828 17.6 35.844 17.6 36.2303C17.6 36.7694 17.9936 37.2382 18.5519 37.364L20.2725 37.7905C20.4325 37.8266 20.4704 38.024 20.3339 38.1103L19.0053 38.9502C18.3896 39.3395 18.2265 40.1236 18.641 40.7018C18.6928 40.774 18.7972 40.7932 18.8741 40.7445L21.8451 38.758Z" fill="white"/>
</g>
<defs>
<linearGradient id="paint0_linear_9521_95001" x1="29.7835" y1="15.3382" x2="14.9942" y2="51.6874" gradientUnits="userSpaceOnUse">
<stop stop-color="#F38374"/>
<stop offset="1" stop-color="#C64234"/>
</linearGradient>
<linearGradient id="paint1_linear_9521_95001" x1="22.2392" y1="19.2988" x2="24.7549" y2="23.3851" gradientUnits="userSpaceOnUse">
<stop stop-color="#F38374"/>
<stop offset="1" stop-color="#C64234"/>
</linearGradient>
<linearGradient id="paint2_linear_9521_95001" x1="24.4733" y1="19.2995" x2="26.989" y2="23.3859" gradientUnits="userSpaceOnUse">
<stop stop-color="#F38374"/>
<stop offset="1" stop-color="#C64234"/>
</linearGradient>
<linearGradient id="paint3_linear_9521_95001" x1="26.7086" y1="19.2995" x2="29.2243" y2="23.3859" gradientUnits="userSpaceOnUse">
<stop stop-color="#F38374"/>
<stop offset="1" stop-color="#C64234"/>
</linearGradient>
<linearGradient id="paint4_linear_9521_95001" x1="43.9228" y1="18.8944" x2="34.8424" y2="44.4842" gradientUnits="userSpaceOnUse">
<stop stop-color="#0A6B5B"/>
<stop offset="0.78" stop-color="#005146"/>
<stop offset="0.91" stop-color="#005045"/>
</linearGradient>
<linearGradient id="paint5_linear_9521_95001" x1="55.1878" y1="20.7349" x2="48.9036" y2="42.2267" gradientUnits="userSpaceOnUse">
<stop stop-color="#F38374"/>
<stop offset="1" stop-color="#C64234"/>
</linearGradient>
<clipPath id="clip0_9521_95001">
<rect width="80" height="64" fill="white"/>
</clipPath>
</defs>
</svg>
