<svg width="256" height="154" viewBox="0 0 256 154" fill="none" xmlns="http://www.w3.org/2000/svg">
<path d="M31.488 70.3664L24.6272 93.8151C24.6272 93.8151 20.48 107.391 20.48 111.196C20.48 115.001 22.0672 123.846 22.0672 123.846L10.0864 147.809H54.528L59.2384 130.068C59.2384 130.068 70.4 120.246 71.2192 115.927H48.128C48.128 115.927 48.5376 97.2604 40.4992 90.5241C40.4992 90.5241 46.336 75.1487 42.1888 68.9266C38.0416 62.7045 32.3072 64.967 31.488 70.3664Z" fill="#FFC2A7"/>
<path d="M47.6673 124.103C47.6161 124.103 47.5137 124.103 47.4625 124.052C47.1041 123.949 46.8993 123.589 47.0017 123.229C47.5649 121.275 47.4625 116.03 47.4625 115.978C47.4625 115.618 47.7697 115.258 48.1281 115.258C48.4865 115.258 48.8449 115.567 48.8449 115.927C48.8449 116.132 48.9473 121.429 48.3329 123.589C48.2305 123.897 47.9745 124.103 47.6673 124.103Z" fill="#D88260"/>
<path d="M51.1488 135.262C50.7392 135.262 50.4832 134.953 50.4832 134.542C50.4832 134.233 50.688 133.976 50.944 133.873C54.9376 132.691 58.6752 129.503 58.7264 129.503C58.9824 129.245 59.4432 129.245 59.6992 129.554C59.9552 129.811 59.9552 130.274 59.648 130.531L59.5968 130.582C59.4432 130.737 55.6032 133.925 51.3024 135.21C51.3024 135.262 51.2 135.262 51.1488 135.262Z" fill="#D88260"/>
<path d="M23.552 129.4C23.296 129.4 23.04 129.245 22.9376 129.04C22.7328 128.525 22.5792 127.96 22.4768 127.394C22.2208 126.314 21.8624 124.72 21.504 124.206C21.2992 123.897 21.3504 123.486 21.6576 123.229C21.9648 123.023 22.3744 123.075 22.6304 123.383C22.6304 123.383 22.6304 123.383 22.6304 123.435C23.0912 124.103 23.3984 125.44 23.808 127.034C23.9104 127.548 24.1152 128.217 24.1664 128.371C24.32 128.731 24.1664 129.142 23.8592 129.297C23.7568 129.348 23.6544 129.4 23.552 129.4Z" fill="#D88260"/>
<path d="M40.4993 91.2441C40.2433 91.2441 40.0385 91.0898 39.9361 90.8841C38.8609 89.1872 37.3761 87.1817 36.8641 86.976C36.5057 86.8732 36.3009 86.4618 36.4033 86.1018C36.5057 85.7419 36.9153 85.5362 37.2737 85.639C37.3249 85.639 37.3249 85.639 37.3761 85.6904C38.6049 86.1533 40.6017 89.2386 41.1649 90.1642C41.3697 90.4728 41.2673 90.9356 40.9601 91.1412C40.8065 91.1927 40.6529 91.2441 40.4993 91.2441Z" fill="#D88260"/>
<path d="M90.1632 116.647H50.944C50.5856 116.647 50.2272 116.338 50.2272 115.927C50.2272 115.515 50.5344 115.207 50.944 115.207H90.1632C93.4912 115.207 96.2048 112.482 96.2048 109.139V36.1704C96.2048 32.8279 93.4912 30.1025 90.1632 30.1025H42.4448C39.1168 30.1025 36.4032 32.8279 36.4032 36.1704V65.1727C36.4032 65.5327 36.0959 65.8412 35.6863 65.8412C35.3279 65.8412 35.0208 65.5327 35.0208 65.1727V36.1704C35.0208 32.0566 38.3488 28.7141 42.4448 28.7141H90.1632C94.2592 28.7141 97.5872 32.0566 97.5872 36.1704V109.139C97.5872 113.304 94.2592 116.647 90.1632 116.647Z" fill="#000111"/>
<path d="M40.6016 62.5501V35.1418H54.784C55.6032 35.1418 56.2688 35.8103 56.2688 36.6331V37.4044C56.2688 38.2272 56.9344 38.8957 57.7536 38.8957C57.7536 38.8957 57.7536 38.8957 57.8048 38.8957H76.0832C76.9024 38.8957 77.568 38.2272 77.568 37.4044C77.568 36.5817 78.2336 35.9132 79.0527 35.9132H90.4192V108.728H50.6368C50.6368 108.728 49.2544 91.6039 43.6224 87.3358C43.6224 87.3358 51.5072 68.7208 40.6016 62.5501Z" fill="url(#paint0_linear_9521_94481)"/>
<path d="M63.7439 36.7876C64.7336 36.7876 65.5359 35.9818 65.5359 34.9878C65.5359 33.9938 64.7336 33.188 63.7439 33.188C62.7542 33.188 61.9519 33.9938 61.9519 34.9878C61.9519 35.9818 62.7542 36.7876 63.7439 36.7876Z" fill="#000111"/>
<path d="M68.6079 35.9132C69.1169 35.9132 69.5295 35.4988 69.5295 34.9876C69.5295 34.4764 69.1169 34.062 68.6079 34.062C68.0989 34.062 67.6863 34.4764 67.6863 34.9876C67.6863 35.4988 68.0989 35.9132 68.6079 35.9132Z" fill="#000111"/>
<path d="M201.882 115.413H101.12C100.762 115.413 100.403 115.104 100.403 114.693C100.403 114.281 100.71 113.973 101.12 113.973H201.882C204.39 113.973 206.438 111.916 206.387 109.396C206.387 107.956 205.722 106.619 204.544 105.745L177.203 85.639C177.05 85.4847 176.947 85.279 176.947 85.0733V12.516C176.947 9.43067 174.438 6.91096 171.315 6.91096H69.376C66.304 6.91096 63.7952 9.43067 63.7952 12.516V28.5599C63.7952 28.9198 63.488 29.2798 63.1296 29.2798C62.7712 29.2798 62.4128 28.9713 62.4128 28.6113V12.5674C62.4128 8.71075 65.536 5.57397 69.376 5.57397H171.366C175.206 5.57397 178.33 8.71076 178.33 12.6189V84.7134L205.414 104.614C208.077 106.568 208.64 110.27 206.694 112.944C205.568 114.487 203.776 115.413 201.882 115.413Z" fill="#000111"/>
<path d="M177.613 85.7934H97.2288C96.8704 85.7934 96.512 85.4848 96.512 85.0734C96.512 84.6621 96.8192 84.3535 97.2288 84.3535H177.664C178.022 84.3535 178.381 84.6621 178.381 85.0734C178.381 85.4848 178.022 85.7934 177.613 85.7934Z" fill="#000111"/>
<path d="M171.111 79.5197H97.4338C97.0754 79.5197 96.7682 79.2112 96.7682 78.7998C96.7682 78.4399 97.0754 78.1313 97.4338 78.1313H170.445V12.7218H68.1986V27.9429C68.1986 28.3028 67.8914 28.6113 67.4818 28.6113C67.1234 28.6113 66.8162 28.3028 66.8162 27.9429V12.0533C66.8162 11.6933 67.1234 11.3848 67.4818 11.3848H171.059C171.418 11.3848 171.776 11.6933 171.776 12.0533V78.8512C171.827 79.2112 171.52 79.5197 171.111 79.5197Z" fill="#000111"/>
<path d="M76.3393 22.5949C77.6401 22.5949 78.6945 21.5359 78.6945 20.2295C78.6945 18.9231 77.6401 17.864 76.3393 17.864C75.0386 17.864 73.9841 18.9231 73.9841 20.2295C73.9841 21.5359 75.0386 22.5949 76.3393 22.5949Z" fill="url(#paint1_linear_9521_94481)"/>
<path d="M82.9441 22.5949C84.2448 22.5949 85.2993 21.5359 85.2993 20.2295C85.2993 18.9231 84.2448 17.864 82.9441 17.864C81.6433 17.864 80.5889 18.9231 80.5889 20.2295C80.5889 21.5359 81.6433 22.5949 82.9441 22.5949Z" fill="url(#paint2_linear_9521_94481)"/>
<path d="M89.6001 22.5949C90.9008 22.5949 91.9553 21.5359 91.9553 20.2295C91.9553 18.9231 90.9008 17.864 89.6001 17.864C88.2993 17.864 87.2449 18.9231 87.2449 20.2295C87.2449 21.5359 88.2993 22.5949 89.6001 22.5949Z" fill="url(#paint3_linear_9521_94481)"/>
<path d="M205.568 107.031H150.067C149.811 107.031 149.606 106.877 149.453 106.671L145.408 99.626H106.342L102.144 106.362C101.99 106.568 101.786 106.671 101.581 106.671H96.7681C96.4097 106.671 96.0513 106.362 96.0513 105.951C96.0513 105.54 96.3585 105.231 96.7681 105.231H101.171L105.37 98.5461C105.472 98.3404 105.728 98.2375 105.933 98.2375H145.766C146.022 98.2375 146.227 98.3918 146.381 98.5975L150.426 105.642H205.517C205.875 105.591 206.234 105.9 206.285 106.259C206.336 106.619 206.029 106.979 205.67 107.031C205.619 107.082 205.619 107.082 205.568 107.031Z" fill="#000111"/>
<path d="M150.067 106.671H101.53C101.171 106.671 100.813 106.362 100.813 105.951C100.813 105.539 101.12 105.231 101.53 105.231H150.067C150.426 105.231 150.784 105.539 150.784 105.951C150.784 106.362 150.426 106.671 150.067 106.671Z" fill="#000111"/>
<path d="M145.05 49.5916H89.9072V78.6453H145.05V49.5916Z" fill="url(#paint4_linear_9521_94481)"/>
<path d="M107.162 49.5916C114.881 49.5916 121.139 43.3064 121.139 35.5533C121.139 27.8001 114.881 21.5149 107.162 21.5149C99.4421 21.5149 93.1841 27.8001 93.1841 35.5533C93.1841 43.3064 99.4421 49.5916 107.162 49.5916Z" fill="#FED490"/>
<path d="M103.782 36.6845C100.915 36.6845 98.6112 36.0674 97.9968 34.2676C97.1776 31.9022 98.7648 28.9197 102.656 25.3201C104.499 23.6746 106.445 22.1319 108.493 20.7435C108.8 20.5378 109.261 20.6407 109.466 21.0006C109.67 21.3092 109.568 21.7205 109.261 21.9262C106.086 23.9831 98.048 30.1538 99.328 33.8048C100.352 36.7874 111.923 34.6276 119.757 32.0565C120.115 31.9536 120.525 32.1593 120.627 32.5193C120.73 32.8792 120.525 33.2906 120.166 33.3935C117.914 34.1134 109.619 36.6845 103.782 36.6845Z" fill="#000111"/>
<path d="M113.715 48.409C113.562 48.409 113.459 48.3576 113.306 48.3061C112.998 48.1004 112.896 47.6376 113.152 47.3291C113.152 47.3291 114.381 45.5293 113.971 43.9866C113.664 43.1639 112.998 42.4954 112.179 42.2383C108.954 40.8499 101.53 45.0151 98.9185 46.7635C98.6113 46.9691 98.1505 46.8663 97.9457 46.5578C97.7409 46.2492 97.8433 45.8379 98.1505 45.6322C98.5601 45.375 108.186 38.9986 112.742 41.0041C114.125 41.6212 114.995 42.4954 115.302 43.6781C115.917 45.8378 114.381 48.1004 114.33 48.2033C114.176 48.3061 113.971 48.409 113.715 48.409Z" fill="#000111"/>
<path d="M134.195 79.2111C133.837 79.2111 133.53 78.9026 133.479 78.5426V50.1059C133.479 49.7459 133.786 49.386 134.195 49.386C134.605 49.386 134.912 49.6945 134.912 50.1059V78.5426C134.861 78.9026 134.554 79.2111 134.195 79.2111Z" fill="#000111"/>
<path d="M60.672 74.0175C54.3744 74.0175 49.2544 68.8752 49.2544 62.5502C49.2544 56.2253 54.3744 51.083 60.672 51.083C66.9696 51.083 72.0896 56.2253 72.0896 62.5502C72.0384 68.8752 66.9696 74.0175 60.672 74.0175ZM60.672 52.4714C55.1424 52.4714 50.6368 56.9452 50.6368 62.4988C50.6368 68.0525 55.0912 72.5777 60.6208 72.5777C66.1504 72.5777 70.656 68.1039 70.656 62.5502C70.656 56.9966 66.2016 52.5228 60.672 52.4714Z" fill="white"/>
<path d="M89.9073 79.1082H59.3921C59.0337 79.1082 58.6753 78.7996 58.6753 78.4397C58.6753 78.234 58.7777 78.0283 58.9825 77.874L89.4977 55.1967C89.8049 54.991 90.2145 55.0424 90.4705 55.3509C90.5729 55.4538 90.6241 55.608 90.6241 55.7623V78.4397C90.6241 78.7482 90.3169 79.0567 89.9073 79.1082ZM61.4913 77.7198H89.1905V57.0993L61.4913 77.7198Z" fill="#000111"/>
<path d="M156.672 76.7941C165.438 76.7941 172.544 69.6571 172.544 60.8531C172.544 52.0491 165.438 44.9121 156.672 44.9121C147.906 44.9121 140.8 52.0491 140.8 60.8531C140.8 69.6571 147.906 76.7941 156.672 76.7941Z" fill="url(#paint5_linear_9521_94481)"/>
<path d="M134.502 49.7974C134.144 49.7974 133.786 49.4888 133.786 49.1289C133.786 49.0774 133.786 48.9746 133.837 48.9232L142.541 18.0696C142.643 17.7096 143.002 17.504 143.411 17.6068C143.514 17.6582 143.667 17.7096 143.718 17.8125L164.864 41.5697C165.12 41.8783 165.069 42.2896 164.813 42.5468C164.71 42.5982 164.608 42.701 164.506 42.701L134.656 49.7974C134.605 49.7974 134.554 49.7974 134.502 49.7974ZM143.514 19.6637L135.475 48.1518L163.072 41.6212L143.514 19.6637Z" fill="#000111"/>
<path d="M208.896 86.3074C207.923 85.2275 206.899 84.1476 205.978 83.0163C203.315 80.0338 200.909 76.7942 198.758 73.4003C196.864 70.1607 195.123 66.8182 193.587 63.4243C190.925 57.5621 188.467 50.9801 188.518 44.398C192.307 45.1693 197.12 50.4658 197.12 50.4658C197.12 50.4658 196.762 41.1583 195.635 35.9646C193.331 24.9602 202.65 19.9722 206.49 25.1659C206.49 25.1659 209.715 38.6386 211.456 43.9866C213.197 49.3345 212.07 66.3554 209.92 77.5655C209.357 80.4452 209.05 83.3763 208.896 86.3074Z" fill="#D88260"/>
<path d="M179.507 82.6565C186.88 83.7363 191.334 74.4288 185.651 69.5437L185.498 69.3894C180.224 65.0185 171.264 60.699 171.264 60.699C160.87 64.2986 151.347 55.2996 157.952 51.1858C157.952 51.1858 169.83 49.5403 176.128 49.2832C180.019 49.1289 187.802 54.6826 187.802 54.6826C187.802 54.6826 183.654 46.3521 180.531 42.0326C173.926 32.9822 180.326 24.5489 186.01 27.6857C186.01 27.6857 194.458 38.6387 198.246 42.8039C202.035 46.9692 206.592 63.3216 210.586 74.0689C215.245 86.5646 239.872 143.798 241.51 147.86L185.856 147.552C185.856 147.552 180.89 122.046 174.848 114.281C168.806 106.517 155.29 94.7408 154.624 87.593C153.293 81.2166 155.29 71.7549 164.608 77.5656C169.062 80.4967 175.053 81.9366 179.507 82.6565Z" fill="#FFC2A7"/>
<path d="M202.035 71.6004C201.728 71.6004 201.472 71.3947 201.37 71.0862C200.653 68.8236 199.629 66.7153 198.298 64.7612C196.25 61.8815 187.443 55.248 187.341 55.1966C187.034 54.9909 186.983 54.5281 187.187 54.2196C187.392 53.911 187.853 53.8596 188.16 54.0653C188.519 54.3224 197.274 60.8531 199.424 63.9385C200.807 65.9954 201.933 68.2579 202.701 70.6748C202.803 71.0348 202.599 71.4461 202.24 71.549C202.138 71.6004 202.087 71.6004 202.035 71.6004Z" fill="#D88260"/>
<path d="M189.184 121.223H189.133C184.013 120.761 179.405 117.881 176.691 116.184C176.026 115.721 175.309 115.31 174.592 114.95C174.234 114.796 174.08 114.384 174.234 114.024C174.387 113.664 174.797 113.51 175.155 113.664C175.923 114.076 176.691 114.487 177.459 115.001C180.275 116.75 184.474 119.424 189.286 119.835C189.645 119.886 189.952 120.246 189.901 120.606C189.798 120.966 189.542 121.223 189.184 121.223Z" fill="#D88260"/>
<path d="M220.314 108.162C220.211 108.162 220.109 108.162 220.006 108.11C219.648 107.956 219.546 107.545 219.699 107.185C221.696 103.122 220.16 101.014 220.058 100.963C219.802 100.654 219.904 100.243 220.16 99.9857C220.467 99.7286 220.877 99.78 221.133 100.089C221.235 100.191 223.334 102.917 220.928 107.802C220.826 108.008 220.57 108.162 220.314 108.162Z" fill="#D88260"/>
<path d="M250.163 148.477H5.83667C5.47827 148.477 5.11987 148.169 5.11987 147.758C5.11987 147.346 5.42707 147.038 5.83667 147.038H250.214C250.573 147.038 250.931 147.346 250.931 147.758C250.931 148.169 250.573 148.477 250.163 148.477Z" fill="#000111"/>
<defs>
<linearGradient id="paint0_linear_9521_94481" x1="94.128" y1="1.00124" x2="50.329" y2="108.651" gradientUnits="userSpaceOnUse">
<stop stop-color="#F38374"/>
<stop offset="1" stop-color="#C64234"/>
</linearGradient>
<linearGradient id="paint1_linear_9521_94481" x1="71.7853" y1="12.7303" x2="79.2356" y2="24.8321" gradientUnits="userSpaceOnUse">
<stop stop-color="#F38374"/>
<stop offset="1" stop-color="#C64234"/>
</linearGradient>
<linearGradient id="paint2_linear_9521_94481" x1="78.4017" y1="12.7326" x2="85.852" y2="24.8345" gradientUnits="userSpaceOnUse">
<stop stop-color="#F38374"/>
<stop offset="1" stop-color="#C64234"/>
</linearGradient>
<linearGradient id="paint3_linear_9521_94481" x1="85.0218" y1="12.7326" x2="92.4721" y2="24.8345" gradientUnits="userSpaceOnUse">
<stop stop-color="#F38374"/>
<stop offset="1" stop-color="#C64234"/>
</linearGradient>
<linearGradient id="paint4_linear_9521_94481" x1="136.003" y1="11.5337" x2="109.111" y2="87.319" gradientUnits="userSpaceOnUse">
<stop stop-color="#0A6B5B"/>
<stop offset="0.78" stop-color="#005146"/>
<stop offset="0.91" stop-color="#005045"/>
</linearGradient>
<linearGradient id="paint5_linear_9521_94481" x1="169.364" y1="16.9844" x2="150.753" y2="80.6331" gradientUnits="userSpaceOnUse">
<stop stop-color="#F38374"/>
<stop offset="1" stop-color="#C64234"/>
</linearGradient>
</defs>
</svg>
