<?xml version="1.0" encoding="utf-8"?>
<!-- Generator: Adobe Illustrator 21.1.0, SVG Export Plug-In . SVG Version: 6.00 Build 0)  -->
<svg version="1.1" baseProfile="tiny" xmlns="http://www.w3.org/2000/svg" xmlns:xlink="http://www.w3.org/1999/xlink" x="0px"
	 y="0px" viewBox="0 0 20 20" xml:space="preserve">
<g id="Layer_5">
	<polygon points="11,16 10,16 8,14 9,14 	"/>
	<polygon points="11,12 10,12 8,14 9,14 	"/>
	<polygon points="11,12 10,12 8,10 9,10 	"/>
	<polygon points="11,8 10,8 8,10 9,10 	"/>
	<polygon points="11,8 10,8 8,6 9,6 	"/>
	<polygon points="11,4 10,4 8,6 9,6 	"/>
</g>
<g id="Layer_2">
	<path d="M0,3v14h19V3H0z M18,16H1V4h17V16z"/>
</g>
</svg>
