<?xml version="1.0" encoding="utf-8"?>
<svg version="1.1" baseProfile="tiny" xmlns="http://www.w3.org/2000/svg" xmlns:xlink="http://www.w3.org/1999/xlink"
	 x="0px" y="0px" viewBox="0 0 200 200" xml:space="preserve">
<g id="default">	 
	<path d="M181.8,21.7c-3.2-1.8-5.6,3.7-8.8,2.7c-2.8-0.8,5.3-10,1-11.1c-3.9-1-7.3,9-10.1,8c-2.7-1-0.8-9.5-5.7-9.5
		c-4.8-0.1-1.1,9.1-3.5,11.4c-2.4,2.2-8.7-2.9-10.8,0.4c-3,4.9,7.6,5.4,8.3,6.9c0.3,0.5-1.1,4.4-3.6,9.9c-4.1-2-8.4-3.2-12.3-3.3
		c-27-0.1-53.4,3.7-79.2,11.5c-3.9,1.3-7.9,3.9-11.4,7.2c-3.3-4.6-5.2-7.8-5.1-8.3c0.4-1.5,10.7-4.3,6.7-8.5
		c-2.7-2.8-7.8,3.5-10.6,1.8C34,39.1,35.7,29.4,31,30.4c-4.8,1-1.2,8.9-3.6,10.5c-2.5,1.6-7.9-7.5-11.5-5.7c-4,2,5.9,9.2,3.3,10.6
		c-2.9,1.6-6.4-3.3-9.2-0.8c-2.8,2.6,3,5.3,8.6,10.5c2,2.2,8.7,8.6,16.9,16.5c-0.4,1.3-0.6,2.6-0.8,3.9c-1.3,17,1.1,33.5,7.2,49.5
		c3.5,8.6,14,16.4,23.7,18.9c-2.7,8.8-7.6,16.8-14.1,23.2c14.9-2.5,27.4-11,35.4-22.7c21.6-1.1,42.8-4.8,63.6-11.1
		c10.3-3.3,21.5-16.2,22.5-27.3c1.3-17-1.1-33.5-7.2-49.5c-0.6-1.5-1.5-3.1-2.5-4.5c6-8.9,10.9-16.1,12.3-18.6
		C180,27.5,185.2,23.6,181.8,21.7z M88.6,93.2c-3,0.4-5.8-1.8-6.2-4.8l-0.8-6c-0.4-3,1.8-5.8,4.8-6.2s5.8,1.8,6.2,4.8l0.8,6
		C93.8,90,91.6,92.8,88.6,93.2z M113.1,107.2c-0.5,0.1-1-0.3-1.1-0.9c-0.3-2.7-2.9-4.7-5.6-4.3c-2.7,0.3-4.7,2.9-4.3,5.6
		c0.1,0.5-0.3,1-0.9,1.1s-1-0.3-1.1-0.9c-0.5-3.8,2.2-7.3,6.1-7.8s7.3,2.2,7.8,6.1C114,106.6,113.7,107.1,113.1,107.2z M122.4,88.8
		c-3,0.4-5.8-1.8-6.2-4.8l-0.8-6c-0.4-3,1.8-5.8,4.8-6.2s5.8,1.8,6.2,4.8l0.8,6C127.5,85.7,125.4,88.5,122.4,88.8z"/>
	<polygon points="168.3,146.9 164.4,151.6 158.3,152 163,155.9 163.5,162 167.3,157.3 173.4,156.9 168.7,153 "/>
	<polygon points="71,18.7 72.1,14.3 68.3,16.8 63.9,15.7 66.4,19.5 65.2,23.9 69.1,21.4 73.5,22.6 "/>
	<polygon points="180.5,119.9 178,120.4 180.2,121.8 180.7,124.3 182.1,122.1 184.6,121.6 182.4,120.3 181.9,117.8 "/>
	<circle cx="186" cy="85" r="3"/>
	<circle cx="188" cy="52" r="2"/>
	<polygon points="11.5,86.5 10.2,94.1 3.7,98.3 11.3,99.6 15.6,106 16.9,98.4 23.3,94.2 15.7,92.9 "/>
	<polygon points="35.3,154.4 33.9,156.6 31.4,157.1 33.6,158.5 34.1,161 35.5,158.8 38,158.3 35.8,156.9 "/>
	<circle cx="13" cy="134.8" r="2"/>
	<circle cx="18" cy="12.8" r="5"/>
	<ellipse cx="100" cy="190" rx="35" ry="10" opacity="0.333"/>
	<polygon points="123.5,9.9 121,10.4 123.2,11.8 123.7,14.3 125.1,12.1 127.6,11.6 125.4,10.3 124.9,7.8 "/>
	<circle cx="118" cy="153.8" r="2"/>
</g>	
</svg>
