<?xml version="1.0" encoding="utf-8"?>
<!-- Generator: Adobe Illustrator 22.0.1, SVG Export Plug-In . SVG Version: 6.00 Build 0)  -->
<svg version="1.1" baseProfile="tiny" id="Layer_3" xmlns="http://www.w3.org/2000/svg" xmlns:xlink="http://www.w3.org/1999/xlink"
	 x="0px" y="0px" viewBox="0 0 16 16" xml:space="preserve">
<path fill="#010101" d="M8,2C4.6,2,1.6,4.4,0,8c1.6,3.6,4.6,6,8,6s6.4-2.4,8-6C14.4,4.4,11.4,2,8,2z M8,13c-2.8,0-5.4-1.9-6.9-5
	C2.6,4.9,5.2,3,8,3c2.8,0,5.4,1.9,6.9,5C13.4,11.1,10.8,13,8,13z"/>
<circle fill="#010101" cx="8" cy="8" r="1"/>
<path d="M8,5C6.3,5,5,6.3,5,8s1.3,3,3,3s3-1.3,3-3S9.7,5,8,5z M8,10c-1.1,0-2-0.9-2-2c0-1.1,0.9-2,2-2c1.1,0,2,0.9,2,2
	C10,9.1,9.1,10,8,10z"/>
</svg>
