<?xml version="1.0" encoding="utf-8"?>
<!-- Generator: Adobe Illustrator 22.0.1, SVG Export Plug-In . SVG Version: 6.00 Build 0)  -->
<svg version="1.1" baseProfile="tiny" id="Layer_3" xmlns="http://www.w3.org/2000/svg" xmlns:xlink="http://www.w3.org/1999/xlink"
	 x="0px" y="0px" viewBox="0 0 16 16" xml:space="preserve">
<path fill="#020202" d="M15,3.8L15,3.8C14.9,2.8,14,2,13,2H3C2,2,1.1,2.8,1,3.8l0,0C1,3.9,1,3.9,1,4v1v7c0,1.1,0.9,2,2,2h10
	c1.1,0,2-0.9,2-2V5V4C15,3.9,15,3.9,15,3.8z M2,4c0-0.6,0.4-1,1-1h10c0.6,0,1,0.4,1,1v0.4L8,7.9L2,4.4V4z M14,12c0,0.6-0.4,1-1,1H3
	c-0.6,0-1-0.4-1-1V5.6l5.7,3.3C7.8,9,7.9,9,8,9s0.2,0,0.3-0.1L14,5.6V12z"/>
</svg>
