<?xml version="1.0" encoding="utf-8"?>
<!-- Generator: Adobe Illustrator 22.0.1, SVG Export Plug-In . SVG Version: 6.00 Build 0)  -->
<svg version="1.1" baseProfile="tiny" id="Layer_3" xmlns="http://www.w3.org/2000/svg" xmlns:xlink="http://www.w3.org/1999/xlink"
	 x="0px" y="0px" viewBox="0 0 16 16" xml:space="preserve">
<path d="M12,10c-0.6,0-1.1,0.3-1.5,0.6l-3.7-2C7,8.5,7,8.2,7,8c0-0.2,0-0.4-0.1-0.5l3.6-2.1C10.9,5.8,11.4,6,12,6c1.1,0,2-0.9,2-2
	c0-1.1-0.9-2-2-2s-2,0.9-2,2c0,0.2,0,0.4,0.1,0.5L6.4,6.6C6.1,6.2,5.6,6,5,6C3.9,6,3,6.9,3,8c0,1.1,0.9,2,2,2c0.5,0,0.9-0.2,1.3-0.5
	l3.8,2c0,0.2-0.1,0.3-0.1,0.5c0,1.1,0.9,2,2,2s2-0.9,2-2C14,10.9,13.1,10,12,10z M12,3c0.6,0,1,0.4,1,1s-0.4,1-1,1s-1-0.4-1-1
	S11.4,3,12,3z M5,9C4.4,9,4,8.6,4,8s0.4-1,1-1s1,0.4,1,1S5.6,9,5,9z M12,13c-0.6,0-1-0.4-1-1s0.4-1,1-1s1,0.4,1,1S12.6,13,12,13z"/>
</svg>
