<?xml version="1.0" encoding="utf-8"?>
<!-- Generator: Adobe Illustrator 22.0.1, SVG Export Plug-In . SVG Version: 6.00 Build 0)  -->
<svg version="1.1" baseProfile="tiny" xmlns="http://www.w3.org/2000/svg" xmlns:xlink="http://www.w3.org/1999/xlink" x="0px"
	 y="0px" viewBox="0 0 16 16" xml:space="preserve">
<g id="Layer_4">
</g>
<g id="Layer_2">
	<path d="M8,0C3.6,0,0,3.6,0,8c0,1.9,0.6,3.6,1.7,4.9c0.2,0.3,0.5,0.6,0.7,0.8c0,0,0,0,0,0c0.4,0.4,0.8,0.7,1.2,1c0,0,0.1,0,0.1,0
		c0.2,0.1,0.4,0.3,0.6,0.4c0.1,0,0.1,0.1,0.2,0.1c0.2,0.1,0.4,0.2,0.6,0.2c0.1,0,0.2,0.1,0.3,0.1c0.2,0.1,0.4,0.1,0.6,0.2
		c0.1,0,0.2,0.1,0.3,0.1c0.2,0,0.4,0.1,0.6,0.1c0.1,0,0.2,0,0.3,0C7.4,16,7.7,16,8,16s0.6,0,0.9-0.1c0.1,0,0.2,0,0.3,0
		c0.2,0,0.4-0.1,0.6-0.1c0.1,0,0.2,0,0.3-0.1c0.2,0,0.4-0.1,0.6-0.2c0.1,0,0.2-0.1,0.3-0.1c0.2-0.1,0.4-0.2,0.6-0.2
		c0.1,0,0.1-0.1,0.2-0.1c0.2-0.1,0.4-0.2,0.6-0.4c0,0,0.1,0,0.1,0c0.4-0.3,0.8-0.6,1.2-1c0,0,0,0,0,0c0.3-0.3,0.5-0.5,0.7-0.8
		C15.4,11.6,16,9.9,16,8C16,3.6,12.4,0,8,0z M8,15c-2,0-3.8-0.8-5.1-2.2C4,11.1,5.9,10,8,10s4,1.1,5.1,2.8C11.8,14.2,10,15,8,15z
		 M14.9,9.2c-0.1,0.7-0.3,1.3-0.6,1.9c0,0,0,0,0,0c-0.2,0.3-0.3,0.6-0.5,0.9c-1.3-1.8-3.4-3-5.7-3s-4.5,1.2-5.7,3
		c-0.2-0.3-0.4-0.6-0.5-0.9c0,0,0,0,0,0c-0.3-0.6-0.5-1.2-0.6-1.9c0-0.1,0-0.1,0-0.2C1,8.7,1,8.3,1,8c0-3.9,3.1-7,7-7s7,3.1,7,7
		c0,0.3,0,0.7-0.1,1C14.9,9.1,14.9,9.1,14.9,9.2z"/>
</g>
<g id="Layer_5">
	<path d="M8,3C6.3,3,5,4.3,5,6s1.3,3,3,3s3-1.3,3-3S9.7,3,8,3z M8,8C6.9,8,6,7.1,6,6s0.9-2,2-2c1.1,0,2,0.9,2,2S9.1,8,8,8z"/>
</g>
</svg>
