<?xml version="1.0" encoding="utf-8"?>
<!-- Generator: Adobe Illustrator 22.0.1, SVG Export Plug-In . SVG Version: 6.00 Build 0)  -->
<svg version="1.1" baseProfile="tiny" xmlns="http://www.w3.org/2000/svg" xmlns:xlink="http://www.w3.org/1999/xlink" x="0px"
	 y="0px" viewBox="0 0 16 16" xml:space="preserve">
<g id="Layer_3">
</g>
<g id="Layer_2">
	<g>
		<path fill="#010101" d="M9.9,6L8,0L6.1,6H0l5,3.7L3,16c0,0,3.7-4.9,5.9-6.5C11.1,7.9,16,6,16,6H9.9z M8.3,8.7
			c-0.8,0.6-1.8,1.6-2.8,2.7l0.6-2L3,7h3.9L8,3.4L9.1,7h2.1C10.2,7.5,9.1,8.1,8.3,8.7z"/>
		<path fill="#010101" d="M11,9.7L8,12l5,4L11,9.7z M10.5,11.4l0.6,1.8L9.6,12L10.5,11.4z"/>
	</g>
</g>
</svg>
