<?xml version="1.0" encoding="utf-8"?>
<!-- Generator: Adobe Illustrator 22.0.1, SVG Export Plug-In . SVG Version: 6.00 Build 0)  -->
<svg version="1.1" baseProfile="tiny" xmlns="http://www.w3.org/2000/svg" xmlns:xlink="http://www.w3.org/1999/xlink" x="0px"
	 y="0px" viewBox="0 0 16 16" xml:space="preserve">
<g id="Layer_2">
</g>
<g id="Layer_4">
	<path d="M14,10.4c0-2-0.9-3.3-2.5-5C11,6.4,10.4,7.2,9.6,7.8c0.4-1,0.6-2,0.5-3.2c0-0.2,0-0.4-0.1-0.6l0,0c0,0,0,0,0,0
		C9.9,2.4,9.1,1,8,0c0,0,0,0,0,0c0,0,0,0,0,0c0,0,0,0,0,0l0,0c0,0,0,0,0,0c0,0,0.1,1.7-2,3.9c-2.5,2.6-4,3.9-4,6.5c0,0,0,0,0,0.1h0
		c0,3,2.7,5.5,6,5.5c0,0,0,0,0,0l0,0c0,0,0,0,0,0l0,0c0,0,0,0,0,0C11.4,16,14,13.5,14,10.4L14,10.4C14,10.5,14,10.5,14,10.4z
		 M6.3,13.6C6.3,13.6,6.3,13.6,6.3,13.6c0-0.1,0-0.2,0-0.2c0.2,0.1,0.4,0.2,0.7,0.3c0.1,0.1,0.3,0.1,0.4,0.1c0,0,0.1,0,0.1,0
		c0.1,0,0.1,0,0.2,0c0.2,0,0.3-0.1,0.4-0.3c0.1-0.1,0.1-0.2,0.2-0.3c0.1-0.1,0.1-0.3,0.1-0.4c0-0.2,0-0.3-0.1-0.5c0,0-0.1-0.3,0-0.8
		l0.1,0.1c0.9,1,1.2,1.3,1.2,1.9C9.7,14.4,8.9,15,8,15l0,0c-0.1,0-0.2,0-0.3,0C6.9,14.8,6.4,14.3,6.3,13.6z M13,10.5
		c0,1.7-1,3.1-2.5,3.9c0.1-0.3,0.2-0.5,0.2-0.8h0c0,0,0,0,0,0c0-1.2-0.7-1.7-1.8-2.9C8.2,9.9,8.1,9.4,8,9.1
		c-0.1,0.5-0.3,1.1-0.5,1.8c-0.4,1.3,0,2,0,2c0,0,0,0,0,0l0,0c0,0,0,0,0,0c0,0,0,0,0,0c0,0,0,0,0,0c-0.5-0.2-1-0.5-1.4-1
		c-0.4,0.5-0.7,1-0.7,1.7c0,0,0,0,0,0h0c0,0.3,0.1,0.6,0.2,0.8C4,13.6,3,12.2,3,10.6c0,0,0-0.1,0-0.1c0,0,0-0.1,0-0.1
		c0-1.9,1-3,3.1-5.1l0.6-0.6c0.9-0.9,1.4-1.7,1.7-2.5C8.8,2.8,9,3.4,9.1,4.1c0,0,0,0,0,0.1c0,0.2,0,0.3,0.1,0.5
		c0.1,0.9-0.1,1.9-0.5,2.7C8.5,7.8,8.7,8.3,9,8.6c0.2,0.1,0.4,0.2,0.6,0.2c0.2,0,0.4-0.1,0.6-0.2c0.5-0.4,1-0.9,1.4-1.4
		C12.6,8.2,13,9.1,13,10.5C13,10.5,13,10.5,13,10.5z"/>
</g>
</svg>
