<?xml version="1.0" encoding="utf-8"?>
<!-- Generator: Adobe Illustrator 22.0.1, SVG Export Plug-In . SVG Version: 6.00 Build 0)  -->
<svg version="1.1" baseProfile="tiny" id="Layer_3" xmlns="http://www.w3.org/2000/svg" xmlns:xlink="http://www.w3.org/1999/xlink"
	 x="0px" y="0px" viewBox="0 0 16 16" xml:space="preserve">
<path fill="#010101" d="M10,2H6C3.2,2,1,4.2,1,7s2.2,5,5,5h2v3l5-4c1.2-0.9,2-2.4,2-4C15,4.2,12.8,2,10,2z M12.4,10.2L9,12.9V11H6
	c-2.2,0-4-1.8-4-4c0-2.2,1.8-4,4-4h4c2.2,0,4,1.8,4,4C14,8.3,13.4,9.4,12.4,10.2z"/>
</svg>
