<?xml version="1.0" encoding="utf-8"?>
<!-- Generator: Adobe Illustrator 23.0.2, SVG Export Plug-In . SVG Version: 6.00 Build 0)  -->
<svg version="1.1" baseProfile="tiny" id="Layer_4" xmlns="http://www.w3.org/2000/svg" xmlns:xlink="http://www.w3.org/1999/xlink"
	 x="0px" y="0px" viewBox="0 0 16 16" xml:space="preserve">
<path d="M15.9,7.6L8.4,0.1C8.2,0,7.8,0,7.6,0.1L0.1,7.6C0,7.8,0,8.2,0.1,8.4c0.2,0.2,0.5,0.2,0.7,0L2,7.2V13v1c0,1.1,0.9,2,2,2h1h2
	h2h2h1c1.1,0,2-0.9,2-2v-1V7.2l1.1,1.1c0.2,0.2,0.5,0.2,0.7,0C16,8.2,16,7.8,15.9,7.6z M10,14c0,0.5-0.5,1-1,1H7c-0.5,0-1-0.5-1-1
	v-4c0-0.5,0.5-1,1-1h2c0.5,0,1,0.5,1,1V14z M13,14c0,0.6-0.4,1-1,1h-1.3c0.2-0.3,0.3-0.6,0.3-1v-4c0-1.1-0.9-2-2-2H7
	c-1.1,0-2,0.9-2,2v4c0,0.4,0.1,0.7,0.3,1H4c-0.6,0-1-0.4-1-1V6.2l5-5l5,5V14z"/>
</svg>
