<?xml version="1.0" encoding="utf-8"?>
<!-- Generator: Adobe Illustrator 22.0.1, SVG Export Plug-In . SVG Version: 6.00 Build 0)  -->
<svg version="1.1" baseProfile="tiny" id="Layer_3" xmlns="http://www.w3.org/2000/svg" xmlns:xlink="http://www.w3.org/1999/xlink"
	 x="0px" y="0px" viewBox="0 0 16 16" xml:space="preserve">
<g>
	<path d="M5,3c0-1.1-0.9-2-2-2S1,1.9,1,3s0.9,2,2,2S5,4.1,5,3z M3,4C2.4,4,2,3.6,2,3s0.4-1,1-1s1,0.4,1,1S3.6,4,3,4z"/>
	<path d="M0,7.7V9c0.3,0.4,0.6,0.7,1,0.9v3.6C1,14.3,1.7,15,2.5,15H3v-1H2.5C2.2,14,2,13.8,2,13.5V9.3L1.6,9C1.3,8.9,1.2,8.7,1,8.6
		V7.7C1,7.3,1.3,7,1.5,7H3V6H1.5C0.7,6,0,6.8,0,7.7z"/>
	<path d="M10,6H6C4.9,6,4,7,4,8.2V10c0.3,0.4,0.6,0.7,1,1V14c0,1.1,0.9,2,2,2h2c1.1,0,2-0.9,2-2v-3.1c0.4-0.3,0.7-0.6,1-1V8.2
		C12,7,11.1,6,10,6z M11,9.6c-0.2,0.2-0.4,0.4-0.6,0.6L10,10.5V14c0,0.6-0.4,1-1,1H7c-0.6,0-1-0.4-1-1v-3.5l-0.4-0.3
		C5.4,10,5.2,9.8,5,9.6V8.2C5,7.6,5.5,7,6,7h4c0.5,0,1,0.6,1,1.2V9.6z"/>
	<path d="M8,5c1.4,0,2.5-1.1,2.5-2.5C10.5,1.1,9.4,0,8,0S5.5,1.1,5.5,2.5C5.5,3.9,6.6,5,8,5z M8,1c0.8,0,1.5,0.7,1.5,1.5S8.8,4,8,4
		S6.5,3.3,6.5,2.5S7.2,1,8,1z"/>
	<path d="M13,5c1.1,0,2-0.9,2-2s-0.9-2-2-2s-2,0.9-2,2S11.9,5,13,5z M13,2c0.6,0,1,0.4,1,1s-0.4,1-1,1s-1-0.4-1-1S12.4,2,13,2z"/>
	<path d="M14.5,6H13v1h1.5C14.7,7,15,7.3,15,7.7v0.9c-0.2,0.2-0.3,0.3-0.6,0.4L14,9.3v4.2c0,0.3-0.2,0.5-0.5,0.5H13v1h0.5
		c0.8,0,1.5-0.7,1.5-1.5V9.9c0.4-0.2,0.7-0.5,1-0.9V7.7C16,6.8,15.3,6,14.5,6z"/>
</g>
</svg>
