<?xml version="1.0" encoding="utf-8"?>
<!-- Generator: Adobe Illustrator 22.1.0, SVG Export Plug-In . SVG Version: 6.00 Build 0)  -->
<svg version="1.1" baseProfile="tiny" xmlns="http://www.w3.org/2000/svg" xmlns:xlink="http://www.w3.org/1999/xlink" x="0px"
	 y="0px" viewBox="0 0 16 16" xml:space="preserve">
<g id="Layer_3">
	<path fill="#070606" d="M6.5,12C5.7,12,5,12.7,5,13.5S5.7,15,6.5,15S8,14.3,8,13.5S7.3,12,6.5,12z M6.5,14C6.2,14,6,13.8,6,13.5
		S6.2,13,6.5,13S7,13.2,7,13.5S6.8,14,6.5,14z"/>
	<path fill="#070606" d="M11.5,12c-0.8,0-1.5,0.7-1.5,1.5s0.7,1.5,1.5,1.5s1.5-0.7,1.5-1.5S12.3,12,11.5,12z M11.5,14
		c-0.3,0-0.5-0.2-0.5-0.5s0.2-0.5,0.5-0.5s0.5,0.2,0.5,0.5S11.8,14,11.5,14z"/>
</g>
<g id="Layer_2">
	<path fill="#070606" d="M4.3,3L4,1.8C3.9,1.3,3.5,1,3,1H1v1h2l1.8,7.2c0.1,0.5,0.5,0.8,1,0.8h6.4c0.5,0,0.9-0.3,1-0.8L14.6,3H4.3z
		 M12.2,9H5.8L4.5,4h8.8L12.2,9z"/>
</g>
<g id="Layer_4">
</g>
</svg>
