<?xml version="1.0" encoding="utf-8"?>
<!-- Generator: Adobe Illustrator 22.0.1, SVG Export Plug-In . SVG Version: 6.00 Build 0)  -->
<svg version="1.1" baseProfile="tiny" id="Layer_3" xmlns="http://www.w3.org/2000/svg" xmlns:xlink="http://www.w3.org/1999/xlink"
	 x="0px" y="0px" viewBox="0 0 16 16" xml:space="preserve">
<g>
	<path d="M6,6H2C0.9,6,0,7,0,8.2V10c0.3,0.4,0.6,0.7,1,1V14c0,1.1,0.9,2,2,2h2c1.1,0,2-0.9,2-2v-3.1c0.4-0.3,0.7-0.6,1-1V8.2
		C8,7,7.1,6,6,6z M7,9.6C6.8,9.8,6.6,10,6.4,10.2L6,10.5V14c0,0.6-0.4,1-1,1H3c-0.6,0-1-0.4-1-1v-3.5l-0.4-0.3C1.4,10,1.2,9.8,1,9.6
		V8.2C1,7.6,1.5,7,2,7h4c0.5,0,1,0.6,1,1.2V9.6z"/>
	<path d="M4,5c1.4,0,2.5-1.1,2.5-2.5C6.5,1.1,5.4,0,4,0S1.5,1.1,1.5,2.5C1.5,3.9,2.6,5,4,5z M4,1c0.8,0,1.5,0.7,1.5,1.5S4.8,4,4,4
		S2.5,3.3,2.5,2.5S3.2,1,4,1z"/>
	<g>
		<path d="M12,5c1.1,0,2-0.9,2-2s-0.9-2-2-2s-2,0.9-2,2S10.9,5,12,5z M12,2c0.6,0,1,0.4,1,1s-0.4,1-1,1s-1-0.4-1-1S11.4,2,12,2z"/>
		<path d="M13.5,6H12h-1.5C9.7,6,9,6.8,9,7.7V9c0.3,0.4,0.6,0.7,1,0.9v3.6c0,0.8,0.7,1.5,1.5,1.5H12h0.5c0.8,0,1.5-0.7,1.5-1.5V9.9
			c0.4-0.2,0.7-0.5,1-0.9V7.7C15,6.8,14.3,6,13.5,6z M14,8.6c-0.2,0.2-0.3,0.3-0.6,0.4L13,9.3v4.2c0,0.3-0.2,0.5-0.5,0.5H12h-0.5
			c-0.3,0-0.5-0.2-0.5-0.5V9.3L10.6,9c-0.2-0.1-0.4-0.3-0.6-0.4V7.7C10,7.3,10.3,7,10.5,7H12h1.5C13.7,7,14,7.3,14,7.7V8.6z"/>
	</g>
</g>
</svg>
