<?xml version="1.0" encoding="utf-8"?>
<!-- Generator: Adobe Illustrator 22.0.1, SVG Export Plug-In . SVG Version: 6.00 Build 0)  -->
<svg version="1.1" baseProfile="tiny" id="Layer_3" xmlns="http://www.w3.org/2000/svg" xmlns:xlink="http://www.w3.org/1999/xlink"
	 x="0px" y="0px" viewBox="0 0 16 16" xml:space="preserve">
<g>
	<path fill="#010101" d="M15.3,9.7C15.3,9.7,14,9,14,8c0-1,1.3-1.7,1.3-1.7c0.2-0.1,0.4-0.5,0.3-0.7l-0.5-1.2
		C15,4.1,14.7,4,14.4,4.1c0,0-1.4,0.4-2.1-0.3c-0.7-0.7-0.3-2.1-0.3-2.1C12,1.3,11.9,1,11.6,0.9l-1.2-0.5c-0.3-0.1-0.6,0-0.7,0.3
		C9.7,0.7,9,2,8,2S6.3,0.7,6.3,0.7C6.1,0.5,5.8,0.3,5.6,0.4L4.4,0.9C4.1,1,4,1.3,4.1,1.6c0,0,0.4,1.4-0.3,2.1C3,4.5,1.6,4.1,1.6,4.1
		C1.3,4,1,4.1,0.9,4.4L0.4,5.6c-0.1,0.3,0,0.6,0.3,0.7C0.7,6.3,2,7,2,8c0,1-1.3,1.7-1.3,1.7c-0.2,0.1-0.4,0.5-0.3,0.7l0.5,1.2
		C1,11.9,1.3,12,1.6,11.9c0,0,1.4-0.4,2.1,0.3c0.7,0.7,0.3,2.1,0.3,2.1C4,14.7,4.1,15,4.4,15.1l1.2,0.5c0.3,0.1,0.6,0,0.7-0.3
		C6.3,15.3,7,14,8,14s1.7,1.3,1.7,1.3c0.1,0.2,0.5,0.4,0.7,0.3l1.2-0.5c0.2-0.1,0.4-0.4,0.3-0.7c0,0-0.4-1.4,0.3-2.1
		c0.7-0.7,2.1-0.3,2.1-0.3c0.3,0.1,0.6-0.1,0.7-0.3l0.5-1.2C15.7,10.2,15.5,9.9,15.3,9.7z M14.3,10.9c-0.2,0-0.5-0.1-0.8-0.1
		c-0.8,0-1.5,0.2-2,0.7c-0.9,0.9-0.8,2.2-0.6,2.8l-0.5,0.2C10.1,14,9.2,13,8,13c-1.2,0-2.1,1-2.4,1.5l-0.5-0.2
		c0.1-0.6,0.2-1.9-0.6-2.8c-0.5-0.5-1.1-0.7-2-0.7c-0.3,0-0.6,0-0.8,0.1l-0.2-0.5C2,10.1,3,9.2,3,8c0-1.2-1-2.1-1.5-2.4l0.2-0.5
		c0.2,0,0.5,0.1,0.8,0.1c0.8,0,1.5-0.2,2-0.7c0.9-0.9,0.8-2.2,0.6-2.8l0.5-0.2C5.9,2,6.8,3,8,3c1.2,0,2.1-1,2.4-1.5l0.5,0.2
		c-0.1,0.6-0.2,1.9,0.6,2.8c0.5,0.5,1.1,0.7,2,0.7c0.3,0,0.6,0,0.8-0.1l0.2,0.5C14,5.9,13,6.8,13,8c0,1.2,1,2.1,1.5,2.4L14.3,10.9z"
		/>
</g>
<path fill="#010101" d="M8,5C6.3,5,5,6.3,5,8s1.3,3,3,3s3-1.3,3-3S9.7,5,8,5z M8,10c-1.1,0-2-0.9-2-2c0-1.1,0.9-2,2-2
	c1.1,0,2,0.9,2,2C10,9.1,9.1,10,8,10z"/>
</svg>
