<?xml version="1.0" encoding="utf-8"?>
<!-- Generator: Adobe Illustrator 23.0.2, SVG Export Plug-In . SVG Version: 6.00 Build 0)  -->
<svg version="1.1" baseProfile="tiny" id="Layer_2" xmlns="http://www.w3.org/2000/svg" xmlns:xlink="http://www.w3.org/1999/xlink"
	 x="0px" y="0px" viewBox="0 0 16 16" xml:space="preserve">
<path d="M7.5,0c0,0-3.1,2-6.5,2v5.3c0,5.8,6.1,8.5,6.3,8.6L7.5,16l0,0l0,0l0.1-0.1c0.3-0.1,6.3-2.9,6.3-8.6V2C10.6,2,7.5,0,7.5,0z
	 M2,7.3V2.9c2.1-0.2,3.9-1,5-1.5v13.2C5.4,13.7,2,11.3,2,7.3z M13,7.3c0,4-3.5,6.5-5,7.3V1.4c1.1,0.6,2.9,1.3,5,1.5V7.3z"/>
</svg>
