<?xml version="1.0" encoding="utf-8"?>
<!-- Generator: Adobe Illustrator 23.0.2, SVG Export Plug-In . SVG Version: 6.00 Build 0)  -->
<svg version="1.1" baseProfile="tiny" id="Layer_2" xmlns="http://www.w3.org/2000/svg" xmlns:xlink="http://www.w3.org/1999/xlink"
	 x="0px" y="0px" viewBox="0 0 16 16" xml:space="preserve">
<path fill="#070606" d="M15.4,7.4c-0.8-0.5-1-1.5-0.5-2.2c0.5-0.8,0.1-1.4-0.8-1.4S12.5,3,12.5,2.1c0-0.9-0.6-1.3-1.4-0.8
	S9.4,1.4,9,0.6c-0.4-0.8-1.1-0.8-1.6,0c-0.5,0.8-1.5,1-2.2,0.5C4.4,0.6,3.8,1,3.7,1.9S3,3.5,2.1,3.5C1.2,3.4,0.8,4,1.2,4.8
	C1.7,5.6,1.4,6.6,0.6,7c-0.8,0.4-0.8,1.1,0,1.6c0.8,0.5,1,1.5,0.5,2.2c-0.5,0.8-0.1,1.4,0.8,1.4c0.9,0,1.6,0.8,1.6,1.7
	c0,0.9,0.6,1.3,1.4,0.8s1.8-0.1,2.2,0.6c0.4,0.8,1.1,0.8,1.6,0c0.5-0.8,1.5-1,2.2-0.5c0.8,0.5,1.4,0.1,1.4-0.8
	c0-0.9,0.8-1.6,1.7-1.6c0.9,0,1.3-0.6,0.8-1.4c-0.4-0.8-0.1-1.8,0.6-2.2C16.2,8.6,16.2,7.8,15.4,7.4z M13.7,9.7
	c-0.2,0.6-0.1,1.3,0.2,1.9c-1.3,0-2.5,1.1-2.6,2.4c-0.4-0.2-0.8-0.3-1.3-0.3c-0.9,0-1.7,0.4-2.2,1.2c-0.5-0.8-1.3-1.3-2.2-1.3
	c-0.4,0-0.8,0.1-1.2,0.3c0-0.7-0.3-1.3-0.7-1.8c-0.5-0.5-1.1-0.8-1.7-0.8c0.3-0.6,0.4-1.2,0.3-1.9S1.7,8.2,1.2,7.8
	c0.6-0.3,1-0.9,1.2-1.5C2.5,5.7,2.5,5,2.2,4.5c1.3,0,2.5-1.1,2.6-2.4C5.1,2.2,5.6,2.3,6,2.3c0.9,0,1.7-0.4,2.2-1.2
	C8.6,2,9.5,2.4,10.4,2.4c0.4,0,0.8-0.1,1.2-0.3c0,0.7,0.3,1.3,0.7,1.8c0.5,0.5,1.1,0.8,1.7,0.8c-0.3,0.6-0.4,1.2-0.3,1.9
	c0.2,0.6,0.5,1.2,1.1,1.6C14.2,8.5,13.8,9,13.7,9.7z"/>
<path fill="#070606" d="M5.5,4C4.7,4,4,4.7,4,5.5v1C4,7.3,4.7,8,5.5,8S7,7.3,7,6.5v-1C7,4.7,6.3,4,5.5,4z M6,6.5C6,6.8,5.8,7,5.5,7
	S5,6.8,5,6.5v-1C5,5.2,5.2,5,5.5,5S6,5.2,6,5.5V6.5z"/>
<path fill="#070606" d="M10.5,8C9.7,8,9,8.7,9,9.5v1c0,0.8,0.7,1.5,1.5,1.5s1.5-0.7,1.5-1.5v-1C12,8.7,11.3,8,10.5,8z M11,10.5
	c0,0.3-0.2,0.5-0.5,0.5S10,10.8,10,10.5v-1C10,9.2,10.2,9,10.5,9S11,9.2,11,9.5V10.5z"/>
<path fill="#070606" d="M5.5,12L5.5,12c-0.2-0.1-0.3-0.4-0.2-0.7l4.5-7.1C10,4,10.3,3.9,10.5,4v0c0.2,0.1,0.3,0.4,0.2,0.7l-4.5,7.1
	C6,12,5.7,12.1,5.5,12z"/>
</svg>
