<?xml version="1.0" encoding="utf-8"?>
<!-- Generator: Adobe Illustrator 22.0.1, SVG Export Plug-In . SVG Version: 6.00 Build 0)  -->
<svg version="1.1" baseProfile="tiny" id="Layer_2" xmlns="http://www.w3.org/2000/svg" xmlns:xlink="http://www.w3.org/1999/xlink"
	 x="0px" y="0px" viewBox="0 0 16 16" xml:space="preserve">
<path d="M10,1H9H5C3.9,1,3,1.9,3,3v10c0,1.1,0.9,2,2,2h7c1.1,0,2-0.9,2-2V6V5L10,1z M12.6,5H10V2.4L12.6,5z M13,13c0,0.6-0.4,1-1,1
	H5c-0.6,0-1-0.4-1-1V3c0-0.6,0.4-1,1-1h4v4h1h3V13z"/>
</svg>
