<?xml version="1.0" encoding="utf-8"?>
<!-- Generator: Adobe Illustrator 22.0.1, SVG Export Plug-In . SVG Version: 6.00 Build 0)  -->
<svg version="1.1" baseProfile="tiny" id="Layer_3" xmlns="http://www.w3.org/2000/svg" xmlns:xlink="http://www.w3.org/1999/xlink"
	 x="0px" y="0px" viewBox="0 0 16 16" xml:space="preserve">
<g>
	<path fill="#020202" d="M15,9l-3.4-1.3l-0.7,0.7l2.8,1L7.5,12L1.3,9.5l2.8-1L3.4,7.7L0,9l0,0v3l7.5,3l7.5-3L15,9L15,9z M14,11.4
		L7.5,14L1,11.4v-1L7.5,13l6.5-2.6V11.4z"/>
	<polygon fill="#020202" points="7.5,9 8.2,8.3 11,5.5 10.3,4.8 8,7.1 8,1 7,1 7,7.1 4.7,4.8 4,5.5 6.8,8.3 	"/>
</g>
</svg>
