<?xml version="1.0" encoding="utf-8"?>
<!-- Generator: Adobe Illustrator 22.0.1, SVG Export Plug-In . SVG Version: 6.00 Build 0)  -->
<svg version="1.1" baseProfile="tiny" id="Layer_2" xmlns="http://www.w3.org/2000/svg" xmlns:xlink="http://www.w3.org/1999/xlink"
	 x="0px" y="0px" viewBox="0 0 16 16" xml:space="preserve">
<path d="M8,0C3.6,0,0,3.6,0,8s3.6,8,8,8s8-3.6,8-8S12.4,0,8,0z M8,15c-3.9,0-7-3.1-7-7c0-3.9,3.1-7,7-7c3.9,0,7,3.1,7,7
	C15,11.9,11.9,15,8,15z"/>
<path d="M13.4,8.2c-0.9,0.2-3,0.7-5.4,0.7c-2.5,0-4.5-0.4-5.4-0.7C2.3,8.1,2,8.4,2,8.7C2.4,11.7,4.9,14,8,14c3.1,0,5.6-2.3,5.9-5.3
	C14,8.4,13.7,8.1,13.4,8.2z M8,13c-2.3,0-4.2-1.5-4.8-3.6C4.3,9.6,6,9.9,8,9.9c2,0,3.7-0.3,4.8-0.5C12.2,11.5,10.3,13,8,13z"/>
<path fill="#020202" d="M5,4C4.2,4,3.5,4.7,3.5,5.5S4.2,7,5,7s1.5-0.7,1.5-1.5S5.8,4,5,4z M5,6C4.7,6,4.5,5.8,4.5,5.5S4.7,5,5,5
	s0.5,0.2,0.5,0.5S5.3,6,5,6z"/>
<path fill="#020202" d="M11,4c-0.8,0-1.5,0.7-1.5,1.5S10.2,7,11,7s1.5-0.7,1.5-1.5S11.8,4,11,4z M11,6c-0.3,0-0.5-0.2-0.5-0.5
	S10.7,5,11,5s0.5,0.2,0.5,0.5S11.3,6,11,6z"/>
</svg>
