<?xml version="1.0" encoding="utf-8"?>
<!-- Generator: Adobe Illustrator 22.0.1, SVG Export Plug-In . SVG Version: 6.00 Build 0)  -->
<svg version="1.1" baseProfile="tiny" id="Layer_5" xmlns="http://www.w3.org/2000/svg" xmlns:xlink="http://www.w3.org/1999/xlink"
	 x="0px" y="0px" viewBox="0 0 16 16" xml:space="preserve">
<path fill-rule="evenodd" d="M8,3C6.3,3,5,4.3,5,6s1.3,3,3,3s3-1.3,3-3S9.7,3,8,3z M8,8C6.9,8,6,7.1,6,6s0.9-2,2-2c1.1,0,2,0.9,2,2
	S9.1,8,8,8z"/>
<path fill-rule="evenodd" fill="#010101" d="M13.7,5l-0.2-0.3c-0.3-0.5-0.7-1.3-0.8-1.9l-0.1-0.4c-0.1-0.6-0.7-1.1-1.2-1.2L11,1.2
	c-0.6-0.1-1.4-0.4-1.9-0.8L8.8,0.2C8.3-0.1,7.5-0.1,7,0.3L6.7,0.5C6.3,0.9,5.4,1.2,4.8,1.3L4.5,1.4C3.9,1.5,3.4,2.1,3.3,2.6L3.2,3
	C3.1,3.6,2.8,4.5,2.5,4.9L2.2,5.2C1.9,5.7,1.9,6.5,2.3,7l0.2,0.3c0.3,0.5,0.7,1.3,0.8,1.9l0.1,0.4c0.1,0.6,0.7,1.1,1.2,1.2L5,10.8
	V16l3-2l3,2v-5.3c0.1,0,0.1,0,0.2,0l0.4-0.1c0.6-0.1,1.1-0.7,1.2-1.2L12.8,9c0.1-0.6,0.4-1.4,0.8-1.9l0.2-0.3
	C14.1,6.3,14.1,5.5,13.7,5z M10,12v2.1l-2-1.3l-2,1.3V12v-0.9c0.4,0.1,0.7,0.3,0.9,0.5l0.3,0.2c0.5,0.3,1.3,0.3,1.7,0l0.3-0.2
	c0.2-0.1,0.5-0.3,0.7-0.4V12z M12.9,6.2l-0.2,0.3c-0.4,0.6-0.8,1.6-0.9,2.3l-0.1,0.4c0,0.2-0.2,0.4-0.4,0.4L11,9.7
	c-0.7,0.1-1.7,0.6-2.3,1l-0.3,0.2c0,0-0.2,0.1-0.3,0.1c-0.1,0-0.2,0-0.3-0.1l-0.3-0.2c-0.4-0.3-1-0.5-1.5-0.7v0h0
	C5.7,9.9,5.4,9.8,5.2,9.8L4.8,9.7c-0.2,0-0.4-0.2-0.4-0.4L4.3,9c-0.1-0.7-0.6-1.7-1-2.3L3.1,6.4C3,6.2,3,5.9,3.1,5.8l0.2-0.3
	c0.4-0.6,0.8-1.6,0.9-2.4l0.1-0.4c0-0.2,0.2-0.4,0.4-0.4L5,2.3c0.7-0.1,1.7-0.6,2.3-1l0.3-0.2C7.7,1,7.8,1,7.9,1C8,1,8.1,1,8.2,1.1
	l0.3,0.2c0.6,0.4,1.6,0.8,2.4,0.9l0.4,0.1c0.2,0,0.4,0.2,0.4,0.4L11.7,3c0.1,0.7,0.6,1.7,1,2.3l0.2,0.3C13,5.8,13,6.1,12.9,6.2z"/>
</svg>
