<?xml version="1.0" encoding="utf-8"?>
<!-- Generator: Adobe Illustrator 22.0.1, SVG Export Plug-In . SVG Version: 6.00 Build 0)  -->
<svg version="1.1" baseProfile="tiny" xmlns="http://www.w3.org/2000/svg" xmlns:xlink="http://www.w3.org/1999/xlink" x="0px"
	 y="0px" viewBox="0 0 16 16" xml:space="preserve">
<g id="Layer_2">
</g>
<g id="Layer_5">
	<path d="M8,3C6.3,3,5,4.3,5,6s1.3,3,3,3s3-1.3,3-3S9.7,3,8,3z M8,8C6.9,8,6,7.1,6,6s0.9-2,2-2c1.1,0,2,0.9,2,2S9.1,8,8,8z"/>
	<path d="M16,8c0-4.4-3.6-8-8-8S0,3.6,0,8c0,1.9,0.6,3.6,1.7,4.9c0.2,0.3,0.5,0.6,0.7,0.8c0,0,0,0,0,0c0.4,0.4,0.8,0.7,1.2,1
		c0,0,0.1,0,0.1,0c0.2,0.1,0.4,0.3,0.6,0.4c0.1,0,0.1,0.1,0.2,0.1c0.2,0.1,0.4,0.2,0.6,0.2c0.1,0,0.2,0.1,0.3,0.1
		c0.2,0.1,0.4,0.1,0.6,0.2c0.1,0,0.2,0.1,0.3,0.1c0.2,0,0.4,0.1,0.6,0.1c0.1,0,0.2,0,0.3,0C7.4,16,7.7,16,8,16s0.6,0,0.9-0.1
		c0.1,0,0.2,0,0.3,0c0.2,0,0.4-0.1,0.6-0.1c0.1,0,0.2,0,0.3-0.1c0.2,0,0.4-0.1,0.6-0.2c0,0,0.1,0,0.1-0.1c0.5,0.3,1.1,0.5,1.8,0.5
		c1.9,0,3.5-1.6,3.5-3.5c0-0.7-0.2-1.3-0.5-1.8C15.8,9.9,16,9,16,8z M2.3,12c-0.2-0.3-0.4-0.6-0.5-0.9c0,0,0,0,0,0
		c-0.3-0.6-0.5-1.2-0.6-1.9c0-0.1,0-0.1,0-0.2C1,8.7,1,8.3,1,8c0-3.9,3.1-7,7-7s7,3.1,7,7c0,0.3,0,0.7-0.1,1c0,0.1,0,0.1,0,0.2
		c0,0.2-0.1,0.4-0.2,0.6C14.1,9.3,13.4,9,12.5,9c-0.7,0-1.3,0.2-1.9,0.5C9.8,9.2,8.9,9,8,9C5.6,9,3.5,10.2,2.3,12z M8,15
		c-2,0-3.8-0.8-5.1-2.2C4,11.1,5.9,10,8,10c0.6,0,1.2,0.1,1.8,0.3C9.3,10.9,9,11.7,9,12.5c0,0.9,0.3,1.6,0.8,2.2
		C9.2,14.9,8.6,15,8,15z M14.5,13h-0.3H13v1.2v0.3c0,0.3-0.2,0.5-0.5,0.5c-0.1,0-0.3-0.1-0.4-0.2l0,0c0,0-0.1-0.1-0.1-0.2
		c0-0.1,0-0.1,0-0.2v-0.8V13h-1.5c-0.3,0-0.5-0.2-0.5-0.5c0-0.3,0.2-0.5,0.5-0.5H12v-0.4v-1.1c0-0.1,0-0.1,0-0.2
		c0.1-0.2,0.3-0.3,0.5-0.3c0.3,0,0.5,0.2,0.5,0.5v0.6V12h0.7h0h0.8c0.1,0,0.1,0,0.2,0c0.1,0,0.1,0.1,0.2,0.1
		c0.1,0.1,0.2,0.2,0.2,0.4C15,12.8,14.8,13,14.5,13z"/>
</g>
</svg>
