<?xml version="1.0" encoding="utf-8"?>
<!-- Generator: Adobe Illustrator 22.0.1, SVG Export Plug-In . SVG Version: 6.00 Build 0)  -->
<svg version="1.1" baseProfile="tiny" id="Layer_5" xmlns="http://www.w3.org/2000/svg" xmlns:xlink="http://www.w3.org/1999/xlink"
	 x="0px" y="0px" viewBox="0 0 16 16" xml:space="preserve">
<g>
	<polygon fill="#010101" points="7.5,16 8.5,16 8,8 	"/>
	<polygon fill="#010101" points="0,7.5 0,8.5 8,8 	"/>
	<polygon fill="#010101" points="16,8.5 16,7.5 8,8 	"/>
	<polygon fill="#010101" points="8.5,0 7.5,0 8,8 	"/>
	<polygon fill="#010101" points="0,15.1 0,16 0.9,16 8,8 	"/>
	<polygon fill="#010101" points="0.9,0 0,0 0,0.9 8,8 	"/>
	<polygon fill="#010101" points="15.1,16 16,16 16,15.1 8,8 	"/>
	<polygon fill="#010101" points="16,0.9 16,0 15.1,0 8,8 	"/>
	<polygon fill="#010101" points="12,16 13.3,16 8,8 	"/>
	<polygon fill="#010101" points="0,12 0,13.3 8,8 	"/>
	<polygon fill="#010101" points="16,4 16,2.7 8,8 	"/>
	<polygon fill="#010101" points="4,0 2.7,0 8,8 	"/>
	<polygon fill="#010101" points="5.3,16 6.4,16 8,8 	"/>
	<polygon fill="#010101" points="0,5.3 0,6.4 8,8 	"/>
	<polygon fill="#010101" points="16,10.7 16,9.6 8,8 	"/>
	<polygon fill="#010101" points="10.7,0 9.6,0 8,8 	"/>
	<polygon fill="#010101" points="2.7,16 4,16 8,8 	"/>
	<polygon fill="#010101" points="0,2.7 0,4 8,8 	"/>
	<polygon fill="#010101" points="16,13.3 16,12 8,8 	"/>
	<polygon fill="#010101" points="13.3,0 12,0 8,8 	"/>
	<polygon fill="#010101" points="0,9.6 0,10.7 8,8 	"/>
	<polygon fill="#010101" points="6.4,0 5.3,0 8,8 	"/>
	<polygon fill="#010101" points="9.6,16 10.7,16 8,8 	"/>
	<polygon fill="#010101" points="16,6.4 16,5.3 8,8 	"/>
</g>
</svg>
