<?xml version="1.0" encoding="utf-8"?>
<!-- Generator: Adobe Illustrator 23.0.2, SVG Export Plug-In . SVG Version: 6.00 Build 0)  -->
<svg version="1.1" baseProfile="tiny" id="Layer_3" xmlns="http://www.w3.org/2000/svg" xmlns:xlink="http://www.w3.org/1999/xlink"
	 x="0px" y="0px" viewBox="0 0 16 16" xml:space="preserve">
<path d="M8,0C3.6,0,0,3.6,0,8s3.6,8,8,8s8-3.6,8-8S12.4,0,8,0z M11,4.4v5.1c0,0.8-0.7,1.5-1.5,1.5S8,10.3,8,9.5S8.7,8,9.5,8
	C9.7,8,9.8,8,10,8.1V4.7L7,5.6v4.9C7,11.3,6.3,12,5.5,12S4,11.3,4,10.5S4.7,9,5.5,9C5.7,9,5.8,9,6,9.1V5.9v-1l1-0.3l3-0.9l1-0.3V4.4
	z"/>
<circle cx="5.5" cy="10.5" r="0.5"/>
<circle cx="9.5" cy="9.5" r="0.5"/>
</svg>
