<?xml version="1.0" encoding="utf-8"?>
<!-- Generator: Adobe Illustrator 22.0.1, SVG Export Plug-In . SVG Version: 6.00 Build 0)  -->
<svg version="1.1" baseProfile="tiny" id="Layer_3" xmlns="http://www.w3.org/2000/svg" xmlns:xlink="http://www.w3.org/1999/xlink"
	 x="0px" y="0px" viewBox="0 0 16 16" xml:space="preserve">
<path fill-rule="evenodd" d="M10.8,2.1l-3,3L10,7.2l5.1-5.1C13.9,0.9,12,0.9,10.8,2.1z M9.3,5l2.3-2.3c0.4-0.4,0.9-0.6,1.4-0.6
	c0.2,0,0.4,0,0.5,0.1L10,5.7L9.3,5z"/>
<path fill-rule="evenodd" d="M5.9,4.8c0-0.1,0-0.2,0.1-0.3C6,4.3,6,4.2,6,4c0-1.7-1.3-3-3-3S0,2.3,0,4s1.3,3,3,3c0.2,0,0.3,0,0.5,0
	c0.1,0,0.2,0,0.3-0.1l7.1,7.1c1.2,1.2,3.1,1.2,4.2,0L5.9,4.8z M3,6C1.9,6,1,5.1,1,4c0-1.1,0.9-2,2-2s2,0.9,2,2C5,5.1,4.1,6,3,6z
	 M11.5,13.2L4.7,6.4C5,6.2,5.2,6,5.4,5.7l8,8c-0.2,0-0.3,0.1-0.5,0.1C12.4,13.8,11.9,13.6,11.5,13.2z"/>
<path fill-rule="evenodd" d="M3,9c-1.7,0-3,1.3-3,3s1.3,3,3,3s3-1.3,3-3S4.7,9,3,9z M3,14c-1.1,0-2-0.9-2-2c0-1.1,0.9-2,2-2
	s2,0.9,2,2C5,13.1,4.1,14,3,14z"/>
<circle fill-rule="evenodd" cx="3" cy="4" r="1"/>
<circle fill-rule="evenodd" cx="3" cy="12" r="1"/>
</svg>
