<?xml version="1.0" encoding="utf-8"?>
<!-- Generator: Adobe Illustrator 23.0.2, SVG Export Plug-In . SVG Version: 6.00 Build 0)  -->
<svg version="1.1" baseProfile="tiny" id="Layer_3" xmlns="http://www.w3.org/2000/svg" xmlns:xlink="http://www.w3.org/1999/xlink"
	 x="0px" y="0px" viewBox="0 0 16 16" xml:space="preserve">
<path d="M15,1.8C14.9,0.8,14,0,13,0H3C2,0,1.1,0.8,1,1.8C1,1.9,1,1.9,1,2v1v7c0,1.1,0.9,2,2,2h1.1c0,0.1,0,0.2,0.1,0.4
	c0.7,2,3.3,3.5,3.4,3.5L8,16.1l0.5-0.3c0,0,2.7-1.5,3.4-3.5c0-0.1,0.1-0.2,0.1-0.3H13c1.1,0,2-0.9,2-2V3V2C15,1.9,15,1.9,15,1.8z
	 M10.9,12c-0.5,1.4-2.5,2.8-2.9,3c-0.4-0.2-2.4-1.5-2.9-3c-0.4-1.1,0.2-1.8,0.9-2c0.7-0.2,1.6,0.1,1.9,0.8c0.3-0.6,1.2-1,1.9-0.8
	C10.7,10.3,11.2,11,10.9,12z M14,10c0,0.6-0.4,1-1,1h-1c0-0.3-0.1-0.6-0.2-0.7c-0.3-0.6-0.8-1-1.5-1.2C10,9,9.7,9,9.5,9
	C8.9,9,8.4,9.1,8,9.4C7.6,9.1,7.1,9,6.5,9C6.3,9,6,9,5.8,9.1c-0.7,0.2-1.2,0.6-1.5,1.2C4.2,10.4,4.1,10.7,4,11H3c-0.6,0-1-0.4-1-1
	V3.6l5.7,3.3C7.8,7,7.9,7,8,7s0.2,0,0.3-0.1L14,3.6V10z M14,2.4L8,5.9L2,2.4V2c0-0.6,0.4-1,1-1h10c0.6,0,1,0.4,1,1V2.4z"/>
</svg>
