<?xml version="1.0" encoding="utf-8"?>
<!-- Generator: Adobe Illustrator 22.0.1, SVG Export Plug-In . SVG Version: 6.00 Build 0)  -->
<svg version="1.1" baseProfile="tiny" id="Layer_3" xmlns="http://www.w3.org/2000/svg" xmlns:xlink="http://www.w3.org/1999/xlink"
	 x="0px" y="0px" viewBox="0 0 16 16" xml:space="preserve">
<path fill-rule="evenodd" d="M2,0C0.9,0,0,0.9,0,2c0,1.1,0.9,2,2,2s2-0.9,2-2C4,0.9,3.1,0,2,0z M2,3C1.4,3,1,2.6,1,2
	c0-0.6,0.4-1,1-1s1,0.4,1,1C3,2.6,2.6,3,2,3z"/>
<path fill-rule="evenodd" d="M3,1.6c0,0.1,0,0.1,0,0.2C3,1.8,3,1.9,3,2c0,0.6-0.4,1-1,1C1.9,3,1.8,3,1.8,2.9C1.7,3,1.6,3,1.6,3l7,7
	c0.8,0.8,2,0.8,2.8,0L3,1.6z"/>
<path fill-rule="evenodd" d="M4,8.6c0-1.1-0.9-2-2-2s-2,0.9-2,2c0,1.1,0.9,2,2,2S4,9.7,4,8.6z M3,8.6c0,0.6-0.4,1-1,1s-1-0.4-1-1
	c0-0.6,0.4-1,1-1S3,8.1,3,8.6z"/>
<g>
	<path fill-rule="evenodd" d="M7.4,4.6l4-4c-0.8-0.8-2-0.8-2.8,0L6,3.2L7.4,4.6z"/>
</g>
<g>
	<rect x="3" y="15" fill-rule="evenodd" width="1" height="1"/>
	<rect x="7" y="15" fill-rule="evenodd" width="1" height="1"/>
	<rect x="5" y="15" fill-rule="evenodd" width="1" height="1"/>
	<rect x="11" y="5" fill-rule="evenodd" width="1" height="1"/>
	<rect x="13" y="5" fill-rule="evenodd" width="1" height="1"/>
	<rect x="9" y="15" fill-rule="evenodd" width="1" height="1"/>
	<rect x="9" y="5" fill-rule="evenodd" width="1" height="1"/>
	<rect x="3" y="13" fill-rule="evenodd" width="1" height="1"/>
	<rect x="15" y="13" fill-rule="evenodd" width="1" height="1"/>
	<rect x="11" y="15" fill-rule="evenodd" width="1" height="1"/>
	<rect x="15" y="9" fill-rule="evenodd" width="1" height="1"/>
	<rect x="15" y="5" fill-rule="evenodd" width="1" height="1"/>
	<rect x="15" y="7" fill-rule="evenodd" width="1" height="1"/>
	<rect x="13" y="15" fill-rule="evenodd" width="1" height="1"/>
	<rect x="15" y="11" fill-rule="evenodd" width="1" height="1"/>
	<rect x="15" y="15" fill-rule="evenodd" width="1" height="1"/>
</g>
</svg>
