<?xml version="1.0" encoding="utf-8"?>
<!-- Generator: Adobe Illustrator 22.0.1, SVG Export Plug-In . SVG Version: 6.00 Build 0)  -->
<svg version="1.1" baseProfile="tiny" id="Layer_3" xmlns="http://www.w3.org/2000/svg" xmlns:xlink="http://www.w3.org/1999/xlink"
	 x="0px" y="0px" viewBox="0 0 16 16" xml:space="preserve">
<path d="M7.5,11.8V13h1v-1.2C8.8,11.7,9,11.4,9,11c0-0.6-0.4-1-1-1s-1,0.4-1,1C7,11.4,7.2,11.7,7.5,11.8z"/>
<path d="M12,7V4c0-2.2-1.8-4-4-4S4,1.8,4,4v3H2v3v1v3c0,1.1,0.9,2,2,2h8c1.1,0,2-0.9,2-2v-3v-1V7H12z M5,4c0-1.7,1.3-3,3-3
	s3,1.3,3,3v3H5V4z M13,10v1v2v1c0,0.6-0.4,1-1,1H4c-0.6,0-1-0.4-1-1v-1v-2v-1V8h10V10z"/>
</svg>
