<?xml version="1.0" encoding="utf-8"?>
<!-- Generator: Adobe Illustrator 22.1.0, SVG Export Plug-In . SVG Version: 6.00 Build 0)  -->
<svg version="1.1" baseProfile="tiny" id="Layer_4" xmlns="http://www.w3.org/2000/svg" xmlns:xlink="http://www.w3.org/1999/xlink"
	 x="0px" y="0px" viewBox="0 0 16 16" xml:space="preserve">
<path d="M8,2L8,2C7.7,2,7.5,1.8,7.5,1.5v-1C7.5,0.2,7.7,0,8,0l0,0c0.3,0,0.5,0.2,0.5,0.5v1C8.5,1.8,8.3,2,8,2z"/>
<path d="M8,4C5.8,4,4,5.8,4,8c0,2.2,1.8,4,4,4s4-1.8,4-4C12,5.8,10.2,4,8,4z M8,11c-1.7,0-3-1.3-3-3s1.3-3,3-3s3,1.3,3,3
	S9.7,11,8,11z"/>
<path d="M8,16L8,16c-0.3,0-0.5-0.2-0.5-0.5v-1C7.5,14.2,7.7,14,8,14h0c0.3,0,0.5,0.2,0.5,0.5v1C8.5,15.8,8.3,16,8,16z"/>
<path d="M14,8L14,8c0-0.3,0.2-0.5,0.5-0.5h1C15.8,7.5,16,7.7,16,8v0c0,0.3-0.2,0.5-0.5,0.5h-1C14.2,8.5,14,8.3,14,8z"/>
<path d="M0,8L0,8c0-0.3,0.2-0.5,0.5-0.5h1C1.8,7.5,2,7.7,2,8v0c0,0.3-0.2,0.5-0.5,0.5h-1C0.2,8.5,0,8.3,0,8z"/>
<path d="M12.2,3.8L12.2,3.8c-0.2-0.2-0.2-0.5,0-0.7l0.7-0.7c0.2-0.2,0.5-0.2,0.7,0l0,0c0.2,0.2,0.2,0.5,0,0.7l-0.7,0.7
	C12.8,4,12.4,4,12.2,3.8z"/>
<path d="M2.3,13.7L2.3,13.7c-0.2-0.2-0.2-0.5,0-0.7l0.7-0.7c0.2-0.2,0.5-0.2,0.7,0h0c0.2,0.2,0.2,0.5,0,0.7l-0.7,0.7
	C2.9,13.9,2.5,13.9,2.3,13.7z"/>
<path d="M12.2,12.2L12.2,12.2c0.2-0.2,0.5-0.2,0.7,0l0.7,0.7c0.2,0.2,0.2,0.5,0,0.7l0,0c-0.2,0.2-0.5,0.2-0.7,0l-0.7-0.7
	C12,12.8,12,12.4,12.2,12.2z"/>
<path d="M2.3,2.3L2.3,2.3c0.2-0.2,0.5-0.2,0.7,0l0.7,0.7C4,3.2,4,3.6,3.8,3.8l0,0C3.6,4,3.2,4,3.1,3.8L2.3,3.1
	C2.1,2.9,2.1,2.5,2.3,2.3z"/>
</svg>
