<?xml version="1.0" encoding="utf-8"?>
<!-- Generator: Adobe Illustrator 22.1.0, SVG Export Plug-In . SVG Version: 6.00 Build 0)  -->
<svg version="1.1" baseProfile="tiny" xmlns="http://www.w3.org/2000/svg" xmlns:xlink="http://www.w3.org/1999/xlink" x="0px"
	 y="0px" viewBox="0 0 16 16" xml:space="preserve">
<g id="Layer_4">
	<g>
		<path fill="#070606" d="M11,6c0,0.8-0.4,1.5-0.8,1.5c-0.5,0-0.8-0.8-0.8-1.6s0.4-1.5,0.8-1.5C10.6,4.5,11,5.2,11,6z"/>
		<path fill="#070606" d="M12.5,9.1c0,0.8-0.3,1.5-0.7,1.5c-0.4,0-0.8-0.7-0.8-1.5s0.3-1.5,0.8-1.5C12.1,7.6,12.5,8.3,12.5,9.1z"/>
	</g>
</g>
<g id="Layer_5">
	<path d="M14,1.6L8.5,0.1C7.9,0,7.1,0,6.5,0.1L1,1.6C0.4,1.8,0,2.3,0,2.9v9.2c0,0.6,0.4,1.1,1,1.3l5.6,1.5c0.5,0.1,1.4,0.1,1.9,0
		l5.6-1.5c0.5-0.1,1-0.7,1-1.3V2.9C15,2.3,14.6,1.8,14,1.6z M2.3,11.8c-0.4,0-0.7-0.7-0.7-1.5S2,9,2.3,9C2.7,9,3,9.6,3,10.5
		C3,11.3,2.7,11.9,2.3,11.8z M3.8,9C3.4,9,3,8.3,3,7.5C3,6.7,3.4,6,3.8,6c0.4,0,0.8,0.6,0.8,1.5S4.2,9,3.8,9z M5.3,6
		C4.9,6,4.5,5.3,4.5,4.5s0.4-1.6,0.8-1.6c0.5-0.1,0.8,0.6,0.8,1.5C6.1,5.2,5.8,5.9,5.3,6z M14,12.1c0,0.1-0.1,0.3-0.2,0.3l-5.6,1.5
		c-0.1,0-0.1,0-0.2,0V1c0.1,0,0.1,0,0.2,0l5.6,1.5c0.1,0,0.2,0.2,0.2,0.3V12.1z"/>
</g>
<g id="Layer_3" display="none">
	<g display="inline">
		<polygon fill="#FA072F" points="14,13.1 8,14 8,1 14,2 		"/>
		<path fill="#FFFFFF" d="M10.5,4.5c0,0.8-0.4,1.5-0.8,1.5c-0.5,0-0.8-0.8-0.8-1.6s0.4-1.5,0.8-1.5C10.1,2.9,10.5,3.6,10.5,4.5z"/>
		<path fill="#FFFFFF" d="M13.3,10.4c0,0.8-0.3,1.4-0.7,1.5c-0.4,0-0.7-0.6-0.7-1.4S12.3,9,12.7,9C13,9,13.3,9.6,13.3,10.4z"/>
		<path fill="#FFFFFF" d="M12,7.5C12,8.3,11.6,9,11.2,9c-0.4,0-0.8-0.7-0.8-1.5S10.8,6,11.2,6C11.6,6,12,6.7,12,7.5z"/>
	</g>
</g>
</svg>
