<?xml version="1.0" encoding="utf-8"?>
<!-- Generator: Adobe Illustrator 23.0.2, SVG Export Plug-In . SVG Version: 6.00 Build 0)  -->
<svg version="1.1" baseProfile="tiny" id="Layer_2" xmlns="http://www.w3.org/2000/svg" xmlns:xlink="http://www.w3.org/1999/xlink"
	 x="0px" y="0px" viewBox="0 0 16 16" xml:space="preserve">
<path d="M7.5,0C3.4,0,0,3.4,0,7.5S3.4,15,7.5,15S15,11.6,15,7.5S11.6,0,7.5,0z M1,8h2c0,1.1,0.2,2.1,0.5,3H2C1.5,10.1,1.1,9.1,1,8z
	 M8,3V1.1C8.7,1.3,9.4,2,10,3H8z M10.4,4c0.3,0.9,0.5,1.9,0.6,3H8V4H10.4z M7,1.1V3H5C5.6,2,6.3,1.3,7,1.1z M7,4v3H4
	c0-1.1,0.2-2.1,0.6-3H7z M3,7H1c0.1-1.1,0.4-2.1,1-3h1.5C3.2,4.9,3.1,5.9,3,7z M4,8h3v3H4.6C4.3,10.1,4.1,9.1,4,8z M7,12v1.9
	C6.3,13.7,5.6,13,5,12H7z M8,13.9V12h2C9.4,13,8.7,13.7,8,13.9z M8,11V8h3c0,1.1-0.2,2.1-0.6,3H8z M12,8h2c-0.1,1.1-0.4,2.1-1,3
	h-1.5C11.8,10.1,11.9,9.1,12,8z M12,7c0-1.1-0.2-2.1-0.5-3H13c0.6,0.9,0.9,1.9,1,3H12z M12.2,3h-1.1c-0.2-0.5-0.5-1-0.8-1.4
	C11,2,11.6,2.4,12.2,3z M4.7,1.6C4.4,2,4.1,2.5,3.9,3H2.8C3.4,2.4,4,2,4.7,1.6z M2.8,12h1.1c0.2,0.5,0.5,1,0.8,1.4
	C4,13,3.4,12.6,2.8,12z M10.3,13.4c0.3-0.4,0.6-0.8,0.8-1.4h1.1C11.6,12.6,11,13,10.3,13.4z"/>
</svg>
