<?xml version="1.0" encoding="utf-8"?>
<!-- Generator: Adobe Illustrator 22.1.0, SVG Export Plug-In . SVG Version: 6.00 Build 0)  -->
<svg version="1.1" baseProfile="tiny" id="Layer_2" xmlns="http://www.w3.org/2000/svg" xmlns:xlink="http://www.w3.org/1999/xlink"
	 x="0px" y="0px" viewBox="0 0 16 16" xml:space="preserve">
<path d="M6,0C4.5,0,3.2,0.4,2,1.1C4.4,2.5,6,5,6,8s-1.6,5.5-4,6.9C3.2,15.6,4.5,16,6,16c4.4,0,8-3.6,8-8S10.4,0,6,0z M6,15
	c-0.7,0-1.4-0.1-2-0.3C5.9,13,7,10.6,7,8S5.9,3,4,1.3C4.6,1.1,5.3,1,6,1c3.9,0,7,3.1,7,7C13,11.9,9.9,15,6,15z"/>
</svg>
