<?xml version="1.0" encoding="utf-8"?>
<!-- Generator: Adobe Illustrator 23.0.2, SVG Export Plug-In . SVG Version: 6.00 Build 0)  -->
<svg version="1.1" baseProfile="tiny" id="Layer_4" xmlns="http://www.w3.org/2000/svg" xmlns:xlink="http://www.w3.org/1999/xlink"
	 x="0px" y="0px" viewBox="0 0 16 16" xml:space="preserve">
<path d="M7.5,3C5,3,3,5,3,7.5c0,1.7,1.6,3.2,1.6,3.2c0.4,0.4,0.8,1.1,0.9,1.7L5.8,14c0.1,0.5,0.6,1,1.2,1h1c0.5,0,1.1-0.4,1.2-1
	l0.3-1.6c0.1-0.5,0.5-1.3,0.9-1.7c0,0,1.6-1.5,1.6-3.2C12,5,10,3,7.5,3z M9.7,10c-0.5,0.5-1.1,1.5-1.2,2.2l-0.3,1.6
	C8.2,13.9,8.1,14,8,14H7c-0.1,0-0.2-0.1-0.2-0.2l-0.3-1.6c-0.1-0.7-0.7-1.7-1.2-2.2C5,9.7,4,8.5,4,7.5C4,5.6,5.6,4,7.5,4
	S11,5.6,11,7.5C11,8.5,10,9.7,9.7,10z"/>
<path d="M7.5,2L7.5,2C7.2,2,7,1.8,7,1.5v-1C7,0.2,7.2,0,7.5,0h0C7.8,0,8,0.2,8,0.5v1C8,1.8,7.8,2,7.5,2z"/>
<path d="M1.5,8h-1C0.2,8,0,7.8,0,7.5v0C0,7.2,0.2,7,0.5,7h1C1.8,7,2,7.2,2,7.5v0C2,7.8,1.8,8,1.5,8z"/>
<path d="M14.5,8h-1C13.2,8,13,7.8,13,7.5v0C13,7.2,13.2,7,13.5,7h1C14.8,7,15,7.2,15,7.5v0C15,7.8,14.8,8,14.5,8z"/>
<path d="M4.5,2.8L4.5,2.8C4.3,2.9,4,2.9,3.8,2.6L3.3,1.8C3.2,1.5,3.3,1.2,3.5,1.1l0,0C3.7,0.9,4,1,4.2,1.3l0.5,0.9
	C4.8,2.4,4.7,2.7,4.5,2.8z"/>
<path d="M13.6,4.5L12.7,5c-0.2,0.1-0.5,0.1-0.7-0.2v0c-0.1-0.2-0.1-0.5,0.2-0.7l0.9-0.5c0.2-0.1,0.5-0.1,0.7,0.2v0
	C13.9,4.1,13.8,4.4,13.6,4.5z"/>
<path d="M2.3,5L2.3,5C2.2,5.2,1.9,5.3,1.6,5.2L0.8,4.7C0.5,4.5,0.4,4.2,0.6,4l0,0C0.7,3.8,1,3.7,1.3,3.8l0.9,0.5
	C2.4,4.5,2.4,4.8,2.3,5z"/>
<path d="M11,1.9l-0.5,0.9C10.4,3,10.1,3.1,9.8,3l0,0C9.6,2.8,9.5,2.5,9.6,2.3l0.5-0.9c0.1-0.2,0.4-0.3,0.7-0.2l0,0
	C11.1,1.4,11.1,1.7,11,1.9z"/>
</svg>
