<?xml version="1.0" encoding="utf-8"?>
<!-- Generator: Adobe Illustrator 23.0.2, SVG Export Plug-In . SVG Version: 6.00 Build 0)  -->
<svg version="1.1" baseProfile="tiny" id="Layer_2" xmlns="http://www.w3.org/2000/svg" xmlns:xlink="http://www.w3.org/1999/xlink"
	 x="0px" y="0px" viewBox="0 0 16 16" xml:space="preserve">
<g>
	<path d="M3,4v10c0,1.1,0.9,2,2,2H4.3c0.1,0,0.1,0,0.2,0h7c0.1,0,0.1,0,0.2,0H11c1.1,0,2-0.9,2-2V4H3z M12,14c0,0.6-0.4,1-1,1v0H5v0
		c-0.6,0-1-0.4-1-1V5h8V14z"/>
	<path d="M13.5,2H10c0-1.1-0.9-2-2-2S6,0.9,6,2H2.5C2.2,2,2,2.2,2,2.5C2,2.8,2.2,3,2.5,3h11C13.8,3,14,2.8,14,2.5
		C14,2.2,13.8,2,13.5,2z M8.9,2H7.2H7c0-0.6,0.4-1,1-1s1,0.4,1,1H8.9z"/>
</g>
<path d="M6.5,13L6.5,13C6.2,13,6,12.8,6,12.5v-5C6,7.2,6.2,7,6.5,7h0C6.8,7,7,7.2,7,7.5v5C7,12.8,6.8,13,6.5,13z"/>
<path d="M9.5,13L9.5,13C9.2,13,9,12.8,9,12.5v-5C9,7.2,9.2,7,9.5,7h0C9.8,7,10,7.2,10,7.5v5C10,12.8,9.8,13,9.5,13z"/>
</svg>
