<?xml version="1.0" encoding="utf-8"?>
<!-- Generator: Adobe Illustrator 23.0.2, SVG Export Plug-In . SVG Version: 6.00 Build 0)  -->
<svg version="1.1" baseProfile="tiny" id="Layer_3" xmlns="http://www.w3.org/2000/svg" xmlns:xlink="http://www.w3.org/1999/xlink"
	 x="0px" y="0px" viewBox="0 0 16 16" xml:space="preserve">
<g>
	<path fill="none" d="M7,9.5C7,7,9,5,11.5,5c1.3,0,2.4,0.5,3.3,1.4c0.4-1.2,0.3-2.2-0.1-2.9c-0.4-0.8-1.2-1.2-1.8-1.3
		C12.6,2,12.3,2,11.9,2c-1.3,0-2.6,0.7-3,1.7C8.8,4,8.4,4.3,8,4.3S7.2,4,7.1,3.7C6.7,2.7,5.4,2,4.1,2c-0.3,0-0.7,0-1,0.1
		C2.5,2.3,1.8,2.7,1.3,3.5C0.9,4.2,0.9,5.3,1.2,6.4c1.1,3.2,5.2,6.4,6.8,7.4c0.2-0.2,0.6-0.4,0.9-0.6C7.8,12.4,7,11,7,9.5z"/>
	<path fill="none" d="M10.8,12.9c0.2,0,0.5,0.1,0.7,0.1c1.9,0,3.5-1.6,3.5-3.5c0-0.3-0.1-0.7-0.2-1"/>
	<path fill="none" d="M14.3,7.4C13.7,6.6,12.7,6,11.5,6C9.6,6,8,7.6,8,9.5c0,1.3,0.7,2.4,1.7,3"/>
</g>
<g>
	<path d="M13.5,10h-4C9.2,10,9,9.8,9,9.5v0C9,9.2,9.2,9,9.5,9h4C13.8,9,14,9.2,14,9.5v0C14,9.8,13.8,10,13.5,10z"/>
</g>
<path d="M15.4,7.4c0.1-0.2,0.2-0.4,0.3-0.7c0.9-3.1-0.5-5-2.5-5.5c-2-0.6-4.4,0.3-5.2,2.1C7.2,1.5,4.8,0.6,2.8,1.2
	c-2,0.6-3.5,2.5-2.5,5.5c1.4,4,6.8,7.7,7.7,8.3c0.3-0.2,1-0.6,1.9-1.3c0.5,0.2,1,0.3,1.6,0.3C14,14,16,12,16,9.5
	C16,8.7,15.8,8,15.4,7.4z M8,13.8c-1.6-1.1-5.7-4.2-6.8-7.4C0.9,5.3,0.9,4.2,1.3,3.5c0.4-0.8,1.2-1.2,1.8-1.3C3.4,2,3.7,2,4.1,2
	c1.3,0,2.6,0.7,3,1.7C7.2,4,7.6,4.3,8,4.3S8.8,4,8.9,3.7c0.4-1,1.7-1.7,3-1.7c0.3,0,0.7,0,1,0.1c0.6,0.2,1.3,0.5,1.8,1.3
	c0.4,0.8,0.4,1.8,0.1,2.9c-0.8-0.9-2-1.4-3.3-1.4C9,5,7,7,7,9.5c0,1.5,0.8,2.9,1.9,3.7C8.6,13.4,8.2,13.6,8,13.8z M11.5,13
	c-0.2,0-0.5,0-0.7-0.1c-0.4-0.1-0.7-0.2-1.1-0.4c-1-0.6-1.7-1.7-1.7-3C8,7.6,9.6,6,11.5,6c1.2,0,2.2,0.6,2.8,1.4
	c0.2,0.3,0.4,0.7,0.5,1.1c0.1,0.3,0.2,0.6,0.2,1C15,11.4,13.4,13,11.5,13z"/>
</svg>
