<?xml version="1.0" encoding="utf-8"?>
<!-- Generator: Adobe Illustrator 23.0.2, SVG Export Plug-In . SVG Version: 6.00 Build 0)  -->
<svg version="1.1" baseProfile="tiny" id="Layer_2" xmlns="http://www.w3.org/2000/svg" xmlns:xlink="http://www.w3.org/1999/xlink"
	 x="0px" y="0px" viewBox="0 0 16 16" xml:space="preserve">
<path d="M13.2,1.2c-2-0.6-4.4,0.3-5.2,2.1C7.2,1.5,4.8,0.6,2.8,1.2c-2,0.6-3.5,2.5-2.5,5.5c1.4,4,6.8,7.7,7.7,8.3
	c0.9-0.5,6.4-4.3,7.7-8.3C16.6,3.7,15.2,1.8,13.2,1.2z M14.8,6.4c-1.1,3.2-5.2,6.3-6.8,7.4c-1.6-1.1-5.7-4.2-6.8-7.4
	C0.9,5.3,0.9,4.2,1.3,3.5c0.4-0.8,1.2-1.2,1.8-1.3C3.4,2,3.7,2,4.1,2c1.3,0,2.6,0.7,3,1.7C7.2,4,7.6,4.3,8,4.3S8.8,4,8.9,3.7
	c0.4-1,1.7-1.7,3-1.7c0.3,0,0.7,0,1,0.1c0.6,0.2,1.3,0.5,1.8,1.3C15.1,4.2,15.1,5.3,14.8,6.4z"/>
</svg>
