<?xml version="1.0" encoding="utf-8"?>
<!-- Generator: Adobe Illustrator 23.0.2, SVG Export Plug-In . SVG Version: 6.00 Build 0)  -->
<svg version="1.1" baseProfile="tiny" id="Layer_2" xmlns="http://www.w3.org/2000/svg" xmlns:xlink="http://www.w3.org/1999/xlink"
	 x="0px" y="0px" viewBox="0 0 16 16" xml:space="preserve">
<path d="M15.9,15.1l-4.4-4.4c1-1.1,1.6-2.6,1.6-4.2C13,2.9,10.1,0,6.5,0S0,2.9,0,6.5S2.9,13,6.5,13c1.6,0,3.1-0.6,4.2-1.6l4.4,4.4
	c0.2,0.2,0.5,0.2,0.7,0C16,15.7,16,15.3,15.9,15.1z M1,6.5C1,3.5,3.5,1,6.5,1c3,0,5.5,2.5,5.5,5.5c0,3-2.5,5.5-5.5,5.5
	C3.5,12,1,9.5,1,6.5z"/>
</svg>
