<?xml version="1.0" encoding="utf-8"?>
<!-- Generator: Adobe Illustrator 22.0.1, SVG Export Plug-In . SVG Version: 6.00 Build 0)  -->
<svg version="1.1" baseProfile="tiny" id="Layer_3" xmlns="http://www.w3.org/2000/svg" xmlns:xlink="http://www.w3.org/1999/xlink"
	 x="0px" y="0px" viewBox="0 0 16 16" xml:space="preserve">
<g>
	<polygon fill-rule="evenodd" points="8,16 8,16 8,16 	"/>
	<path fill-rule="evenodd" d="M14,10.4c0-2-0.9-3.3-2.5-5C11,6.4,10.4,7.2,9.6,7.8c0.4-1,0.6-2,0.5-3.2c0-0.2,0-0.4-0.1-0.6l0,0
		c0,0,0,0,0,0C9.9,2.4,9.1,1,8,0c0,0,0,0,0,0c0,0,0,0,0,0c0,0,0,0,0,0l0,0c0,0,0,0,0,0c0,0,0.1,1.7-2,3.9c-2.5,2.6-4,3.9-4,6.5
		c0,0,0,0,0,0.1h0c0,3,2.7,5.5,6,5.5c-1.7,0-3-1.2-3-2.8h0c0,0,0,0,0,0c0-0.8,0.3-1.3,0.8-1.9c0.4,0.5,1,0.9,1.6,1.1c0,0,0,0,0,0
		c0,0,0,0,0,0c0,0,0,0,0,0l0,0c0,0,0,0,0,0c0,0-0.4-0.7,0-2.2c0.3-0.8,0.5-1.4,0.6-2c0,0.3,0.2,1,1,1.8c1.2,1.3,2,1.9,2,3.2
		c0,0,0,0,0,0h0c0,1.5-1.3,2.7-3,2.7c0,0,0,0,0,0C11.4,16,14,13.5,14,10.4L14,10.4C14,10.5,14,10.5,14,10.4z"/>
</g>
</svg>
