<?xml version="1.0" encoding="utf-8"?>
<!-- Generator: Adobe Illustrator 22.0.1, SVG Export Plug-In . SVG Version: 6.00 Build 0)  -->
<svg version="1.1" baseProfile="tiny" xmlns="http://www.w3.org/2000/svg" xmlns:xlink="http://www.w3.org/1999/xlink" x="0px"
	 y="0px" viewBox="0 0 16 16" xml:space="preserve">
<g id="Layer_4">
</g>
<g id="Layer_3">
	<circle cx="8" cy="6" r="3"/>
</g>
<g id="Layer_2">
	<path d="M14.3,12.9C15.4,11.6,16,9.9,16,8c0-4.4-3.6-8-8-8S0,3.6,0,8c0,1.9,0.6,3.6,1.7,4.9l0,0l0,0c0.5,0.7,1.2,1.3,1.9,1.8
		c0,0,0.1,0,0.1,0c0.2,0.1,0.4,0.3,0.6,0.4c0.1,0,0.1,0.1,0.2,0.1c0.2,0.1,0.4,0.2,0.6,0.2c0.1,0,0.2,0.1,0.3,0.1
		c0.2,0.1,0.4,0.1,0.6,0.2c0.1,0,0.2,0.1,0.3,0.1c0.2,0,0.4,0.1,0.6,0.1c0.1,0,0.2,0,0.3,0C7.4,16,7.7,16,8,16s0.6,0,0.9-0.1
		c0.1,0,0.2,0,0.3,0c0.2,0,0.4-0.1,0.6-0.1c0.1,0,0.2,0,0.3-0.1c0.2,0,0.4-0.1,0.6-0.2c0.1,0,0.2-0.1,0.3-0.1
		c0.2-0.1,0.4-0.2,0.6-0.2c0.1,0,0.1-0.1,0.2-0.1c0.2-0.1,0.4-0.2,0.6-0.4c0,0,0.1,0,0.1,0C13.1,14.2,13.7,13.6,14.3,12.9L14.3,12.9
		L14.3,12.9z M1,8c0-3.9,3.1-7,7-7c3.9,0,7,3.1,7,7c0,1.5-0.5,2.9-1.3,4c-1.3-1.8-3.4-3-5.7-3c-2.4,0-4.5,1.2-5.7,3
		C1.5,10.9,1,9.5,1,8z"/>
</g>
</svg>
