<?xml version="1.0" encoding="utf-8"?>
<!-- Generator: Adobe Illustrator 22.0.1, SVG Export Plug-In . SVG Version: 6.00 Build 0)  -->
<svg version="1.1" baseProfile="tiny" id="Layer_3" xmlns="http://www.w3.org/2000/svg" xmlns:xlink="http://www.w3.org/1999/xlink"
	 x="0px" y="0px" viewBox="0 0 16 16" xml:space="preserve">
<path fill="#010101" d="M14,8c0-1,1.3-1.7,1.3-1.7c0.2-0.1,0.4-0.5,0.3-0.7l-0.5-1.2C15,4.1,14.7,4,14.4,4.1c0,0-1.4,0.4-2.1-0.3
	c-0.7-0.7-0.3-2.1-0.3-2.1C12,1.3,11.9,1,11.6,0.9l-1.2-0.5c-0.3-0.1-0.6,0-0.7,0.3C9.7,0.7,9,2,8,2S6.3,0.7,6.3,0.7
	C6.1,0.5,5.8,0.3,5.6,0.4L4.4,0.9C4.1,1,4,1.3,4.1,1.6c0,0,0.4,1.4-0.3,2.1C3,4.5,1.6,4.1,1.6,4.1C1.3,4,1,4.1,0.9,4.4L0.4,5.6
	c-0.1,0.3,0,0.6,0.3,0.7C0.7,6.3,2,7,2,8c0,1-1.3,1.7-1.3,1.7c-0.2,0.1-0.4,0.5-0.3,0.7l0.5,1.2C1,11.9,1.3,12,1.6,11.9
	c0,0,1.4-0.4,2.1,0.3c0.7,0.7,0.3,2.1,0.3,2.1C4,14.7,4.1,15,4.4,15.1l1.2,0.5c0.3,0.1,0.6,0,0.7-0.3C6.3,15.3,7,14,8,14
	s1.7,1.3,1.7,1.3c0.1,0.2,0.5,0.4,0.7,0.3l1.2-0.5c0.2-0.1,0.4-0.4,0.3-0.7c0,0-0.4-1.4,0.3-2.1c0.7-0.7,2.1-0.3,2.1-0.3
	c0.3,0.1,0.6-0.1,0.7-0.3l0.5-1.2c0.1-0.3,0-0.6-0.3-0.7C15.3,9.7,14,9,14,8z M8,11c-1.7,0-3-1.3-3-3s1.3-3,3-3s3,1.3,3,3
	S9.7,11,8,11z"/>
</svg>
