<?xml version="1.0" encoding="utf-8"?>
<!-- Generator: Adobe Illustrator 23.0.2, SVG Export Plug-In . SVG Version: 6.00 Build 0)  -->
<svg version="1.1" baseProfile="tiny" id="Layer_2" xmlns="http://www.w3.org/2000/svg" xmlns:xlink="http://www.w3.org/1999/xlink"
	 x="0px" y="0px" viewBox="0 0 16 16" xml:space="preserve">
<path d="M8,0c0,0-3.4,2-7,2v5.3c0,5.8,6.5,8.5,6.8,8.6L8,16l0,0l0,0l0.2-0.1c0.3-0.1,6.8-2.9,6.8-8.6V2C11.4,2,8,0,8,0z M14,7.3
	c0,4.6-4.9,7.1-6,7.6h0c-1.1-0.5-6-3-6-7.6V3c2.6-0.2,5-1.3,6-1.8c1,0.5,3.4,1.6,6,1.8V7.3z"/>
<path d="M8,2.3C6.9,2.8,5.1,3.5,3,3.8v3.5c0,3.6,3.6,5.8,5,6.5V2.3z"/>
</svg>
