<?xml version="1.0" encoding="utf-8"?>
<!-- Generator: Adobe Illustrator 17.1.0, SVG Export Plug-In . SVG Version: 6.00 Build 0)  -->
<!DOCTYPE svg PUBLIC "-//W3C//DTD SVG 1.1 Tiny//EN" "http://www.w3.org/Graphics/SVG/1.1/DTD/svg11-tiny.dtd">
<svg version="1.1" baseProfile="tiny" id="Layer_2" xmlns="http://www.w3.org/2000/svg" xmlns:xlink="http://www.w3.org/1999/xlink"
	 x="0px" y="0px" viewBox="0 0 16 16" xml:space="preserve">
<path fill-rule="evenodd" d="M13,3.2c-0.5-0.1-1.2-0.6-1.4-1.1l-0.1-0.2C11.2,1.4,10.6,1,10,1H6C5.4,1,4.8,1.4,4.6,1.9L4.4,2.1
	C4.2,2.6,3.6,3.1,3,3.2L1,3.8C0.4,3.9,0,4.4,0,5v8c0,0.6,0.4,1,1,1h14c0.6,0,1-0.4,1-1V5c0-0.6-0.4-1.1-1-1.2L13,3.2z M8,13
	c-2.8,0-5-2.2-5-5s2.2-5,5-5s5,2.2,5,5S10.8,13,8,13z"/>
</svg>
