<?xml version="1.0" encoding="utf-8"?>
<!-- Generator: Adobe Illustrator 23.0.2, SVG Export Plug-In . SVG Version: 6.00 Build 0)  -->
<svg version="1.1" baseProfile="tiny" id="Layer_2" xmlns="http://www.w3.org/2000/svg" xmlns:xlink="http://www.w3.org/1999/xlink"
	 x="0px" y="0px" viewBox="0 0 16 16" xml:space="preserve">
<g>
	<path fill="#070606" d="M15.4,7.4c-0.8-0.5-1-1.5-0.5-2.2c0.5-0.8,0.1-1.4-0.8-1.4S12.5,3,12.5,2.1c0-0.9-0.6-1.3-1.4-0.8
		S9.4,1.4,9,0.6c-0.4-0.8-1.1-0.8-1.6,0c-0.5,0.8-1.5,1-2.2,0.5C4.4,0.6,3.8,1,3.7,1.9S3,3.5,2.1,3.5C1.2,3.4,0.8,4,1.2,4.8
		C1.7,5.6,1.4,6.6,0.6,7c-0.8,0.4-0.8,1.1,0,1.6c0.8,0.5,1,1.5,0.5,2.2c-0.5,0.8-0.1,1.4,0.8,1.4c0.9,0,1.6,0.8,1.6,1.7
		c0,0.9,0.6,1.3,1.4,0.8s1.8-0.1,2.2,0.6c0.4,0.8,1.1,0.8,1.6,0c0.5-0.8,1.5-1,2.2-0.5c0.8,0.5,1.4,0.1,1.4-0.8
		c0-0.9,0.8-1.6,1.7-1.6c0.9,0,1.3-0.6,0.8-1.4c-0.4-0.8-0.1-1.8,0.6-2.2C16.2,8.6,16.2,7.8,15.4,7.4z M4,6.5v-1C4,4.7,4.7,4,5.5,4
		S7,4.7,7,5.5v1C7,7.3,6.3,8,5.5,8S4,7.3,4,6.5z M6.2,11.8C6,12,5.7,12.1,5.5,12c-0.2-0.1-0.3-0.4-0.2-0.7l4.5-7.1
		C10,4,10.3,3.9,10.5,4s0.3,0.4,0.2,0.7L6.2,11.8z M12,10.5c0,0.8-0.7,1.5-1.5,1.5S9,11.3,9,10.5v-1C9,8.7,9.7,8,10.5,8
		S12,8.7,12,9.5V10.5z"/>
	<path fill="#070606" d="M6,6.5v-1C6,5.2,5.8,5,5.5,5S5,5.2,5,5.5v1C5,6.8,5.2,7,5.5,7S6,6.8,6,6.5z"/>
	<path fill="#070606" d="M10.5,9C10.2,9,10,9.2,10,9.5v1c0,0.3,0.2,0.5,0.5,0.5s0.5-0.2,0.5-0.5v-1C11,9.2,10.8,9,10.5,9z"/>
</g>
</svg>
