<?xml version="1.0" encoding="utf-8"?>
<!-- Generator: Adobe Illustrator 22.0.1, SVG Export Plug-In . SVG Version: 6.00 Build 0)  -->
<svg version="1.1" baseProfile="tiny" id="Layer_3" xmlns="http://www.w3.org/2000/svg" xmlns:xlink="http://www.w3.org/1999/xlink"
	 x="0px" y="0px" viewBox="0 0 16 16" xml:space="preserve">
<g>
	<path d="M6,6H2C0.9,6,0,7,0,8.2V10c0.3,0.4,0.6,0.7,1,1V14c0,1.1,0.9,2,2,2h2c1.1,0,2-0.9,2-2v-3.1c0.4-0.3,0.7-0.6,1-1V8.2
		C8,7,7.1,6,6,6z"/>
	<path d="M4,5c1.4,0,2.5-1.1,2.5-2.5C6.5,1.1,5.4,0,4,0S1.5,1.1,1.5,2.5C1.5,3.9,2.6,5,4,5z"/>
	<g>
		<path d="M12,5c1.1,0,2-0.9,2-2s-0.9-2-2-2s-2,0.9-2,2S10.9,5,12,5z"/>
		<path d="M13.5,6H12h-1.5C9.7,6,9,6.8,9,7.7V9c0.3,0.4,0.6,0.7,1,0.9v3.6c0,0.8,0.7,1.5,1.5,1.5H12h0.5c0.8,0,1.5-0.7,1.5-1.5V9.9
			c0.4-0.2,0.7-0.5,1-0.9V7.7C15,6.8,14.3,6,13.5,6z"/>
	</g>
</g>
</svg>
