<?xml version="1.0" encoding="utf-8"?>
<!-- Generator: Adobe Illustrator 17.1.0, SVG Export Plug-In . SVG Version: 6.00 Build 0)  -->
<!DOCTYPE svg PUBLIC "-//W3C//DTD SVG 1.1 Tiny//EN" "http://www.w3.org/Graphics/SVG/1.1/DTD/svg11-tiny.dtd">
<svg version="1.1" baseProfile="tiny" xmlns="http://www.w3.org/2000/svg" xmlns:xlink="http://www.w3.org/1999/xlink" x="0px"
	 y="0px" viewBox="0 0 16 16" xml:space="preserve">
<g id="Layer_2">
	<polyline fill="#010101" points="10,1 10,5 14,5 	"/>
	<g>
		<polygon fill="#010101" points="9,8 8,8 8,10 6,10 6,11 8,11 8,13 9,13 9,11 11,11 11,10 9,10 		"/>
		<path fill="#010101" d="M10,6H9V5V1H5C3.9,1,3,1.9,3,3v10c0,1.1,0.9,2,2,2h7c1.1,0,2-0.9,2-2V6H10z M8.5,14C6.6,14,5,12.4,5,10.5
			C5,8.6,6.6,7,8.5,7S12,8.6,12,10.5C12,12.4,10.4,14,8.5,14z"/>
	</g>
</g>
<g id="Layer_4">
</g>
</svg>
