<?xml version="1.0" encoding="utf-8"?>
<!-- Generator: Adobe Illustrator 22.0.1, SVG Export Plug-In . SVG Version: 6.00 Build 0)  -->
<svg version="1.1" baseProfile="tiny" id="Layer_3" xmlns="http://www.w3.org/2000/svg" xmlns:xlink="http://www.w3.org/1999/xlink"
	 x="0px" y="0px" viewBox="0 0 16 16" xml:space="preserve">
<g>
	<path d="M4,11.4c-0.3-0.3-0.6-0.5-0.8-0.8L3,10.3V8.2C3,7.4,3.3,6.6,3.8,6H1.5C0.7,6,0,6.8,0,7.7V9c0.3,0.4,0.6,0.7,1,0.9v3.6
		C1,14.3,1.7,15,2.5,15h1c0.2,0,0.4-0.1,0.6-0.1C4.1,14.6,4,14.3,4,14V11.4z"/>
	<path d="M12,8.2C12,7,11.1,6,10,6H6C4.9,6,4,7,4,8.2V10c0.3,0.4,0.6,0.7,1,1V14c0,1.1,0.9,2,2,2h2c1.1,0,2-0.9,2-2v-3.1
		c0.4-0.3,0.7-0.6,1-1V8.2z"/>
	<path d="M3,5c0.8,0,1.5-0.5,1.8-1.1C4.6,3.5,4.5,3,4.5,2.5c0-0.2,0-0.5,0.1-0.7C4.2,1.3,3.6,1,3,1C1.9,1,1,1.9,1,3S1.9,5,3,5z"/>
	<path d="M14.5,6h-2.3C12.7,6.6,13,7.4,13,8.2v2.1l-0.2,0.3c-0.2,0.3-0.5,0.6-0.8,0.8V14c0,0.3-0.1,0.6-0.1,0.9
		c0.2,0.1,0.4,0.1,0.6,0.1h1c0.8,0,1.5-0.7,1.5-1.5V9.9c0.4-0.2,0.7-0.5,1-0.9V7.7C16,6.8,15.3,6,14.5,6z"/>
	<path d="M13,5c1.1,0,2-0.9,2-2s-0.9-2-2-2c-0.6,0-1.2,0.3-1.6,0.8c0,0.2,0.1,0.5,0.1,0.7c0,0.5-0.1,1-0.3,1.4C11.5,4.5,12.2,5,13,5
		z"/>
	<circle cx="8" cy="2.5" r="2.5"/>
</g>
</svg>
