<?xml version="1.0" encoding="utf-8"?>
<!-- Generator: Adobe Illustrator 22.0.1, SVG Export Plug-In . SVG Version: 6.00 Build 0)  -->
<svg version="1.1" baseProfile="tiny" xmlns="http://www.w3.org/2000/svg" xmlns:xlink="http://www.w3.org/1999/xlink" x="0px"
	 y="0px" viewBox="0 0 16 16" xml:space="preserve">
<g id="Layer_5">
	<path fill-rule="evenodd" fill="#010101" d="M13.7,5l-0.2-0.3c-0.3-0.5-0.7-1.3-0.8-1.9l-0.1-0.4c-0.1-0.6-0.7-1.1-1.2-1.2L11,1.2
		c-0.6-0.1-1.4-0.4-1.9-0.8L8.8,0.2C8.3-0.1,7.5-0.1,7,0.3L6.7,0.5C6.3,0.9,5.4,1.2,4.8,1.3L4.5,1.4C3.9,1.5,3.4,2.1,3.3,2.6L3.2,3
		C3.1,3.6,2.8,4.5,2.5,4.9L2.2,5.2C1.9,5.7,1.9,6.5,2.3,7l0.2,0.3c0.3,0.5,0.7,1.3,0.8,1.9l0.1,0.4c0.1,0.6,0.7,1.1,1.2,1.2L5,10.8
		c0.6,0.1,1.4,0.4,1.9,0.8l0.3,0.2c0.5,0.3,1.3,0.3,1.7,0l0.3-0.2c0.5-0.3,1.3-0.7,1.9-0.8l0.4-0.1c0.6-0.1,1.1-0.7,1.2-1.2L12.8,9
		c0.1-0.6,0.4-1.4,0.8-1.9l0.2-0.3C14.1,6.3,14.1,5.5,13.7,5z M8.3,10C6.1,10.2,4.2,8.5,4,6.3C3.8,4.1,5.5,2.2,7.7,2
		c2.2-0.2,4.1,1.5,4.3,3.7C12.2,7.9,10.5,9.8,8.3,10z"/>
	<circle fill-rule="evenodd" fill="#010101" cx="8" cy="6" r="3"/>
</g>
<g id="Layer_3">
	<path fill-rule="evenodd" fill="#010101" d="M5,10v6l3-2l3,2v-6H5z M10,14.1l-2-1.3l-2,1.3V11h4V14.1z"/>
</g>
</svg>
