<?xml version="1.0" encoding="utf-8"?>
<!-- Generator: Adobe Illustrator 22.0.1, SVG Export Plug-In . SVG Version: 6.00 Build 0)  -->
<svg version="1.1" baseProfile="tiny" id="Layer_2" xmlns="http://www.w3.org/2000/svg" xmlns:xlink="http://www.w3.org/1999/xlink"
	 x="0px" y="0px" viewBox="0 0 16 16" xml:space="preserve">
<circle cx="8" cy="6" r="3"/>
<path d="M11,14.5V14h-0.5C9.7,14,9,13.3,9,12.5S9.7,11,10.5,11H11v-0.5c0-0.3,0.1-0.5,0.2-0.7C10.2,9.3,9.2,9,8,9
	c-2.4,0-4.5,1.2-5.7,3C1.5,10.9,1,9.5,1,8c0-3.9,3.1-7,7-7c3.9,0,7,3.1,7,7c0,1.1-0.3,2.1-0.7,3h0.2c0.3,0,0.6,0.1,0.8,0.2
	c0.4-1,0.7-2.1,0.7-3.2c0-4.4-3.6-8-8-8S0,3.6,0,8c0,1.9,0.6,3.6,1.7,4.9c0.5,0.7,1.2,1.3,1.9,1.8c0,0,0.1,0,0.1,0
	c0.2,0.1,0.4,0.3,0.6,0.4c0.1,0,0.1,0.1,0.2,0.1c0.2,0.1,0.4,0.2,0.6,0.2c0.1,0,0.2,0.1,0.3,0.1c0.2,0.1,0.4,0.1,0.6,0.2
	c0.1,0,0.2,0.1,0.3,0.1c0.2,0,0.4,0.1,0.6,0.1c0.1,0,0.2,0,0.3,0C7.4,16,7.7,16,8,16s0.6,0,0.9-0.1c0.1,0,0.2,0,0.3,0
	c0.2,0,0.4-0.1,0.6-0.1c0.1,0,0.2,0,0.3-0.1c0.2,0,0.4-0.1,0.6-0.2c0.1,0,0.2-0.1,0.3-0.1c0.1,0,0.3-0.1,0.4-0.2
	C11.1,15.1,11,14.8,11,14.5z"/>
<path d="M14.5,12H13v-1.5c0-0.3-0.2-0.5-0.5-0.5S12,10.2,12,10.5V12h-1.5c-0.3,0-0.5,0.2-0.5,0.5c0,0.3,0.2,0.5,0.5,0.5H12v1.5
	c0,0.3,0.2,0.5,0.5,0.5s0.5-0.2,0.5-0.5V13h1.5c0.3,0,0.5-0.2,0.5-0.5C15,12.2,14.8,12,14.5,12z"/>
</svg>
