<?xml version="1.0" encoding="utf-8"?>
<!-- Generator: Adobe Illustrator 22.0.1, SVG Export Plug-In . SVG Version: 6.00 Build 0)  -->
<svg version="1.1" baseProfile="tiny" id="Layer_3" xmlns="http://www.w3.org/2000/svg" xmlns:xlink="http://www.w3.org/1999/xlink"
	 x="0px" y="0px" viewBox="0 0 16 16" xml:space="preserve">
<path d="M8,0C3.6,0,0,3.6,0,8s3.6,8,8,8s8-3.6,8-8S12.4,0,8,0z M11,4c0.8,0,1.5,0.7,1.5,1.5S11.8,7,11,7S9.5,6.3,9.5,5.5
	S10.2,4,11,4z M5,4c0.8,0,1.5,0.7,1.5,1.5S5.8,7,5,7S3.5,6.3,3.5,5.5S4.2,4,5,4z M8,15c-3.6,0-6.6-2.7-7-6.3c0-0.4,0.3-0.6,0.6-0.6
	C2.8,8.5,5.1,9,8,9s5.2-0.5,6.3-0.8C14.7,8.1,15,8.4,15,8.7C14.6,12.3,11.6,15,8,15z"/>
</svg>
