<?xml version="1.0" encoding="utf-8"?>
<!-- Generator: Adobe Illustrator 22.0.1, SVG Export Plug-In . SVG Version: 6.00 Build 0)  -->
<svg version="1.1" baseProfile="tiny" id="Layer_1" xmlns="http://www.w3.org/2000/svg" xmlns:xlink="http://www.w3.org/1999/xlink"
	 x="0px" y="0px" viewBox="0 0 16 16" xml:space="preserve">
<path d="M8.3,16c-1.9,0-3.6-0.7-5-1.9L0,14.6l1.3-3.2c-0.4-1-0.7-2.1-0.7-3.3c0-4.4,3.5-8,7.7-8C12.5,0,16,3.6,16,8
	C16,12.4,12.5,16,8.3,16z M12.5,8L12.5,8c0-2.3-1.6-4-4.3-4H5.2v8h2.9C10.9,12,12.5,10.3,12.5,8L12.5,8z M8.2,10H7.4V6h0.9
	c1.3,0,2.1,0.7,2.1,2v0C10.3,9.3,9.5,10,8.2,10z"/>
</svg>
