<?xml version="1.0" encoding="utf-8"?>
<!-- Generator: Adobe Illustrator 22.0.1, SVG Export Plug-In . SVG Version: 6.00 Build 0)  -->
<svg version="1.1" baseProfile="tiny" id="Layer_3" xmlns="http://www.w3.org/2000/svg" xmlns:xlink="http://www.w3.org/1999/xlink"
	 x="0px" y="0px" viewBox="0 0 16 16" xml:space="preserve">
<path fill-rule="evenodd" d="M4,5.1c0-0.2,0-0.4,0-0.6c0-1,0.2-2,0.6-2.9C1.9,2.7,0,5.4,0,8.5C0,10.4,1.6,12,3.5,12S7,10.4,7,8.5
	C7,6.8,5.7,5.3,4,5.1z"/>
<path fill-rule="evenodd" d="M13,5.1c0-0.2,0-0.4,0-0.6c0-1,0.2-2,0.6-2.9C10.9,2.7,9,5.4,9,8.5c0,1.9,1.6,3.5,3.5,3.5
	S16,10.4,16,8.5C16,6.8,14.7,5.3,13,5.1z"/>
</svg>
