<?xml version="1.0" encoding="utf-8"?>
<!-- Generator: Adobe Illustrator 22.0.1, SVG Export Plug-In . SVG Version: 6.00 Build 0)  -->
<svg version="1.1" baseProfile="tiny" id="Layer_3" xmlns="http://www.w3.org/2000/svg" xmlns:xlink="http://www.w3.org/1999/xlink"
	 x="0px" y="0px" viewBox="0 0 16 16" xml:space="preserve">
<g>
	<circle cx="5" cy="4.5" r="2.5"/>
</g>
<path fill="#010101" d="M11.1,7.1c0.2-0.2,0.5-0.5,0.7-0.7L13,5.3c0.2-0.2,0.5-0.2,0.7,0c0.2,0.2,0.2,0.5,0,0.7l-0.6,0.6
	C12.9,6.8,12.9,7,13.2,7h1.3h0.8h0.2C15.8,7,16,7.2,16,7.5C16,7.8,15.8,8,15.5,8h-0.2h-0.8h-1.3c-0.3,0-0.3,0.2-0.1,0.4L13.7,9
	c0.2,0.2,0.2,0.5,0,0.7c-0.2,0.2-0.5,0.2-0.7,0l-1.1-1.1c-0.2-0.2-0.5-0.5-0.7-0.7C11,7.7,11,7.3,11.1,7.1z"/>
<path d="M5,14.7c2,0,3.8-0.9,5-2.3v-1.9C10,9.1,8.9,8,7.5,8h-5C1.1,8,0,9.1,0,10.5v1.9C1.2,13.8,3,14.7,5,14.7z"/>
</svg>
