<?xml version="1.0" encoding="utf-8"?>
<!-- Generator: Adobe Illustrator 23.0.2, SVG Export Plug-In . SVG Version: 6.00 Build 0)  -->
<svg version="1.1" baseProfile="tiny" id="Layer_2" xmlns="http://www.w3.org/2000/svg" xmlns:xlink="http://www.w3.org/1999/xlink"
	 x="0px" y="0px" viewBox="0 0 16 16" xml:space="preserve">
<path d="M8,0C3.6,0,0,3.6,0,8s3.6,8,8,8s8-3.6,8-8S12.4,0,8,0z M11,10c0,1.1-0.9,2-2,2H6c-1.1,0-2-0.9-2-2V7c0-1.1,0.9-2,2-2h0.5
	C6.8,5,7,5.2,7,5.5C7,5.8,6.8,6,6.5,6H6C5.4,6,5,6.4,5,7v3c0,0.6,0.4,1,1,1h3c0.6,0,1-0.4,1-1V9.5C10,9.2,10.2,9,10.5,9
	S11,9.2,11,9.5V10z M12,7.5C12,7.8,11.8,8,11.5,8S11,7.8,11,7.5V5.7L7.9,8.9C7.7,9,7.3,9,7.1,8.9C7,8.7,7,8.3,7.1,8.1L10.3,5H8.5
	C8.2,5,8,4.8,8,4.5C8,4.2,8.2,4,8.5,4h3C11.8,4,12,4.2,12,4.5V7.5z"/>
</svg>
