<?xml version="1.0" encoding="utf-8"?>
<!-- Generator: Adobe Illustrator 22.0.1, SVG Export Plug-In . SVG Version: 6.00 Build 0)  -->
<svg version="1.1" baseProfile="tiny" id="Layer_3" xmlns="http://www.w3.org/2000/svg" xmlns:xlink="http://www.w3.org/1999/xlink"
	 x="0px" y="0px" viewBox="0 0 16 16" xml:space="preserve">
<path fill-rule="evenodd" d="M6,4c0-1.7-1.3-3-3-3S0,2.3,0,4s1.3,3,3,3S6,5.7,6,4z M4,4c0,0.6-0.4,1-1,1S2,4.6,2,4s0.4-1,1-1
	S4,3.4,4,4z"/>
<path fill-rule="evenodd" d="M10.8,13.9c1.2,1.2,3.1,1.2,4.2,0l0,0L5,3.8L2.8,6"/>
<path fill-rule="evenodd" d="M3,9c-1.7,0-3,1.3-3,3s1.3,3,3,3s3-1.3,3-3S4.7,9,3,9z M3,13c-0.6,0-1-0.4-1-1s0.4-1,1-1s1,0.4,1,1
	S3.6,13,3,13z"/>
<path fill-rule="evenodd" d="M15.1,2.1L10,7.2L7.8,5l3-3C12,0.9,13.9,0.9,15.1,2.1L15.1,2.1z"/>
</svg>
