<?xml version="1.0" encoding="utf-8"?>
<!-- Generator: Adobe Illustrator 23.0.2, SVG Export Plug-In . SVG Version: 6.00 Build 0)  -->
<svg version="1.1" baseProfile="tiny" id="Layer_3" xmlns="http://www.w3.org/2000/svg" xmlns:xlink="http://www.w3.org/1999/xlink"
	 x="0px" y="0px" viewBox="0 0 16 16" xml:space="preserve">
<g>
	<path d="M8,7C7.9,7,7.8,7,7.7,6.9L1,3v7c0,1.1,0.9,2,2,2h1c0-0.3,0.1-0.6,0.2-0.7c0.3-0.6,0.8-1,1.5-1.2C6,10,6.3,10,6.5,10
		c0.5,0,1,0.1,1.5,0.4C8.4,10.1,8.9,10,9.5,10c0.3,0,0.5,0,0.7,0.1c0.7,0.2,1.2,0.6,1.5,1.2c0.1,0.2,0.2,0.4,0.2,0.7h1
		c1.1,0,2-0.9,2-2V3L8.3,6.9C8.2,7,8.1,7,8,7z"/>
	<path d="M15,1.8c-0.1-1-1-1.8-2-1.8H3C2,0,1.1,0.8,1,1.8l7,4.1L15,1.8z"/>
	<path d="M9.9,11.1c-0.7-0.2-1.6,0.1-1.9,0.8c-0.3-0.6-1.2-1-1.9-0.8c-0.8,0.2-1.3,0.9-0.9,2c0.5,1.4,2.5,2.8,2.9,3
		c0.4-0.2,2.4-1.5,2.9-3C11.2,12,10.7,11.3,9.9,11.1z"/>
</g>
</svg>
