<?xml version="1.0" encoding="utf-8"?>
<!-- Generator: Adobe Illustrator 22.0.1, SVG Export Plug-In . SVG Version: 6.00 Build 0)  -->
<svg version="1.1" baseProfile="tiny" id="Layer_3" xmlns="http://www.w3.org/2000/svg" xmlns:xlink="http://www.w3.org/1999/xlink"
	 x="0px" y="0px" viewBox="0 0 16 16" xml:space="preserve">
<g>
	<circle cx="5" cy="4.5" r="2.5"/>
</g>
<path fill="#010101" d="M15.9,7.1c-0.2-0.2-0.5-0.5-0.7-0.7L14,5.3c-0.2-0.2-0.5-0.2-0.7,0c-0.2,0.2-0.2,0.5,0,0.7l0.6,0.6
	C14.1,6.8,14.1,7,13.8,7h-1.3h-0.8h-0.2C11.2,7,11,7.2,11,7.5C11,7.8,11.2,8,11.5,8h0.2h0.8h1.3c0.3,0,0.3,0.2,0.1,0.4L13.3,9
	c-0.2,0.2-0.2,0.5,0,0.7c0.2,0.2,0.5,0.2,0.7,0l1.1-1.1c0.2-0.2,0.5-0.5,0.7-0.7C16,7.7,16,7.3,15.9,7.1z"/>
<path d="M5,14.7c2,0,3.8-0.9,5-2.3v-1.9C10,9.1,8.9,8,7.5,8h-5C1.1,8,0,9.1,0,10.5v1.9C1.2,13.8,3,14.7,5,14.7z"/>
</svg>
