<?xml version="1.0" encoding="utf-8"?>
<!-- Generator: Adobe Illustrator 22.1.0, SVG Export Plug-In . SVG Version: 6.00 Build 0)  -->
<svg version="1.1" baseProfile="tiny" id="Layer_2" xmlns="http://www.w3.org/2000/svg" xmlns:xlink="http://www.w3.org/1999/xlink"
	 x="0px" y="0px" viewBox="0 0 16 16" xml:space="preserve">
<path d="M11,3H5C2.2,3,0,5.2,0,8s2.2,5,5,5h6c2.8,0,5-2.2,5-5S13.8,3,11,3z M11,12H8H5c-2.2,0-4-1.8-4-4c0-2.2,1.8-4,4-4h3h3
	c2.2,0,4,1.8,4,4C15,10.2,13.2,12,11,12z"/>
<path d="M5,5C3.3,5,2,6.3,2,8s1.3,3,3,3s3-1.3,3-3S6.7,5,5,5z M5,10c-1.1,0-2-0.9-2-2c0-1.1,0.9-2,2-2s2,0.9,2,2C7,9.1,6.1,10,5,10z
	"/>
</svg>
