<?xml version="1.0" encoding="utf-8"?>
<!-- Generator: Adobe Illustrator 23.0.2, SVG Export Plug-In . SVG Version: 6.00 Build 0)  -->
<svg version="1.1" baseProfile="tiny" id="Layer_2" xmlns="http://www.w3.org/2000/svg" xmlns:xlink="http://www.w3.org/1999/xlink"
	 x="0px" y="0px" viewBox="0 0 16 16" xml:space="preserve">
<path fill="#070606" d="M1.6,0C1.6,0,1.6,0,1.6,0C1.7,0,1.7,0,1.6,0C1.7,0,1.7,0,1.6,0C1.6,0,1.6,0,1.6,0z"/>
<g>
	<path fill="#070606" d="M7,14.9V12H4.7C5.3,13.6,6.2,14.6,7,14.9z"/>
	<path fill="#070606" d="M7,3V0.1C6.2,0.4,5.3,1.4,4.7,3H7z"/>
	<path fill="#070606" d="M4.4,11H7V8H4C4,9.1,4.2,10.1,4.4,11z"/>
	<path fill="#070606" d="M4,7h3V4H4.4C4.2,4.9,4,5.9,4,7z"/>
	<path fill="#070606" d="M11.6,11h2.5c0.5-0.9,0.8-1.9,0.8-3h-3C12,9.1,11.8,10.1,11.6,11z"/>
	<path fill="#070606" d="M11.3,3h2.2c-0.9-1.2-2.1-2.1-3.5-2.6C10.5,1.1,11,2,11.3,3z"/>
	<path fill="#070606" d="M12,7h3c-0.1-1.1-0.4-2.1-0.8-3h-2.5C11.8,4.9,12,5.9,12,7z"/>
	<path fill="#070606" d="M10.3,3C9.7,1.4,8.8,0.4,8,0.1V3H10.3z"/>
	<path fill="#070606" d="M8,12v2.9c0.8-0.3,1.7-1.3,2.3-2.9H8z"/>
	<path fill="#070606" d="M0,8c0.1,1.1,0.4,2.1,0.8,3h2.5C3.2,10.1,3,9.1,3,8H0z"/>
	<path fill="#070606" d="M3.7,12H1.5c0.9,1.2,2.1,2.1,3.5,2.6C4.5,13.9,4,13,3.7,12z"/>
	<path fill="#070606" d="M11.3,12c-0.3,1-0.8,1.9-1.3,2.6c1.4-0.5,2.6-1.4,3.5-2.6H11.3z"/>
	<path fill="#070606" d="M0.9,4C0.4,4.9,0.1,5.9,0,7h3c0-1.1,0.2-2.1,0.4-3H0.9z"/>
	<path fill="#070606" d="M11,8H8v3h2.6C10.8,10.1,11,9.1,11,8z"/>
	<path fill="#070606" d="M10.6,4H8v3h3C11,5.9,10.8,4.9,10.6,4z"/>
	<path fill="#070606" d="M3.7,3C4,2,4.5,1.1,5,0.4C3.6,0.9,2.4,1.8,1.5,3H3.7z"/>
</g>
</svg>
