<?xml version="1.0" encoding="utf-8"?>
<!-- Generator: Adobe Illustrator 22.1.0, SVG Export Plug-In . SVG Version: 6.00 Build 0)  -->
<svg version="1.1" baseProfile="tiny" id="Layer_4" xmlns="http://www.w3.org/2000/svg" xmlns:xlink="http://www.w3.org/1999/xlink"
	 x="0px" y="0px" viewBox="0 0 16 16" xml:space="preserve">
<g>
	<path d="M10.1,9.5C9.3,9,8.5,8.5,8.5,8s0.8-1,1.6-1.5C11.8,5.4,14,3.9,14,1H2c0,2.9,2.2,4.4,3.9,5.5C6.7,7,7.5,7.5,7.5,8
		S6.7,9,5.9,9.5C4.2,10.6,2,12.1,2,15h12C14,12.1,11.8,10.6,10.1,9.5z M6.4,5.6C5.1,4.8,3.6,3.7,3.1,2h9.7c-0.4,1.7-2,2.8-3.3,3.6
		C9,6,8.4,6.4,8,6.8C7.6,6.4,7,6,6.4,5.6z M11.8,14c-0.4-0.8-1.4-1.3-2.8-2c-0.3-0.2-0.7-0.3-1-0.5c-0.3,0.2-0.7,0.3-1,0.5
		c-1.4,0.6-2.4,1.2-2.8,2h-1c0.4-1.7,2-2.8,3.3-3.6C7,10,7.6,9.6,8,9.2c0.4,0.4,1,0.8,1.6,1.2c1.3,0.9,2.8,1.9,3.3,3.6H11.8z"/>
	<path d="M9,4.8C9.4,4.5,9.8,4.3,10.2,4H5.8C6.2,4.3,6.6,4.5,7,4.8C7.3,5,7.7,5.3,8,5.5C8.3,5.3,8.7,5,9,4.8z"/>
</g>
</svg>
