<?xml version="1.0" encoding="utf-8"?>
<!-- Generator: Adobe Illustrator 23.0.2, SVG Export Plug-In . SVG Version: 6.00 Build 0)  -->
<svg version="1.1" baseProfile="tiny" id="Layer_2" xmlns="http://www.w3.org/2000/svg" xmlns:xlink="http://www.w3.org/1999/xlink"
	 x="0px" y="0px" viewBox="0 0 16 16" xml:space="preserve">
<g>
	<path fill="none" d="M2.7,3.4C1.7,4.7,1,6.2,1,8c0,1.8,0.7,3.3,1.7,4.6L7.3,8L2.7,3.4z"/>
	<path fill="none" d="M3.4,13.3C4.7,14.3,6.2,15,8,15c1.8,0,3.3-0.7,4.6-1.7L8,8.7L3.4,13.3z"/>
	<path fill="none" d="M13.3,3.4L8.7,8l4.6,4.6C14.3,11.3,15,9.8,15,8C15,6.2,14.3,4.7,13.3,3.4z"/>
	<path fill="none" d="M12.6,2.7C11.3,1.7,9.8,1,8,1C6.2,1,4.7,1.7,3.4,2.7L8,7.3L12.6,2.7z"/>
	<path d="M14,2.7c-0.2-0.3-0.5-0.5-0.7-0.7C11.9,0.8,10,0,8,0S4.1,0.8,2.7,2C2.5,2.2,2.2,2.5,2,2.7C0.8,4.1,0,6,0,8s0.8,3.9,2,5.3
		c0.2,0.3,0.5,0.5,0.7,0.7C4.1,15.2,6,16,8,16s3.9-0.8,5.3-2c0.3-0.2,0.5-0.5,0.7-0.7c1.2-1.4,2-3.3,2-5.3S15.2,4.1,14,2.7z M8,1
		c1.8,0,3.3,0.7,4.6,1.7L8,7.3L3.4,2.7C4.7,1.7,6.2,1,8,1z M1,8c0-1.8,0.7-3.3,1.7-4.6L7.3,8l-4.6,4.6C1.7,11.3,1,9.8,1,8z M8,15
		c-1.8,0-3.3-0.7-4.6-1.7L8,8.7l4.6,4.6C11.3,14.3,9.8,15,8,15z M13.3,12.6L8.7,8l4.6-4.6C14.3,4.7,15,6.2,15,8
		C15,9.8,14.3,11.3,13.3,12.6z"/>
</g>
</svg>
