<?xml version="1.0" encoding="utf-8"?>
<!-- Generator: Adobe Illustrator 23.0.2, SVG Export Plug-In . SVG Version: 6.00 Build 0)  -->
<svg version="1.1" baseProfile="tiny" id="icon" xmlns="http://www.w3.org/2000/svg" xmlns:xlink="http://www.w3.org/1999/xlink"
	 x="0px" y="0px" viewBox="0 0 16 16" xml:space="preserve">
<path fill="#070606" d="M13.4,9.2c-0.6-0.3-1.2-0.2-1.7,0.2l-1-0.6C10.9,8.4,11,8,11,7.5s-0.1-0.9-0.3-1.3l1-0.6
	c0.5,0.4,1.2,0.5,1.7,0.2c0.7-0.4,1-1.3,0.5-2c-0.4-0.7-1.3-1-2-0.5c-0.6,0.3-0.8,1-0.7,1.6l-1,0.6C9.7,4.7,8.9,4.2,8,4.1V2.9
	c0.6-0.2,1-0.8,1-1.4C9,0.7,8.3,0,7.5,0S6,0.7,6,1.5c0,0.7,0.4,1.2,1,1.4v1.1C6.1,4.2,5.3,4.7,4.8,5.3l-1-0.6
	c0.1-0.6-0.2-1.2-0.7-1.6C2.3,2.8,1.4,3,1,3.8c-0.4,0.7-0.2,1.6,0.5,2C2.1,6.1,2.8,6,3.3,5.6l1,0.6C4.1,6.6,4,7,4,7.5
	s0.1,0.9,0.3,1.3l-1,0.6C2.8,9,2.1,8.9,1.6,9.2c-0.7,0.4-1,1.3-0.5,2c0.4,0.7,1.3,1,2,0.5c0.6-0.3,0.8-1,0.7-1.6l1-0.6
	c0.5,0.7,1.3,1.2,2.2,1.3v1.1c-0.6,0.2-1,0.8-1,1.4C6,14.3,6.7,15,7.5,15S9,14.3,9,13.5c0-0.7-0.4-1.2-1-1.4v-1.1
	c0.9-0.1,1.7-0.6,2.2-1.3l1,0.6c-0.1,0.6,0.2,1.2,0.7,1.6c0.7,0.4,1.6,0.2,2-0.5C14.4,10.5,14.2,9.6,13.4,9.2z M7.2,9
	c0.1,0,0.2,0,0.3,0s0.2,0,0.3,0C7.7,9.4,7.6,9.7,7.5,9.9C7.4,9.7,7.3,9.4,7.2,9z M7.5,8C7.3,8,7.2,8,7,8c0-0.2,0-0.3,0-0.5
	S7,7.2,7,7c0.2,0,0.3,0,0.5,0S7.8,7,8,7c0,0.2,0,0.3,0,0.5C8,7.7,8,7.8,8,8C7.8,8,7.7,8,7.5,8z M6,7.8C5.6,7.7,5.3,7.6,5.1,7.5
	C5.3,7.4,5.6,7.3,6,7.2c0,0.1,0,0.2,0,0.3S6,7.7,6,7.8z M7.8,6C7.7,6,7.6,6,7.5,6S7.3,6,7.2,6c0.1-0.4,0.2-0.7,0.3-0.9
	C7.6,5.3,7.7,5.6,7.8,6z M9,7.2c0.4,0.1,0.7,0.2,0.9,0.3C9.7,7.6,9.4,7.7,9,7.8c0-0.1,0-0.2,0-0.3S9,7.3,9,7.2z M9.7,6.3
	C9.5,6.3,9.2,6.2,8.9,6.1C8.8,5.8,8.7,5.5,8.7,5.3C9.1,5.5,9.5,5.9,9.7,6.3z M6.3,5.3C6.3,5.5,6.2,5.8,6.1,6.1
	C5.8,6.2,5.5,6.3,5.3,6.3C5.5,5.9,5.9,5.5,6.3,5.3z M5.3,8.7c0.3,0.1,0.5,0.2,0.8,0.2c0.1,0.3,0.1,0.6,0.2,0.8
	C5.9,9.5,5.5,9.1,5.3,8.7z M8.7,9.7c0.1-0.3,0.2-0.5,0.2-0.8c0.3-0.1,0.6-0.1,0.8-0.2C9.5,9.1,9.1,9.5,8.7,9.7z"/>
</svg>
