<?xml version="1.0" encoding="utf-8"?>
<!-- Generator: Adobe Illustrator 23.0.2, SVG Export Plug-In . SVG Version: 6.00 Build 0)  -->
<svg version="1.1" baseProfile="tiny" id="Layer_2" xmlns="http://www.w3.org/2000/svg" xmlns:xlink="http://www.w3.org/1999/xlink"
	 x="0px" y="0px" viewBox="0 0 16 16" xml:space="preserve">
<path d="M11.5,6C9.6,6,8,7.6,8,9.5S9.6,13,11.5,13S15,11.4,15,9.5S13.4,6,11.5,6z M12.5,10h-2C10.2,10,10,9.8,10,9.5
	C10,9.2,10.2,9,10.5,9h2C12.8,9,13,9.2,13,9.5C13,9.8,12.8,10,12.5,10z"/>
<g>
	<path d="M7,9.5C7,7,9,5,11.5,5c1.7,0,3.2,1,3.9,2.4c0.1-0.2,0.2-0.4,0.3-0.7c0.9-3.1-0.5-5-2.5-5.5c-2-0.6-4.4,0.3-5.2,2.1
		C7.2,1.5,4.8,0.6,2.8,1.2c-2,0.6-3.5,2.5-2.5,5.5c1.4,4,6.8,7.7,7.7,8.3c0.3-0.2,1-0.6,1.9-1.3C8.2,13,7,11.4,7,9.5z"/>
</g>
</svg>
