<?xml version="1.0" encoding="utf-8"?>
<!-- Generator: Adobe Illustrator 23.0.2, SVG Export Plug-In . SVG Version: 6.00 Build 0)  -->
<svg version="1.1" baseProfile="tiny" id="_x33_" xmlns="http://www.w3.org/2000/svg" xmlns:xlink="http://www.w3.org/1999/xlink"
	 x="0px" y="0px" viewBox="0 0 16 16" xml:space="preserve">
<path fill="#070606" d="M3,0H1C0.5,0,0,0.5,0,1v2c0,0.5,0.5,1,1,1h2c0.5,0,1-0.5,1-1V1C4,0.5,3.5,0,3,0z M3,3H1V1h2V3z"/>
<path fill="#070606" d="M15,0h-2c-0.5,0-1,0.5-1,1v2c0,0.5,0.5,1,1,1h2c0.5,0,1-0.5,1-1V1C16,0.5,15.5,0,15,0z M15,3h-2V1h2V3z"/>
<path fill="#070606" d="M9,0H7C6.5,0,6,0.5,6,1v2c0,0.5,0.5,1,1,1h2c0.5,0,1-0.5,1-1V1C10,0.5,9.5,0,9,0z M9,3H7V1h2V3z"/>
<path fill="#070606" d="M3,6H1C0.5,6,0,6.5,0,7v2c0,0.5,0.5,1,1,1h2c0.5,0,1-0.5,1-1V7C4,6.5,3.5,6,3,6z M3,9H1V7h2V9z"/>
<path fill="#070606" d="M15,6h-2c-0.5,0-1,0.5-1,1v2c0,0.5,0.5,1,1,1h2c0.5,0,1-0.5,1-1V7C16,6.5,15.5,6,15,6z M15,9h-2V7h2V9z"/>
<path fill="#070606" d="M9,6H7C6.5,6,6,6.5,6,7v2c0,0.5,0.5,1,1,1h2c0.5,0,1-0.5,1-1V7C10,6.5,9.5,6,9,6z M9,9H7V7h2V9z"/>
<path fill="#070606" d="M3,12H1c-0.5,0-1,0.5-1,1v2c0,0.5,0.5,1,1,1h2c0.5,0,1-0.5,1-1v-2C4,12.5,3.5,12,3,12z M3,15H1v-2h2V15z"/>
<path fill="#070606" d="M15,12h-2c-0.5,0-1,0.5-1,1v2c0,0.5,0.5,1,1,1h2c0.5,0,1-0.5,1-1v-2C16,12.5,15.5,12,15,12z M15,15h-2v-2h2
	V15z"/>
<path fill="#070606" d="M9,12H7c-0.5,0-1,0.5-1,1v2c0,0.5,0.5,1,1,1h2c0.5,0,1-0.5,1-1v-2C10,12.5,9.5,12,9,12z M9,15H7v-2h2V15z"/>
</svg>
