<?xml version="1.0" encoding="utf-8"?>
<svg version="1.1" baseProfile="tiny" id="_x31_" xmlns="http://www.w3.org/2000/svg" xmlns:xlink="http://www.w3.org/1999/xlink"
	 x="0px" y="0px" viewBox="0 0 16 16" xml:space="preserve">
<g id="1">	 
	<path d="M5,0H2C0.9,0,0,0.9,0,2v3c0,1.1,0.9,2,2,2h3c1.1,0,2-0.9,2-2V2C7,0.9,6.1,0,5,0z M6,5c0,0.6-0.4,1-1,1H2
		C1.4,6,1,5.6,1,5V2c0-0.6,0.4-1,1-1h3c0.6,0,1,0.4,1,1V5z"/>
	<path d="M13.5,3h-4C9.2,3,9,2.8,9,2.5v0C9,2.2,9.2,2,9.5,2h4C13.8,2,14,2.2,14,2.5v0C14,2.8,13.8,3,13.5,3z"/>
	<path d="M11.5,5h-2C9.2,5,9,4.8,9,4.5v0C9,4.2,9.2,4,9.5,4h2C11.8,4,12,4.2,12,4.5v0C12,4.8,11.8,5,11.5,5z"/>
	<path d="M5,9H2c-1.1,0-2,0.9-2,2v3c0,1.1,0.9,2,2,2h3c1.1,0,2-0.9,2-2v-3C7,9.9,6.1,9,5,9z M6,14c0,0.6-0.4,1-1,1H2
		c-0.6,0-1-0.4-1-1v-3c0-0.6,0.4-1,1-1h3c0.6,0,1,0.4,1,1V14z"/>
	<path d="M13.5,12h-4C9.2,12,9,11.8,9,11.5v0C9,11.2,9.2,11,9.5,11h4c0.3,0,0.5,0.2,0.5,0.5v0
		C14,11.8,13.8,12,13.5,12z"/>
	<path d="M11.5,14h-2C9.2,14,9,13.8,9,13.5v0C9,13.2,9.2,13,9.5,13h2c0.3,0,0.5,0.2,0.5,0.5v0
		C12,13.8,11.8,14,11.5,14z"/>
</g>	
<g id="2">
	<path d="M5,0H2C0.9,0,0,0.9,0,2v3c0,1.1,0.9,2,2,2h3c1.1,0,2-0.9,2-2V2C7,0.9,6.1,0,5,0z M6,5c0,0.6-0.4,1-1,1H2
	C1.4,6,1,5.6,1,5V2c0-0.6,0.4-1,1-1h3c0.6,0,1,0.4,1,1V5z"/>
<path d="M14,0h-3C9.9,0,9,0.9,9,2v3c0,1.1,0.9,2,2,2h3c1.1,0,2-0.9,2-2V2C16,0.9,15.1,0,14,0z M15,5c0,0.6-0.4,1-1,1
	h-3c-0.6,0-1-0.4-1-1V2c0-0.6,0.4-1,1-1h3c0.6,0,1,0.4,1,1V5z"/>
<path d="M5,9H2c-1.1,0-2,0.9-2,2v3c0,1.1,0.9,2,2,2h3c1.1,0,2-0.9,2-2v-3C7,9.9,6.1,9,5,9z M6,14c0,0.6-0.4,1-1,1H2
	c-0.6,0-1-0.4-1-1v-3c0-0.6,0.4-1,1-1h3c0.6,0,1,0.4,1,1V14z"/>
<path d="M14,9h-3c-1.1,0-2,0.9-2,2v3c0,1.1,0.9,2,2,2h3c1.1,0,2-0.9,2-2v-3C16,9.9,15.1,9,14,9z M15,14
	c0,0.6-0.4,1-1,1h-3c-0.6,0-1-0.4-1-1v-3c0-0.6,0.4-1,1-1h3c0.6,0,1,0.4,1,1V14z"/>
</g>	
<g id="3">
	<path d="M3,0H1C0.5,0,0,0.5,0,1v2c0,0.5,0.5,1,1,1h2c0.5,0,1-0.5,1-1V1C4,0.5,3.5,0,3,0z M3,3H1V1h2V3z"/>
	<path d="M15,0h-2c-0.5,0-1,0.5-1,1v2c0,0.5,0.5,1,1,1h2c0.5,0,1-0.5,1-1V1C16,0.5,15.5,0,15,0z M15,3h-2V1h2V3z"/>
	<path d="M9,0H7C6.5,0,6,0.5,6,1v2c0,0.5,0.5,1,1,1h2c0.5,0,1-0.5,1-1V1C10,0.5,9.5,0,9,0z M9,3H7V1h2V3z"/>
	<path d="M3,6H1C0.5,6,0,6.5,0,7v2c0,0.5,0.5,1,1,1h2c0.5,0,1-0.5,1-1V7C4,6.5,3.5,6,3,6z M3,9H1V7h2V9z"/>
	<path d="M15,6h-2c-0.5,0-1,0.5-1,1v2c0,0.5,0.5,1,1,1h2c0.5,0,1-0.5,1-1V7C16,6.5,15.5,6,15,6z M15,9h-2V7h2V9z"/>
	<path d="M9,6H7C6.5,6,6,6.5,6,7v2c0,0.5,0.5,1,1,1h2c0.5,0,1-0.5,1-1V7C10,6.5,9.5,6,9,6z M9,9H7V7h2V9z"/>
	<path d="M3,12H1c-0.5,0-1,0.5-1,1v2c0,0.5,0.5,1,1,1h2c0.5,0,1-0.5,1-1v-2C4,12.5,3.5,12,3,12z M3,15H1v-2h2V15z"/>
	<path d="M15,12h-2c-0.5,0-1,0.5-1,1v2c0,0.5,0.5,1,1,1h2c0.5,0,1-0.5,1-1v-2C16,12.5,15.5,12,15,12z M15,15h-2v-2h2
		V15z"/>
	<path d="M9,12H7c-0.5,0-1,0.5-1,1v2c0,0.5,0.5,1,1,1h2c0.5,0,1-0.5,1-1v-2C10,12.5,9.5,12,9,12z M9,15H7v-2h2V15z"/>
</g>
<g id="4">
	<path d="M2,0H1C0.5,0,0,0.5,0,1v1c0,0.5,0.5,1,1,1h1c0.5,0,1-0.5,1-1V1C3,0.5,2.5,0,2,0z M2,2H1V1h1V2z"/>
	<path d="M14,0h-1c-0.5,0-1,0.5-1,1v1c0,0.5,0.5,1,1,1h1c0.5,0,1-0.5,1-1V1C15,0.5,14.5,0,14,0z M14,2h-1V1h1V2z"/>
	<path d="M10,0H9C8.5,0,8,0.5,8,1v1c0,0.5,0.5,1,1,1h1c0.5,0,1-0.5,1-1V1C11,0.5,10.5,0,10,0z M10,2H9V1h1V2z"/>
	<path d="M6,0H5C4.5,0,4,0.5,4,1v1c0,0.5,0.5,1,1,1h1c0.5,0,1-0.5,1-1V1C7,0.5,6.5,0,6,0z M6,2H5V1h1V2z"/>
	<path d="M2,12H1c-0.5,0-1,0.5-1,1v1c0,0.5,0.5,1,1,1h1c0.5,0,1-0.5,1-1v-1C3,12.5,2.5,12,2,12z M2,14H1v-1h1V14z"/>
	<path d="M14,12h-1c-0.5,0-1,0.5-1,1v1c0,0.5,0.5,1,1,1h1c0.5,0,1-0.5,1-1v-1C15,12.5,14.5,12,14,12z M14,14h-1v-1h1
		V14z"/>
	<path d="M10,12H9c-0.5,0-1,0.5-1,1v1c0,0.5,0.5,1,1,1h1c0.5,0,1-0.5,1-1v-1C11,12.5,10.5,12,10,12z M10,14H9v-1h1V14
		z"/>
	<path d="M6,12H5c-0.5,0-1,0.5-1,1v1c0,0.5,0.5,1,1,1h1c0.5,0,1-0.5,1-1v-1C7,12.5,6.5,12,6,12z M6,14H5v-1h1V14z"/>
	<path d="M2,8H1C0.5,8,0,8.5,0,9v1c0,0.5,0.5,1,1,1h1c0.5,0,1-0.5,1-1V9C3,8.5,2.5,8,2,8z M2,10H1V9h1V10z"/>
	<path d="M14,8h-1c-0.5,0-1,0.5-1,1v1c0,0.5,0.5,1,1,1h1c0.5,0,1-0.5,1-1V9C15,8.5,14.5,8,14,8z M14,10h-1V9h1V10z"/>
	<path d="M10,8H9C8.5,8,8,8.5,8,9v1c0,0.5,0.5,1,1,1h1c0.5,0,1-0.5,1-1V9C11,8.5,10.5,8,10,8z M10,10H9V9h1V10z"/>
	<path d="M6,8H5C4.5,8,4,8.5,4,9v1c0,0.5,0.5,1,1,1h1c0.5,0,1-0.5,1-1V9C7,8.5,6.5,8,6,8z M6,10H5V9h1V10z"/>
	<path d="M2,4H1C0.5,4,0,4.5,0,5v1c0,0.5,0.5,1,1,1h1c0.5,0,1-0.5,1-1V5C3,4.5,2.5,4,2,4z M2,6H1V5h1V6z"/>
	<path d="M14,4h-1c-0.5,0-1,0.5-1,1v1c0,0.5,0.5,1,1,1h1c0.5,0,1-0.5,1-1V5C15,4.5,14.5,4,14,4z M14,6h-1V5h1V6z"/>
	<path d="M10,4H9C8.5,4,8,4.5,8,5v1c0,0.5,0.5,1,1,1h1c0.5,0,1-0.5,1-1V5C11,4.5,10.5,4,10,4z M10,6H9V5h1V6z"/>
	<path d="M6,4H5C4.5,4,4,4.5,4,5v1c0,0.5,0.5,1,1,1h1c0.5,0,1-0.5,1-1V5C7,4.5,6.5,4,6,4z M6,6H5V5h1V6z"/>
</g>
</svg>
