<?xml version="1.0" encoding="utf-8"?>
<!-- Generator: Adobe Illustrator 23.0.2, SVG Export Plug-In . SVG Version: 6.00 Build 0)  -->
<svg version="1.1" baseProfile="tiny" id="_x32_" xmlns="http://www.w3.org/2000/svg" xmlns:xlink="http://www.w3.org/1999/xlink"
	 x="0px" y="0px" viewBox="0 0 16 16" xml:space="preserve">
<path fill="#070606" d="M5,0H2C0.9,0,0,0.9,0,2v3c0,1.1,0.9,2,2,2h3c1.1,0,2-0.9,2-2V2C7,0.9,6.1,0,5,0z M6,5c0,0.6-0.4,1-1,1H2
	C1.4,6,1,5.6,1,5V2c0-0.6,0.4-1,1-1h3c0.6,0,1,0.4,1,1V5z"/>
<path fill="#070606" d="M14,0h-3C9.9,0,9,0.9,9,2v3c0,1.1,0.9,2,2,2h3c1.1,0,2-0.9,2-2V2C16,0.9,15.1,0,14,0z M15,5c0,0.6-0.4,1-1,1
	h-3c-0.6,0-1-0.4-1-1V2c0-0.6,0.4-1,1-1h3c0.6,0,1,0.4,1,1V5z"/>
<path fill="#070606" d="M5,9H2c-1.1,0-2,0.9-2,2v3c0,1.1,0.9,2,2,2h3c1.1,0,2-0.9,2-2v-3C7,9.9,6.1,9,5,9z M6,14c0,0.6-0.4,1-1,1H2
	c-0.6,0-1-0.4-1-1v-3c0-0.6,0.4-1,1-1h3c0.6,0,1,0.4,1,1V14z"/>
<path fill="#070606" d="M14,9h-3c-1.1,0-2,0.9-2,2v3c0,1.1,0.9,2,2,2h3c1.1,0,2-0.9,2-2v-3C16,9.9,15.1,9,14,9z M15,14
	c0,0.6-0.4,1-1,1h-3c-0.6,0-1-0.4-1-1v-3c0-0.6,0.4-1,1-1h3c0.6,0,1,0.4,1,1V14z"/>
</svg>
