<?xml version="1.0" encoding="utf-8"?>
<!-- Generator: Adobe Illustrator 23.0.2, SVG Export Plug-In . SVG Version: 6.00 Build 0)  -->
<svg version="1.1" baseProfile="tiny" id="_x31_" xmlns="http://www.w3.org/2000/svg" xmlns:xlink="http://www.w3.org/1999/xlink"
	 x="0px" y="0px" viewBox="0 0 16 16" xml:space="preserve">
<path fill="#070606" d="M5,0H2C0.9,0,0,0.9,0,2v3c0,1.1,0.9,2,2,2h3c1.1,0,2-0.9,2-2V2C7,0.9,6.1,0,5,0z M6,5c0,0.6-0.4,1-1,1H2
	C1.4,6,1,5.6,1,5V2c0-0.6,0.4-1,1-1h3c0.6,0,1,0.4,1,1V5z"/>
<path fill="#070606" d="M13.5,3h-4C9.2,3,9,2.8,9,2.5v0C9,2.2,9.2,2,9.5,2h4C13.8,2,14,2.2,14,2.5v0C14,2.8,13.8,3,13.5,3z"/>
<path fill="#070606" d="M11.5,5h-2C9.2,5,9,4.8,9,4.5v0C9,4.2,9.2,4,9.5,4h2C11.8,4,12,4.2,12,4.5v0C12,4.8,11.8,5,11.5,5z"/>
<path fill="#070606" d="M5,9H2c-1.1,0-2,0.9-2,2v3c0,1.1,0.9,2,2,2h3c1.1,0,2-0.9,2-2v-3C7,9.9,6.1,9,5,9z M6,14c0,0.6-0.4,1-1,1H2
	c-0.6,0-1-0.4-1-1v-3c0-0.6,0.4-1,1-1h3c0.6,0,1,0.4,1,1V14z"/>
<path fill="#070606" d="M13.5,12h-4C9.2,12,9,11.8,9,11.5v0C9,11.2,9.2,11,9.5,11h4c0.3,0,0.5,0.2,0.5,0.5v0
	C14,11.8,13.8,12,13.5,12z"/>
<path fill="#070606" d="M11.5,14h-2C9.2,14,9,13.8,9,13.5v0C9,13.2,9.2,13,9.5,13h2c0.3,0,0.5,0.2,0.5,0.5v0
	C12,13.8,11.8,14,11.5,14z"/>
</svg>
