<?xml version="1.0" encoding="utf-8"?>
<!-- Generator: Adobe Illustrator 23.0.2, SVG Export Plug-In . SVG Version: 6.00 Build 0)  -->
<svg version="1.1" baseProfile="tiny" id="_x34_" xmlns="http://www.w3.org/2000/svg" xmlns:xlink="http://www.w3.org/1999/xlink"
	 x="0px" y="0px" viewBox="0 0 16 16" xml:space="preserve">
<path fill="#070606" d="M2,0H1C0.5,0,0,0.5,0,1v1c0,0.5,0.5,1,1,1h1c0.5,0,1-0.5,1-1V1C3,0.5,2.5,0,2,0z M2,2H1V1h1V2z"/>
<path fill="#070606" d="M14,0h-1c-0.5,0-1,0.5-1,1v1c0,0.5,0.5,1,1,1h1c0.5,0,1-0.5,1-1V1C15,0.5,14.5,0,14,0z M14,2h-1V1h1V2z"/>
<path fill="#070606" d="M10,0H9C8.5,0,8,0.5,8,1v1c0,0.5,0.5,1,1,1h1c0.5,0,1-0.5,1-1V1C11,0.5,10.5,0,10,0z M10,2H9V1h1V2z"/>
<path fill="#070606" d="M6,0H5C4.5,0,4,0.5,4,1v1c0,0.5,0.5,1,1,1h1c0.5,0,1-0.5,1-1V1C7,0.5,6.5,0,6,0z M6,2H5V1h1V2z"/>
<path fill="#070606" d="M2,12H1c-0.5,0-1,0.5-1,1v1c0,0.5,0.5,1,1,1h1c0.5,0,1-0.5,1-1v-1C3,12.5,2.5,12,2,12z M2,14H1v-1h1V14z"/>
<path fill="#070606" d="M14,12h-1c-0.5,0-1,0.5-1,1v1c0,0.5,0.5,1,1,1h1c0.5,0,1-0.5,1-1v-1C15,12.5,14.5,12,14,12z M14,14h-1v-1h1
	V14z"/>
<path fill="#070606" d="M10,12H9c-0.5,0-1,0.5-1,1v1c0,0.5,0.5,1,1,1h1c0.5,0,1-0.5,1-1v-1C11,12.5,10.5,12,10,12z M10,14H9v-1h1V14
	z"/>
<path fill="#070606" d="M6,12H5c-0.5,0-1,0.5-1,1v1c0,0.5,0.5,1,1,1h1c0.5,0,1-0.5,1-1v-1C7,12.5,6.5,12,6,12z M6,14H5v-1h1V14z"/>
<path fill="#070606" d="M2,8H1C0.5,8,0,8.5,0,9v1c0,0.5,0.5,1,1,1h1c0.5,0,1-0.5,1-1V9C3,8.5,2.5,8,2,8z M2,10H1V9h1V10z"/>
<path fill="#070606" d="M14,8h-1c-0.5,0-1,0.5-1,1v1c0,0.5,0.5,1,1,1h1c0.5,0,1-0.5,1-1V9C15,8.5,14.5,8,14,8z M14,10h-1V9h1V10z"/>
<path fill="#070606" d="M10,8H9C8.5,8,8,8.5,8,9v1c0,0.5,0.5,1,1,1h1c0.5,0,1-0.5,1-1V9C11,8.5,10.5,8,10,8z M10,10H9V9h1V10z"/>
<path fill="#070606" d="M6,8H5C4.5,8,4,8.5,4,9v1c0,0.5,0.5,1,1,1h1c0.5,0,1-0.5,1-1V9C7,8.5,6.5,8,6,8z M6,10H5V9h1V10z"/>
<path fill="#070606" d="M2,4H1C0.5,4,0,4.5,0,5v1c0,0.5,0.5,1,1,1h1c0.5,0,1-0.5,1-1V5C3,4.5,2.5,4,2,4z M2,6H1V5h1V6z"/>
<path fill="#070606" d="M14,4h-1c-0.5,0-1,0.5-1,1v1c0,0.5,0.5,1,1,1h1c0.5,0,1-0.5,1-1V5C15,4.5,14.5,4,14,4z M14,6h-1V5h1V6z"/>
<path fill="#070606" d="M10,4H9C8.5,4,8,4.5,8,5v1c0,0.5,0.5,1,1,1h1c0.5,0,1-0.5,1-1V5C11,4.5,10.5,4,10,4z M10,6H9V5h1V6z"/>
<path fill="#070606" d="M6,4H5C4.5,4,4,4.5,4,5v1c0,0.5,0.5,1,1,1h1c0.5,0,1-0.5,1-1V5C7,4.5,6.5,4,6,4z M6,6H5V5h1V6z"/>
</svg>
