<svg xmlns="http://www.w3.org/2000/svg" xmlns:xlink="http://www.w3.org/1999/xlink"><defs><symbol viewBox="0 0 448 512" id="arrow-right"><path d="m216.464 36.465-7.071 7.07c-4.686 4.686-4.686 12.284 0 16.971L387.887 239H12c-6.627 0-12 5.373-12 12v10c0 6.627 5.373 12 12 12h375.887L209.393 451.494c-4.686 4.686-4.686 12.284 0 16.971l7.071 7.07c4.686 4.686 12.284 4.686 16.97 0l211.051-211.05c4.686-4.686 4.686-12.284 0-16.971L233.434 36.465c-4.686-4.687-12.284-4.687-16.97 0z" /></symbol><symbol viewBox="0 0 512 512" id="cog"><path d="m482.696 299.276-32.61-18.827a195.168 195.168 0 0 0 0-48.899l32.61-18.827c9.576-5.528 14.195-16.902 11.046-27.501-11.214-37.749-31.175-71.728-57.535-99.595-7.634-8.07-19.817-9.836-29.437-4.282l-32.562 18.798a194.125 194.125 0 0 0-42.339-24.48V38.049c0-11.13-7.652-20.804-18.484-23.367-37.644-8.909-77.118-8.91-114.77 0-10.831 2.563-18.484 12.236-18.484 23.367v37.614a194.101 194.101 0 0 0-42.339 24.48L105.23 81.345c-9.621-5.554-21.804-3.788-29.437 4.282-26.36 27.867-46.321 61.847-57.535 99.595-3.149 10.599 1.47 21.972 11.046 27.501l32.61 18.827a195.168 195.168 0 0 0 0 48.899l-32.61 18.827c-9.576 5.528-14.195 16.902-11.046 27.501 11.214 37.748 31.175 71.728 57.535 99.595 7.634 8.07 19.817 9.836 29.437 4.283l32.562-18.798a194.08 194.08 0 0 0 42.339 24.479v37.614c0 11.13 7.652 20.804 18.484 23.367 37.645 8.909 77.118 8.91 114.77 0 10.831-2.563 18.484-12.236 18.484-23.367v-37.614a194.138 194.138 0 0 0 42.339-24.479l32.562 18.798c9.62 5.554 21.803 3.788 29.437-4.283 26.36-27.867 46.321-61.847 57.535-99.595 3.149-10.599-1.47-21.972-11.046-27.501zm-65.479 100.461-46.309-26.74c-26.988 23.071-36.559 28.876-71.039 41.059v53.479a217.145 217.145 0 0 1-87.738 0v-53.479c-33.621-11.879-43.355-17.395-71.039-41.059l-46.309 26.74c-19.71-22.09-34.689-47.989-43.929-75.958l46.329-26.74c-6.535-35.417-6.538-46.644 0-82.079l-46.329-26.74c9.24-27.969 24.22-53.869 43.929-75.969l46.309 26.76c27.377-23.434 37.063-29.065 71.039-41.069V44.464a216.79 216.79 0 0 1 87.738 0v53.479c33.978 12.005 43.665 17.637 71.039 41.069l46.309-26.76c19.709 22.099 34.689 47.999 43.929 75.969l-46.329 26.74c6.536 35.426 6.538 46.644 0 82.079l46.329 26.74c-9.24 27.968-24.219 53.868-43.929 75.957zM256 160c-52.935 0-96 43.065-96 96s43.065 96 96 96 96-43.065 96-96-43.065-96-96-96zm0 160c-35.29 0-64-28.71-64-64s28.71-64 64-64 64 28.71 64 64-28.71 64-64 64z" /></symbol><symbol viewBox="0 0 512 512" id="list-ul"><path d="M32.39 224C14.73 224 0 238.33 0 256s14.73 32 32.39 32a32 32 0 0 0 0-64zm0-160C14.73 64 0 78.33 0 96s14.73 32 32.39 32a32 32 0 0 0 0-64zm0 320C14.73 384 0 398.33 0 416s14.73 32 32.39 32a32 32 0 0 0 0-64zM504 80H136a8 8 0 0 0-8 8v16a8 8 0 0 0 8 8h368a8 8 0 0 0 8-8V88a8 8 0 0 0-8-8zm0 160H136a8 8 0 0 0-8 8v16a8 8 0 0 0 8 8h368a8 8 0 0 0 8-8v-16a8 8 0 0 0-8-8zm0 160H136a8 8 0 0 0-8 8v16a8 8 0 0 0 8 8h368a8 8 0 0 0 8-8v-16a8 8 0 0 0-8-8z" /></symbol><symbol viewBox="0 0 512 512" id="stars"><path d="m509.053 219.039-39.713-16.57-16.559-39.738a5.325 5.325 0 0 0-9.54 0l-16.561 39.738-39.711 16.57a5.34 5.34 0 0 0 0 9.547l39.71 16.571 16.561 39.737a5.324 5.324 0 0 0 9.541 0l16.559-39.737 39.713-16.571a5.34 5.34 0 0 0 0-9.548ZM364.3 267.08l-104.919-15.302-46.912-95.229a22.735 22.735 0 0 0-20.596-12.788 22.406 22.406 0 0 0-20.503 12.788l-46.912 95.23L19.632 267.08C.85 269.766-6.652 293.062 6.943 306.349l75.916 74.057-18.002 104.613A23.003 23.003 0 0 0 87.453 512a22.6 22.6 0 0 0 10.69-2.686l93.823-49.37 93.825 49.37A23.383 23.383 0 0 0 296.386 512a23.095 23.095 0 0 0 22.69-26.887L301.168 380.5l75.915-74.057c13.596-13.381 6.001-36.568-12.783-39.363Zm-97.512 102.209 17.596 103.145-92.511-48.778-92.512 48.778 17.596-103.145-74.697-73.136 103.388-15.083 46.318-93.84 46.194 93.84 103.419 15.083Zm156.4-287.959-48.594-24.313-24.281-48.844c-5.407-10.897-23.22-10.897-28.625 0l-24.282 48.641-48.594 24.313A16.047 16.047 0 0 0 240 95.433a16.463 16.463 0 0 0 8.813 14.51l48.593 24.312 24.281 48.641A16.07 16.07 0 0 0 336 191.792a15.874 15.874 0 0 0 14.313-8.896l24.28-48.641 48.594-24.313a16.018 16.018 0 0 0 0-28.612ZM355.5 107.941a16.193 16.193 0 0 0-7.188 7.208L336 139.869l-12.313-24.72a16.757 16.757 0 0 0-7.187-7.208l-24.688-12.399L316.5 83.128a16.116 16.116 0 0 0 7.188-7.208L336 51.201l12.313 24.72a16.592 16.592 0 0 0 7.187 7.207l24.688 12.414Z" /></symbol><symbol viewBox="0 0 512 512" id="sync"><path d="M492 8h-10c-6.627 0-12 5.373-12 12v110.627C426.929 57.261 347.224 8 256 8 123.228 8 14.824 112.338 8.31 243.493 7.971 250.311 13.475 256 20.301 256h10.016c6.353 0 11.646-4.949 11.977-11.293C48.157 132.216 141.097 42 256 42c82.862 0 154.737 47.077 190.289 116H332c-6.627 0-12 5.373-12 12v10c0 6.627 5.373 12 12 12h160c6.627 0 12-5.373 12-12V20c0-6.627-5.373-12-12-12zm-.301 248h-10.015c-6.352 0-11.647 4.949-11.977 11.293C463.841 380.158 370.546 470 256 470c-82.608 0-154.672-46.952-190.299-116H180c6.627 0 12-5.373 12-12v-10c0-6.627-5.373-12-12-12H20c-6.627 0-12 5.373-12 12v160c0 6.627 5.373 12 12 12h10c6.627 0 12-5.373 12-12V381.373C85.071 454.739 164.777 504 256 504c132.773 0 241.176-104.338 247.69-235.493.339-6.818-5.165-12.507-11.991-12.507z" /></symbol><symbol viewBox="0 0 576 512" id="tachometer-alt-fast"><path d="M120 320c0 13.26-10.74 24-24 24s-24-10.74-24-24 10.74-24 24-24 24 10.74 24 24zm168-168c13.26 0 24-10.74 24-24s-10.74-24-24-24-24 10.74-24 24 10.74 24 24 24zm-136 8c-13.26 0-24 10.74-24 24s10.74 24 24 24 24-10.74 24-24-10.74-24-24-24zm282.06 11.56c6.88 5.56 7.94 15.64 2.38 22.5l-97.14 120C347.18 324.7 352 337.74 352 352c0 35.35-28.65 64-64 64s-64-28.65-64-64 28.65-64 64-64c9.47 0 18.38 2.18 26.47 5.88l97.09-119.94c5.56-6.88 15.6-7.92 22.5-2.38zM320 352c0-17.67-14.33-32-32-32s-32 14.33-32 32 14.33 32 32 32 32-14.33 32-32zm160-56c-13.26 0-24 10.74-24 24s10.74 24 24 24 24-10.74 24-24-10.74-24-24-24zm96 24c0 52.8-14.25 102.26-39.06 144.8-5.61 9.62-16.3 15.2-27.44 15.2h-443c-11.14 0-21.83-5.58-27.44-15.2C14.25 422.26 0 372.8 0 320 0 160.94 128.94 32 288 32s288 128.94 288 288zm-32 0c0-141.16-114.84-256-256-256S32 178.84 32 320c0 45.26 12 89.75 34.7 128.68l442.8-.68C532 409.75 544 365.26 544 320z" /></symbol></defs></svg>