<svg xmlns="http://www.w3.org/2000/svg" xmlns:xlink="http://www.w3.org/1999/xlink"><defs><symbol viewBox="0 0 448 512" id="arrow-left"><path d="m229.9 473.899 19.799-19.799c4.686-4.686 4.686-12.284 0-16.971L94.569 282H436c6.627 0 12-5.373 12-12v-28c0-6.627-5.373-12-12-12H94.569l155.13-155.13c4.686-4.686 4.686-12.284 0-16.971L229.9 38.101c-4.686-4.686-12.284-4.686-16.971 0L3.515 247.515c-4.686 4.686-4.686 12.284 0 16.971L212.929 473.9c4.686 4.686 12.284 4.686 16.971-.001z" /></symbol><symbol viewBox="0 0 448 512" id="arrow-right"><path d="M218.101 38.101 198.302 57.9c-4.686 4.686-4.686 12.284 0 16.971L353.432 230H12c-6.627 0-12 5.373-12 12v28c0 6.627 5.373 12 12 12h341.432l-155.13 155.13c-4.686 4.686-4.686 12.284 0 16.971l19.799 19.799c4.686 4.686 12.284 4.686 16.971 0l209.414-209.414c4.686-4.686 4.686-12.284 0-16.971L235.071 38.101c-4.686-4.687-12.284-4.687-16.97 0z" /></symbol><symbol viewBox="0 0 512 512" id="check"><path d="M435.848 83.466 172.804 346.51l-96.652-96.652c-4.686-4.686-12.284-4.686-16.971 0l-28.284 28.284c-4.686 4.686-4.686 12.284 0 16.971l133.421 133.421c4.686 4.686 12.284 4.686 16.971 0l299.813-299.813c4.686-4.686 4.686-12.284 0-16.971l-28.284-28.284c-4.686-4.686-12.284-4.686-16.97 0z" /></symbol><symbol viewBox="0 0 448 512" id="check-square"><path d="M400 32H48C21.49 32 0 53.49 0 80v352c0 26.51 21.49 48 48 48h352c26.51 0 48-21.49 48-48V80c0-26.51-21.49-48-48-48zm0 400H48V80h352v352zm-35.864-241.724L191.547 361.48c-4.705 4.667-12.303 4.637-16.97-.068l-90.781-91.516c-4.667-4.705-4.637-12.303.069-16.971l22.719-22.536c4.705-4.667 12.303-4.637 16.97.069l59.792 60.277 141.352-140.216c4.705-4.667 12.303-4.637 16.97.068l22.536 22.718c4.667 4.706 4.637 12.304-.068 16.971z" /></symbol><symbol viewBox="0 0 512 512" id="external-link"><path d="M497.6 0 334.4.17a14.4 14.4 0 0 0-14.4 14.4v33.31a14.4 14.4 0 0 0 14.69 14.4l73.63-2.72 2.06 2.06-278.86 278.87a12 12 0 0 0 0 17l23 23a12 12 0 0 0 17 0l278.86-278.87 2.06 2.06-2.72 73.63a14.4 14.4 0 0 0 14.4 14.69h33.31a14.4 14.4 0 0 0 14.4-14.4L512 14.4A14.4 14.4 0 0 0 497.6 0ZM432 288h-16a16 16 0 0 0-16 16v154a6 6 0 0 1-6 6H54a6 6 0 0 1-6-6V118a6 6 0 0 1 6-6h154a16 16 0 0 0 16-16V80a16 16 0 0 0-16-16H48a48 48 0 0 0-48 48v352a48 48 0 0 0 48 48h352a48 48 0 0 0 48-48V304a16 16 0 0 0-16-16Z" /></symbol><symbol viewBox="0 0 640 512" id="store-alt"><path d="m635.7 176.1-91.4-160C538.6 6.2 528 0 516.5 0h-393C112 0 101.4 6.2 95.7 16.1l-91.4 160C-7.9 197.5 7.4 224 32 224h32v252.8c0 19.4 14.3 35.2 32 35.2h256c17.7 0 32-15.8 32-35.2V224h144v272c0 8.8 7.2 16 16 16h16c8.8 0 16-7.2 16-16V224h32c24.6 0 39.9-26.5 27.7-47.9zM336 464H112v-95.8h224V464zm0-143.8H112V224h224v96.2zM59.6 176l73.1-128h374.5l73.1 128H59.6z" /></symbol><symbol viewBox="0 0 320 512" id="times"><path d="m207.6 256 107.72-107.72c6.23-6.23 6.23-16.34 0-22.58l-25.03-25.03c-6.23-6.23-16.34-6.23-22.58 0L160 208.4 52.28 100.68c-6.23-6.23-16.34-6.23-22.58 0L4.68 125.7c-6.23 6.23-6.23 16.34 0 22.58L112.4 256 4.68 363.72c-6.23 6.23-6.23 16.34 0 22.58l25.03 25.03c6.23 6.23 16.34 6.23 22.58 0L160 303.6l107.72 107.72c6.23 6.23 16.34 6.23 22.58 0l25.03-25.03c6.23-6.23 6.23-16.34 0-22.58L207.6 256z" /></symbol><symbol viewBox="0 0 512 512" id="user-alt"><path d="M384 336c-40.6 0-47.6-1.5-72.2 6.8-17.5 5.9-36.3 9.2-55.8 9.2s-38.3-3.3-55.8-9.2c-24.6-8.3-31.5-6.8-72.2-6.8C57.3 336 0 393.3 0 464v16c0 17.7 14.3 32 32 32h448c17.7 0 32-14.3 32-32v-16c0-70.7-57.3-128-128-128zm80 128H48c0-21.4 8.3-41.5 23.4-56.6C86.5 392.3 106.6 384 128 384c41.1 0 41-1.1 56.8 4.2 23 7.8 47 11.8 71.2 11.8 24.2 0 48.2-4 71.2-11.8 15.8-5.4 15.7-4.2 56.8-4.2 44.1 0 80 35.9 80 80zM256 320c88.4 0 160-71.6 160-160S344.4 0 256 0 96 71.6 96 160s71.6 160 160 160zm0-272c61.8 0 112 50.2 112 112s-50.2 112-112 112-112-50.2-112-112S194.2 48 256 48z" /></symbol></defs></svg>