<svg viewBox="0 0 24 24" xmlns="http://www.w3.org/2000/svg"><path d="M12 23.625c6.422 0 11.625-5.203 11.625-11.625S18.422.375 12 .375.375 5.578.375 12 5.578 23.625 12 23.625zm0-1.5C6.436 22.125 1.875 17.62 1.875 12 1.875 6.436 6.38 1.875 12 1.875c5.564 0 10.125 4.505 10.125 10.125 0 5.564-4.505 10.125-10.125 10.125zm-3.248-5.681L12 13.195l3.248 3.249c.22.22.577.22.797 0l.399-.399a.563.563 0 000-.797L13.195 12l3.249-3.248a.572.572 0 000-.797l-.399-.399a.563.563 0 00-.797 0L12 10.805 8.752 7.556a.563.563 0 00-.797 0l-.399.399a.563.563 0 000 .797L10.805 12l-3.249 3.248a.563.563 0 000 .797l.399.399c.22.22.576.22.797 0z" fill="#000" fill-rule="nonzero"/></svg>