<svg viewBox="0 0 96 96" xmlns="http://www.w3.org/2000/svg"><path d="M51.55 15.59c2.188 0 4.248.9 5.793 2.443.901.9 1.545 2.057 1.93 3.214 1.288-.771 2.704-1.157 4.25-1.157 1.93 0 3.733.643 5.149 1.8l.204.179c1.522 1.383 2.124 3.057 2.37 3.55v.257c.644 2.186.387 4.5-.772 6.429a7.455 7.455 0 013.218 1.929c3.219 3.214 3.219 8.486 0 11.7l-1.93 1.929c1.158.514 2.06 1.028 2.96 1.928 1.288 1.158 2.06 2.7 2.317 4.372.387 2.572-.514 5.272-2.188 7.072L51.164 84.893l-1.803 1.8c-5.535 5.53-12.745 8.486-20.469 8.486a28.955 28.955 0 01-20.469-8.486C.57 78.85-2.004 67.535 1.6 56.992v-.257l11.973-28.802c.9-2.057 2.446-3.6 4.505-4.5a8.295 8.295 0 013.09-.643c1.159 0 2.189.257 3.218.643 1.03.386 1.931 1.029 2.704 1.8 2.446 2.443 3.09 5.915 1.802 9 0 .13-.129.258-.129.386l16.994-16.586C47.3 16.49 49.36 15.59 51.55 15.59zm-.129 4.5a3.52 3.52 0 00-2.446 1.029L31.081 38.99l-4.377 4.372-7.08 7.071c-.516.515-.902.772-1.288.772-.773 0-1.159-.9-.773-1.929.644-1.543 6.823-16.844 6.823-16.844.515-1.285.258-2.7-.772-3.728-.386-.386-.772-.643-1.159-.772-.386-.128-.9-.257-1.287-.257-.386 0-.901.129-1.287.257-.773.257-1.416.9-1.803 1.8L6.106 58.535c-2.961 8.743-.773 18.258 5.793 24.815 4.635 4.758 10.814 7.072 16.993 7.072 6.18 0 12.359-2.443 16.993-7.072l1.803-1.8 23.558-23.658c.902-.772 1.159-1.929 1.03-3.086-.128-.643-.386-1.286-.9-1.8a3.52 3.52 0 00-2.447-1.029 3.52 3.52 0 00-2.446 1.029l-1.03 1.029-16.478 16.458-.123.111c-.392.323-.971.531-1.55.531-.644 0-1.16-.128-1.674-.642-.901-.9-.901-2.443 0-3.344l3.347-3.343.772-.771 20.598-20.444c1.288-1.414 1.288-3.6 0-4.886a3.52 3.52 0 00-2.446-1.028 3.52 3.52 0 00-2.446 1.028L43.826 59.306c-.515.386-1.03.643-1.545.643h-.258c-.643 0-1.158-.128-1.673-.643-.387-.385-.644-.9-.644-1.414-.129-.643.129-1.414.644-1.929l25.618-25.587c.901-.9 1.288-2.186.901-3.343-.257-.514-.515-1.157-1.158-1.671a3.499 3.499 0 00-2.189-.772 3.52 3.52 0 00-2.446 1.029l-25.618 25.33-.386.385a2.486 2.486 0 01-1.288.386c-.644 0-1.158-.128-1.673-.643-.902-.9-.902-2.443 0-3.343l.772-.771 20.984-20.958c1.287-1.415 1.287-3.6 0-4.886a3.52 3.52 0 00-2.446-1.029zm43.306 25.859c.636 0 1.273.508 1.273 1.27 0 11.428-4.456 22.222-12.605 30.349a1.377 1.377 0 01-.891.38c-.255 0-.637-.126-.891-.38a1.225 1.225 0 010-1.778c7.639-7.62 11.84-17.778 11.84-28.571 0-.762.51-1.27 1.274-1.27zm-6.617-.82c.663 0 1.326.516 1.326 1.29 0 9.817-3.846 19.116-10.874 26.22-.265.257-.53.387-.928.387s-.663-.13-.928-.388c-.53-.516-.53-1.291 0-1.808 6.497-6.587 10.078-15.24 10.078-24.41 0-.775.53-1.292 1.326-1.292zM52.86 6.58a1.095 1.095 0 011.277 1.273c0 .637-.511 1.273-1.277 1.273-8.935.255-17.36 3.947-23.614 10.184a1.38 1.38 0 01-.894.382 1.38 1.38 0 01-.893-.382 1.228 1.228 0 010-1.782C34.225 10.781 43.288 6.835 52.86 6.58zM52.884 0c.635 0 1.27.51 1.27 1.273 0 .764-.508 1.273-1.27 1.273l-.567.004c-10.582.145-20.519 4.332-28.004 11.837-.254.255-.508.382-.89.382a1.37 1.37 0 01-.888-.382 1.233 1.233 0 010-1.782C30.662 4.456 41.455 0 52.884 0z" fill="#5843BE" fill-rule="evenodd"/></svg>
