<svg viewBox="0 0 24 24" xmlns="http://www.w3.org/2000/svg"><path d="M12 23.625c6.42 0 11.625-5.203 11.625-11.625C23.625 5.582 18.42.375 12 .375S.375 5.582.375 12C.375 18.422 5.58 23.625 12 23.625zm0-1.5C6.41 22.125 1.875 17.599 1.875 12 1.875 6.412 6.403 1.875 12 1.875c5.56 0 10.125 4.504 10.125 10.125A10.122 10.122 0 0112 22.125zM12 8.25a1.5 1.5 0 100-3 1.5 1.5 0 000 3zM13.687 18c.311 0 .563-.252.563-.562v-.375a.563.563 0 00-.563-.563h-.562V9.938a.563.563 0 00-.563-.563h-2.25a.563.563 0 00-.562.563v.375c0 .31.252.562.562.562h.563V16.5h-.563a.563.563 0 00-.562.563v.375c0 .31.252.562.562.562h3.375z" fill="#000" fill-rule="nonzero"/></svg>