<svg viewBox="0 0 24 24" xmlns="http://www.w3.org/2000/svg"><path d="M12 23.625c6.408 0 11.625-5.213 11.625-11.625S18.408.375 12 .375C5.587.375.375 5.588.375 12c0 6.408 5.212 11.625 11.625 11.625zm0-.534C5.887 23.09.91 18.117.91 12 .91 5.883 5.882.91 12 .91 18.112.91 23.09 5.882 23.09 12S18.118 23.09 12 23.09zm-2.475-4.97l2.184-6.543-1.551-4.256c-.54-.033-1.046-.094-1.046-.094-.539-.033-.473-.853.061-.82 0 0 1.646.126 2.625.126 1.041 0 2.658-.126 2.658-.126.54-.033.6.76.066.82l-.037.004c-.13.014-.595.062-1.102.09l3.604 10.72.994-3.323c.422-1.378.75-2.367.75-3.22 0-1.233-.44-2.086-.82-2.752-.506-.82-.98-1.519-.98-2.34 0-.918.694-1.771 1.674-1.771.042 0 .084.005.13.01A9.94 9.94 0 0012 2.025 9.965 9.965 0 003.666 6.52c.234.01.454.014.642.014 1.04 0 2.658-.126 2.658-.126.539-.033.6.76.065.82 0 0-.539.061-1.139.094l3.633 10.8zm7.486 2.5A9.964 9.964 0 0021.97 12a9.93 9.93 0 00-1.22-4.786c.043.319.066.656.066 1.027 0 1.012-.187 2.147-.76 3.572l-3.046 8.807zm-9.361.35L2.892 7.942A9.939 9.939 0 002.03 12a9.962 9.962 0 005.62 8.972zM12 21.976a9.914 9.914 0 003.31-.567.75.75 0 01-.071-.136l-3.066-8.4-2.99 8.695a9.983 9.983 0 002.817.408z" fill="#5843BE" fill-rule="nonzero"/></svg>
