<svg viewBox="0 0 234 257" xmlns="http://www.w3.org/2000/svg"><path d="M144.9 246.9c78.7-45.2 77.9-44.6 84.7-58.4l3.9-7.9V75.4l-3.9-7.9c-6.8-13.8-6-13.2-84.7-58.4-15.6-8.9-26.7-11-39.8-7.5-3 .8-10.2 4.2-16 7.5C10.4 54.3 11.2 53.7 4.4 67.5L.5 75.4v105.2l3.9 7.9c6.8 13.8 6 13.2 84.7 58.4 21.4 12.3 34.4 12.3 55.8 0zm-27.9-4c-8.6 0-10.8-.9-30.1-12.1-9-5.2-26.9-15.5-39.8-22.9-20.4-11.7-23.8-14-27.2-18.5-6.72-8.832-6.897-8.264-6.9-55.272v-12.256c.003-47.008.18-46.44 6.9-55.272 3.4-4.5 6.8-6.8 27.2-18.5C60 40.7 77.9 30.4 86.9 25.2 106.2 14 108.4 13.1 117 13.1c3.6 0 8.1.6 10.1 1.3 2 .7 11 5.5 20 10.8 9 5.2 26.9 15.5 39.8 22.9 20.4 11.7 23.8 14 27.2 18.5 6.72 8.832 6.897 8.264 6.9 55.272v12.256c-.003 47.008-.18 46.44-6.9 55.272-3.4 4.5-6.8 6.8-27.2 18.5-12.9 7.4-30.8 17.7-39.8 22.9-19.3 11.2-21.5 12.1-30.1 12.1zm76-69.9v-42h-28v14H60.8l.7-5.3c1.6-12.6 5.9-23.9 10.7-28.4 5.415-5.035 5.415-5.287 57.187-5.3H194V79l-58.7.1c-32.4.1-60.5.5-62.7 1-11.7 2.8-23.9 13.5-30.1 26.3-6.9 14.5-10.6 37.8-8.9 56.6l.9 9.5 79.3.3 79.2.2z" fill="#000" fill-rule="nonzero"/></svg>
