<svg viewBox="0 0 235 32" version="1.1" xmlns="http://www.w3.org/2000/svg" xmlns:xlink="http://www.w3.org/1999/xlink">
    <g id="Design" stroke="none" stroke-width="1" fill="none" fill-rule="evenodd">
        <g id="Settings" transform="translate(-1382.000000, -674.000000)" fill-rule="nonzero">
            <g id="ci-logo-for-light-background" transform="translate(1382.000000, 674.000000)">
                <path d="M0.000671690492,8.04166724 C-0.0443690089,4.58717678 2.17974206,1.51134601 5.47440762,0.471773087 C8.76907317,-0.567799835 12.3557101,0.674553109 14.3014412,3.52931461 L11.5746679,5.42783723 C10.8259647,4.15740085 9.45099971,3.38873584 7.97661799,3.41637134 C6.76653717,3.4184443 5.60927404,3.91228318 4.77051471,4.78451174 C3.93175538,5.65674031 3.48355223,6.83243106 3.52880438,8.04166724 C3.52880438,10.5909582 5.31976198,12.7368804 7.95510499,12.7368804 C9.43598157,12.7677871 10.818881,11.9992813 11.5746679,10.7254145 L14.3014412,12.6239371 C12.8449513,14.7576518 10.4309574,16.0370685 7.84753997,16.0445048 C3.47130427,16.0001678 -0.0411203654,12.417928 0.000671690492,8.04166724 Z" id="Path" fill="#FAA21B"></path>
                <path d="M15.5330607,8.06318024 C15.4583404,5.20787703 16.9389257,2.53690173 19.3999886,1.0872436 C21.8610516,-0.362414533 24.9149412,-0.362414533 27.3760041,1.0872436 C29.8370671,2.53690173 31.3176523,5.20787703 31.242932,8.06318024 C31.3176523,10.9184835 29.8370671,13.5894587 27.3760041,15.0391169 C24.9149412,16.488775 21.8610516,16.488775 19.3999886,15.0391169 C16.9389257,13.5894587 15.4583404,10.9184835 15.5330607,8.06318024 L15.5330607,8.06318024 Z M27.7094211,8.06318024 C27.7094211,5.49237624 25.9453547,3.41637134 23.3745507,3.41637134 C20.8037467,3.41637134 19.0719499,5.49237624 19.0719499,8.06318024 C19.0719499,10.6339842 20.7929902,12.7368804 23.3745507,12.7368804 C25.9561112,12.7368804 27.7094211,10.6339842 27.7094211,8.06318024 L27.7094211,8.06318024 Z" id="Shape" fill="#FAA21B"></path>
                <path d="M32.9854854,8.06318024 C32.9107651,5.20787703 34.3913503,2.53690173 36.8524133,1.0872436 C39.3134762,-0.362414533 42.3673658,-0.362414533 44.8284288,1.0872436 C47.2894917,2.53690173 48.770077,5.20787703 48.6953567,8.06318024 C48.770077,10.9184835 47.2894917,13.5894587 44.8284288,15.0391169 C42.3673658,16.488775 39.3134762,16.488775 36.8524133,15.0391169 C34.3913503,13.5894587 32.9107651,10.9184835 32.9854854,8.06318024 L32.9854854,8.06318024 Z M45.167224,8.06318024 C45.167224,5.49237624 43.3977794,3.41637134 40.8323536,3.41637134 C38.2669279,3.41637134 36.5297528,5.49237624 36.5297528,8.06318024 C36.5297528,10.6339842 38.2507931,12.7368804 40.8323536,12.7368804 C43.4139141,12.7368804 45.1779805,10.6339842 45.1779805,8.06318024 L45.167224,8.06318024 Z" id="Shape" fill="#FAA21B"></path>
                <polygon id="Path" fill="#FAA21B" points="63.8674029 15.7755922 59.3765633 15.7755922 54.8588324 9.74119457 54.8588324 15.7755922 51.3306997 15.7755922 51.3306997 0.377659494 54.8588324 0.377659494 54.8588324 6.58953945 58.8441164 0.377659494 63.0176392 0.377659494 57.9029225 7.99864123"></polygon>
                <polygon id="Path" fill="#FAA21B" points="65.4539869 15.7755922 65.4539869 0.377659494 68.9659849 0.377659494 68.9659849 15.7755922"></polygon>
                <polygon id="Path" fill="#FAA21B" points="76.0276285 12.7099891 82.594473 12.7099891 82.594473 15.7755922 72.5156306 15.7755922 72.5156306 0.377659494 82.3954777 0.377659494 82.3954777 3.43788434 76.0276285 3.43788434 76.0276285 6.61105246 81.6156313 6.61105246 81.6156313 9.78959883 76.0276285 9.78959883"></polygon>
                <polygon id="Path" fill="#5089A3" points="85.4557026 15.7755922 85.4557026 0.377659494 88.9677005 0.377659494 88.9677005 15.7755922"></polygon>
                <polygon id="Path" fill="#5089A3" points="100.65464 0.377659494 104.16126 0.377659494 104.16126 15.7755922 101.079522 15.7755922 96.0293441 6.92299102 96.0293441 15.7755922 92.5065897 15.7755922 92.5065897 0.377659494 95.7335403 0.377659494 100.649262 9.11193919"></polygon>
                <polygon id="Path" fill="#5089A3" points="117.434783 3.43788434 111.20139 3.43788434 111.20139 6.66483497 116.138625 6.66483497 116.138625 9.70354681 111.20139 9.70354681 111.20139 15.7755922 107.694771 15.7755922 107.694771 0.377659494 117.434783 0.377659494"></polygon>
                <path d="M118.709429,8.06318024 C118.634708,5.20787703 120.115294,2.53690173 122.576357,1.0872436 C125.03742,-0.362414533 128.091309,-0.362414533 130.552372,1.0872436 C133.013435,2.53690173 134.49402,5.20787703 134.4193,8.06318024 C134.49402,10.9184835 133.013435,13.5894587 130.552372,15.0391169 C128.091309,16.488775 125.03742,16.488775 122.576357,15.0391169 C120.115294,13.5894587 118.634708,10.9184835 118.709429,8.06318024 L118.709429,8.06318024 Z M130.891167,8.06318024 C130.891167,5.49237624 129.121723,3.41637134 126.556297,3.41637134 C123.990871,3.41637134 122.253696,5.49237624 122.253696,8.06318024 C122.253696,10.6339842 123.974737,12.7368804 126.556297,12.7368804 C129.137858,12.7368804 130.891167,10.6339842 130.891167,8.06318024 Z" id="Shape" fill="#5089A3"></path>
                <path d="M144.810081,15.7755922 L141.281948,10.3650717 L140.566641,10.3650717 L140.566641,15.7755922 L137.060021,15.7755922 L137.060021,0.377659494 L143.357953,0.377659494 C146.93449,0.377659494 148.542587,2.92695049 148.542587,5.47086324 C148.519075,7.66132656 147.05353,9.57376399 144.944537,10.1660764 L148.90293,15.7755922 L144.810081,15.7755922 Z M140.566641,3.43788434 L140.566641,7.5952724 L142.798615,7.5952724 C144.342173,7.5952724 145.014455,6.58953945 145.014455,5.5622935 C145.035803,4.99258843 144.818845,4.4397437 144.41572,4.03661863 C144.012595,3.63349357 143.459751,3.41653574 142.890046,3.43788434 L140.566641,3.43788434 Z" id="Shape" fill="#5089A3"></path>
                <polygon id="Path" fill="#5089A3" points="169.238097 15.7755922 165.650804 15.7755922 164.645071 7.01442129 161.294421 14.0061476 158.605295 14.0061476 155.254645 7.01442129 154.227399 15.7540792 150.629349 15.7540792 152.522493 0.377659494 155.432127 0.377659494 159.922967 10.0101071 164.365402 0.377659494 167.361088 0.377659494"></polygon>
                <path d="M181.484375,15.7755922 L180.322673,12.1990553 L174.944422,12.1990553 L173.804233,15.7755922 L170.039457,15.7755922 L175.71889,0.377659494 L179.542826,0.377659494 L185.216881,15.7755922 L181.484375,15.7755922 Z M175.869481,9.16034345 L179.333075,9.16034345 L177.590521,3.7283099 L175.869481,9.16034345 Z" id="Shape" fill="#5089A3"></path>
                <polygon id="Path" fill="#5089A3" points="195.855062 0.377659494 195.855062 3.43788434 191.789104 3.43788434 191.789104 15.7755922 188.277106 15.7755922 188.277106 3.43788434 184.211148 3.43788434 184.211148 0.377659494"></polygon>
                <polygon id="Path" fill="#5089A3" points="198.065523 15.7755922 198.065523 0.377659494 201.577521 0.377659494 201.577521 15.7755922"></polygon>
                <path d="M204.234377,8.06318024 C204.159657,5.20787703 205.640242,2.53690173 208.101305,1.0872436 C210.562368,-0.362414533 213.616257,-0.362414533 216.07732,1.0872436 C218.538383,2.53690173 220.018969,5.20787703 219.944248,8.06318024 C220.018969,10.9184835 218.538383,13.5894587 216.07732,15.0391169 C213.616257,16.488775 210.562368,16.488775 208.101305,15.0391169 C205.640242,13.5894587 204.159657,10.9184835 204.234377,8.06318024 L204.234377,8.06318024 Z M216.416116,8.06318024 C216.416116,5.49237624 214.646671,3.41637134 212.075867,3.41637134 C209.505063,3.41637134 207.773266,5.49237624 207.773266,8.06318024 C207.773266,10.6339842 209.494306,12.7368804 212.075867,12.7368804 C214.657427,12.7368804 216.416116,10.6339842 216.416116,8.06318024 Z" id="Shape" fill="#5089A3"></path>
                <polygon id="Path" fill="#5089A3" points="230.727642 0.377659494 234.234261 0.377659494 234.234261 15.7755922 231.152523 15.7755922 226.102346 6.92299102 226.102346 15.7755922 222.590348 15.7755922 222.590348 0.377659494 225.817298 0.377659494 230.727642 9.11193919"></polygon>
                <path d="M55.66557,20.7235832 C54.7732888,20.6838095 53.9103715,21.047143 53.3152743,21.7131814 C52.7129681,22.4761546 52.4072875,23.4314064 52.4547542,24.4023069 C52.3932035,25.3855127 52.6892863,26.3578104 53.2883831,27.1398367 C53.8898897,27.8037069 54.7606868,28.157963 55.6548135,28.1025436 C56.3839322,28.0873564 57.1076249,27.9733748 57.8061139,27.7637138 L57.8061139,28.6833948 C57.0622785,28.9370338 56.2790358,29.055431 55.493466,29.0329811 C54.3396568,29.103518 53.2136467,28.6605945 52.4171064,27.8228746 C51.6415066,26.852073 51.2577377,25.625931 51.3414562,24.3861722 C51.3300032,23.5416757 51.5140774,22.7059786 51.8792813,21.9444462 C52.2087932,21.2682574 52.7333069,20.7062785 53.3851916,20.3309709 C54.0970236,19.9506957 54.8966627,19.7651646 55.7032178,19.7931458 C56.5599607,19.7801486 57.4082372,19.9641565 58.1825915,20.3309709 L57.7415749,21.2345171 C57.0972711,20.9089841 56.3873629,20.7342658 55.66557,20.7235832 Z" id="Path" fill="#3B3F3F"></path>
                <path d="M65.4593652,25.5532526 C65.5151095,26.4878711 65.2175627,27.4093061 64.6257363,28.1348131 C64.0331832,28.7686782 63.190241,29.1074307 62.3238448,29.0598723 C61.7569793,29.0709922 61.1982385,28.9238571 60.7103695,28.6349905 C60.2399976,28.3421554 59.865974,27.9176386 59.6347193,27.4141275 C59.3703804,26.830033 59.2399157,26.194247 59.2528635,25.5532526 C59.1969818,24.6211537 59.4925044,23.7019633 60.0811141,22.9770704 C60.6740299,22.34045 61.5198999,22.0013133 62.3883838,22.0520112 C63.2434389,22.0139066 64.0705053,22.361314 64.641871,22.9985834 C65.2238178,23.7181801 65.515437,24.62949 65.4593652,25.5532526 L65.4593652,25.5532526 Z M60.3070007,25.5532526 C60.2674552,26.2521097 60.4562199,26.9448763 60.8448258,27.5270708 C61.2343639,27.958402 61.7883658,28.204565 62.36956,28.204565 C62.9507541,28.204565 63.504756,27.958402 63.8942941,27.5270708 C64.2865598,26.946549 64.4756672,26.2525247 64.4321192,25.5532526 C64.4757129,24.8573405 64.2864981,24.1667066 63.8942941,23.590191 C63.520241,23.1313568 62.9467042,22.8826905 62.3561143,22.9232879 C61.7728909,22.8830422 61.2067338,23.1299831 60.8394475,23.5848128 C60.4479803,24.163481 60.2606191,24.8561499 60.3070007,25.5532526 L60.3070007,25.5532526 Z" id="Shape" fill="#3B3F3F"></path>
                <path d="M71.8809969,28.9361726 L71.8809969,24.5636545 C71.9165891,24.1185342 71.7820504,23.6764786 71.5045194,23.3266567 C71.1856004,23.0333882 70.7584299,22.8870969 70.3266824,22.9232879 C69.7493591,22.8710603 69.1790073,23.0802551 68.7723678,23.4933825 C68.4040886,24.0521767 68.2389048,24.7205065 68.30446,25.3865269 L68.30446,28.9361726 L67.2825923,28.9361726 L67.2825923,22.1595762 L68.110843,22.1595762 L68.2775687,23.0846354 L68.3313512,23.0846354 C68.544268,22.7466034 68.8506557,22.4775801 69.2133844,22.3101673 C69.6028528,22.1318616 70.0274986,22.0436235 70.4557604,22.0520112 C71.1226881,22.0008086 71.7830955,22.2132203 72.2951223,22.6436188 C72.7510943,23.159491 72.9747641,23.8402253 72.9136211,24.5260067 L72.9136211,28.9361726 L71.8809969,28.9361726 Z" id="Path" fill="#3B3F3F"></path>
                <path d="M79.3729006,27.0914324 C79.4003819,27.6653043 79.1351462,28.213998 78.6683498,28.5489385 C78.0815251,28.9249079 77.3900734,29.103894 76.6945316,29.0598723 C75.9706288,29.0985796 75.2487881,28.9523606 74.5970137,28.6349905 L74.5970137,27.6830401 C74.929217,27.8520953 75.2791512,27.9837716 75.6403944,28.0756524 C75.9920956,28.1649379 76.353205,28.2118821 76.7160446,28.2154869 C77.1414479,28.2379638 77.5655046,28.1509303 77.9476641,27.9627091 C78.1974611,27.8123679 78.3574763,27.5489186 78.3757295,27.2579412 C78.3939827,26.9669638 78.2681451,26.6855827 78.0390944,26.5052031 C77.6248422,26.223484 77.1743561,25.9991456 76.6999099,25.8383 C76.2325963,25.683109 75.7835583,25.4775254 75.3607254,25.2251793 C75.1191953,25.0779398 74.9163573,24.8751017 74.7691177,24.6335717 C74.3668485,23.9145772 74.5708865,23.0079994 75.2424038,22.5306756 C75.7949901,22.1841431 76.4412103,22.0169524 77.0925222,22.0520112 C77.8325429,22.0527173 78.5646156,22.2046224 79.2438226,22.4984061 L78.8781015,23.3266567 C78.2962368,23.0684379 77.6696712,22.9259536 77.0333614,22.9071531 C76.6608268,22.8897025 76.2901545,22.969397 75.9577112,23.1384179 C75.7264362,23.2626488 75.5834145,23.5051639 75.5866119,23.7676733 C75.5799067,23.933185 75.6291685,24.0961279 75.7264464,24.2302029 C75.846774,24.3832242 75.9991379,24.5080525 76.1728413,24.595924 C76.5566835,24.7866094 76.9518258,24.9536468 77.3560565,25.0961013 C77.950196,25.2727249 78.5001202,25.5733501 78.9695318,25.9781345 C79.2471636,26.2805382 79.3923942,26.6813746 79.3729006,27.0914324 L79.3729006,27.0914324 Z" id="Path" fill="#3B3F3F"></path>
                <path d="M83.901388,29.0598723 C83.0191549,29.1075834 82.1584121,28.7769799 81.5349576,28.1509479 C80.9263617,27.4503333 80.6173301,26.5386901 80.6744374,25.6124134 C80.6246404,24.6788315 80.9087072,23.7579975 81.4757968,23.0147182 C82.0065865,22.379919 82.800073,22.0248338 83.6270972,22.0520112 C84.3881009,22.0174588 85.1251005,22.3228998 85.6385631,22.8856401 C86.1508939,23.504981 86.4136436,24.2932302 86.3753835,25.0961013 L86.3753835,25.7414914 L81.7500876,25.7414914 C81.7187272,26.3901126 81.9231358,27.0281732 82.3255605,27.5378273 C82.7475513,27.9692757 83.3367758,28.1951451 83.9390358,28.1563262 C84.6799701,28.153757 85.4123817,27.9981195 86.0903362,27.6991748 L86.0903362,28.6134775 C85.7605195,28.7602337 85.4162211,28.8719955 85.0630903,28.9469291 C84.6808487,29.0249478 84.2914995,29.0628012 83.901388,29.0598723 L83.901388,29.0598723 Z M83.621719,22.9071531 C83.1314521,22.8862745 82.6570211,23.0831339 82.3255605,23.4449782 C81.9770147,23.8554148 81.7746026,24.3699579 81.7500876,24.9078625 L85.2835985,24.9078625 C85.3182489,24.3779653 85.1659962,23.8526935 84.8533385,23.4234652 C84.5430668,23.0692865 84.0863394,22.8786525 83.6163407,22.9071531 L83.621719,22.9071531 Z" id="Shape" fill="#3B3F3F"></path>
                <path d="M92.7593675,28.9361726 L92.7593675,24.5636545 C92.7922929,24.1188268 92.6580433,23.6777212 92.3828899,23.3266567 C92.0623182,23.0325331 91.6331506,22.8862259 91.1996747,22.9232879 C90.6225545,22.8725977 90.0528388,23.0815592 89.6453601,23.4933825 C89.2664279,24.0502287 89.0916249,24.7209402 89.150561,25.3919051 L89.150561,28.9361726 L88.1286933,28.9361726 L88.1286933,22.1595762 L88.9623223,22.1595762 L89.129048,23.0846354 L89.1774523,23.0846354 C89.3917666,22.7477981 89.6977607,22.4791204 90.0594855,22.3101673 C90.454387,22.1236531 90.8866844,22.0298353 91.3233745,22.0358765 C91.9905083,21.9829144 92.6515677,22.1955359 93.1627363,22.6274841 C93.6209824,23.1420494 93.8449841,23.8237939 93.7812352,24.5098719 L93.7812352,28.9200378 L92.7593675,28.9361726 Z" id="Path" fill="#3B3F3F"></path>
                <path d="M98.0677013,28.2154869 C98.2476993,28.2174986 98.427564,28.2049081 98.6055264,28.1778392 C98.7401527,28.1591342 98.8731885,28.1303697 99.003517,28.0917871 L99.003517,28.8770118 C98.8470664,28.9433511 98.6824803,28.988567 98.5140961,29.0114681 C98.321934,29.0418745 98.1277894,29.0580532 97.933245,29.0598723 C96.6245373,29.0598723 95.9701834,28.3714562 95.9701834,26.9946239 L95.9701834,22.9716921 L95.0020982,22.9716921 L95.0020982,22.476893 L95.9701834,22.0520112 L96.4004435,20.6106399 L96.9920511,20.6106399 L96.9920511,22.1595762 L98.960491,22.1595762 L98.960491,22.9555574 L96.9974293,22.9555574 L96.9974293,26.9354632 C96.9741443,27.272705 97.0777281,27.6064752 97.2878549,27.8712788 C97.4839216,28.0959515 97.7695787,28.2220346 98.0677013,28.2154869 L98.0677013,28.2154869 Z" id="Path" fill="#3B3F3F"></path>
                <path d="M107.775444,28.9361726 L104.71522,20.9387132 L104.666815,20.9387132 C104.725976,21.5733469 104.752867,22.326302 104.752867,23.1975787 L104.752867,28.9361726 L103.800917,28.9361726 L103.800917,19.9168455 L105.382123,19.9168455 L108.237974,27.360345 L108.286378,27.360345 L111.169121,19.9168455 L112.734192,19.9168455 L112.734192,28.9361726 L111.658542,28.9361726 L111.658542,23.1276614 C111.658542,22.4607583 111.685433,21.7346944 111.744594,20.976361 L111.696189,20.976361 L108.641343,28.9361726 L107.775444,28.9361726 Z" id="Path" fill="#3B3F3F"></path>
                <path d="M119.19885,28.9361726 L118.994476,27.9734656 L118.946072,27.9734656 C118.683785,28.3380386 118.336779,28.633363 117.934961,28.8339858 C117.537754,28.9964675 117.110769,29.0734347 116.681828,29.0598723 C116.107154,29.0883484 115.543353,28.895925 115.106001,28.5220472 C114.723381,28.1390571 114.523602,27.6102302 114.557419,27.0699194 C114.557419,25.7038437 115.633069,24.9885363 117.838152,24.918619 L118.98372,24.8809713 L118.98372,24.4614677 C119.019149,24.0397419 118.896459,23.6199132 118.639512,23.2836307 C118.351597,23.0091425 117.960404,22.870269 117.563861,22.9017749 C116.893438,22.9355224 116.239139,23.1193144 115.649204,23.4396 L115.337265,22.6543753 C115.676771,22.4686093 116.038106,22.3258819 116.412916,22.2294935 C116.802754,22.1274527 117.203918,22.0750484 117.606887,22.0735242 C118.251631,22.0239417 118.891809,22.2156116 119.403223,22.6113493 C119.807104,23.0804019 119.999722,23.6952248 119.93567,24.3108767 L119.93567,28.9361726 L119.19885,28.9361726 Z M116.886202,28.2154869 C117.43793,28.2424305 117.977741,28.04895 118.386734,27.6776618 C118.765035,27.2859802 118.960352,26.752764 118.924559,26.2093993 L118.924559,25.6124134 L117.902691,25.6554394 C117.292164,25.6351604 116.686112,25.7663483 116.138625,26.0372952 C115.781244,26.2598381 115.574729,26.6604774 115.6008,27.0806759 C115.583287,27.3983999 115.70735,27.7075724 115.93963,27.9250614 C116.208703,28.1349785 116.545699,28.2383749 116.886202,28.2154869 L116.886202,28.2154869 Z" id="Shape" fill="#3B3F3F"></path>
                <path d="M126.696132,28.9361726 L126.696132,24.5636545 C126.729057,24.1188268 126.594807,23.6777212 126.319654,23.3266567 C126.000735,23.0333882 125.573565,22.8870969 125.141817,22.9232879 C124.564494,22.8710603 123.994142,23.0802551 123.587503,23.4933825 C123.206088,24.0490987 123.031049,24.720715 123.092703,25.3919051 L123.092703,28.9361726 L122.08697,28.9361726 L122.08697,22.1595762 L122.920599,22.1595762 L123.087325,23.0846354 L123.135729,23.0846354 C123.350044,22.7477981 123.656038,22.4791204 124.017763,22.3101673 C124.414545,22.1235739 124.848605,22.0297728 125.28703,22.0358765 C125.953958,21.9846739 126.614365,22.1970856 127.126392,22.6274841 C127.580425,23.1442213 127.802118,23.8248577 127.739512,24.5098719 L127.739512,28.9200378 L126.696132,28.9361726 Z" id="Path" fill="#3B3F3F"></path>
                <path d="M133.983662,28.9361726 L133.779288,27.9734656 L133.730884,27.9734656 C133.468597,28.3380386 133.121591,28.633363 132.719773,28.8339858 C132.322566,28.9964675 131.895581,29.0734347 131.46664,29.0598723 C130.891966,29.0883484 130.328165,28.895925 129.890813,28.5220472 C129.492485,28.1387797 129.282157,27.6001833 129.31534,27.0484064 C129.31534,25.6823307 130.39099,24.9670233 132.596073,24.897106 L133.74164,24.8594583 L133.74164,24.4399547 C133.765765,24.0252168 133.637627,23.6159411 133.381298,23.289009 C133.093383,23.0145207 132.70219,22.8756473 132.305647,22.9071531 C131.635225,22.9409006 130.980925,23.1246927 130.39099,23.4449782 L130.079052,22.6597536 C130.418557,22.4739875 130.779892,22.3312602 131.154702,22.2348717 C131.54454,22.1328309 131.945704,22.0804266 132.348673,22.0789025 C132.993417,22.02932 133.633595,22.2209899 134.145009,22.6167276 C134.572084,23.0831696 134.782939,23.7079243 134.72586,24.3377679 L134.72586,28.9361726 L133.983662,28.9361726 Z M131.671014,28.2154869 C132.222742,28.2424305 132.762553,28.04895 133.171546,27.6776618 C133.549847,27.2859802 133.745165,26.752764 133.709371,26.2093993 L133.709371,25.6124134 L132.687503,25.6554394 C132.076976,25.6351604 131.470925,25.7663483 130.923437,26.0372952 C130.566056,26.2598381 130.359541,26.6604774 130.385612,27.0806759 C130.368099,27.3983999 130.492162,27.7075724 130.724442,27.9250614 C130.993516,28.1349785 131.330511,28.2383749 131.671014,28.2154869 Z" id="Shape" fill="#3B3F3F"></path>
                <path d="M142.389868,22.1595762 L142.389868,22.8049664 L141.136736,22.9555574 C141.264942,23.1284611 141.368144,23.318569 141.443296,23.5202737 C141.53661,23.7713619 141.58221,24.0376686 141.577752,24.3054984 C141.615896,24.9189055 141.369996,25.5158088 140.910849,25.924352 C140.385099,26.3449623 139.722093,26.5557447 139.049974,26.5159596 C138.858873,26.5170248 138.668066,26.5008242 138.47988,26.4675553 C138.110673,26.6061161 137.854925,26.9457169 137.823733,27.338832 C137.814494,27.5085267 137.904781,27.6681026 138.054998,27.7475791 C138.299755,27.8564392 138.567764,27.9026477 138.834844,27.8820353 L140.034194,27.8820353 C140.632954,27.8434948 141.227405,28.006306 141.722965,28.3445649 C142.124586,28.6717876 142.344659,29.1719541 142.314573,29.6891277 C142.344669,30.3806326 141.999207,31.0345437 141.411026,31.3994115 C140.608077,31.8416696 139.696051,32.046829 138.781062,31.9910191 C138.065745,32.0332742 137.354102,31.8609819 136.737326,31.4962201 C136.272408,31.1877395 135.999861,30.6609517 136.016641,30.103253 C136.008951,29.70735 136.151103,29.3231553 136.414631,29.0276028 C136.708343,28.7103412 137.097155,28.4970605 137.522551,28.4198605 C137.347153,28.3392513 137.196679,28.2129275 137.086913,28.0541394 C136.969294,27.8857456 136.908955,27.6839868 136.914809,27.4786665 C136.908562,27.2483525 136.976433,27.0221187 137.108426,26.8332764 C137.277837,26.6136211 137.490084,26.43065 137.732303,26.2954513 C137.377843,26.1469587 137.078797,25.8911708 136.877161,25.5640091 C136.336626,24.629109 136.474424,23.450176 137.215991,22.6651318 C137.745632,22.2313715 138.420767,22.0159437 139.103757,22.0627677 C139.427047,22.0596032 139.749218,22.101232 140.061085,22.1864675 L142.389868,22.1595762 Z M137.011617,30.0548488 C136.994726,30.3980713 137.173991,30.721165 137.474147,30.8884777 C137.88039,31.1038179 138.338321,31.202478 138.797196,31.173525 C139.458545,31.2177531 140.11967,31.0840425 140.711854,30.7862909 C141.095015,30.5795412 141.332873,30.1782855 141.330353,29.7429102 C141.362338,29.4460288 141.233093,29.1547137 140.991523,28.9791986 C140.588355,28.8058843 140.148897,28.7338723 139.711499,28.7694468 L138.485258,28.7694468 C138.098296,28.747801 137.716472,28.8661664 137.409608,29.1028983 C137.127677,29.343007 136.974424,29.7012629 136.995482,30.0709835 L137.011617,30.0548488 Z M137.549442,24.3270114 C137.519277,24.7274188 137.666802,25.1208198 137.952811,25.4026616 C138.264963,25.6597832 138.66229,25.7903063 139.066109,25.7683827 C140.066464,25.7683827 140.566641,25.2843401 140.566641,24.3108767 C140.62645,23.8926835 140.48624,23.4706954 140.188053,23.171451 C139.889866,22.8722067 139.468376,22.7305029 139.049974,22.7888316 C138.641844,22.7625267 138.240387,22.9021637 137.936676,23.1760657 C137.654331,23.4962872 137.514522,23.9176567 137.549442,24.3431462 L137.549442,24.3270114 Z" id="Shape" fill="#3B3F3F"></path>
                <path d="M146.633308,29.0598723 C145.751075,29.1075834 144.890332,28.7769799 144.266878,28.1509479 C143.656342,27.4511635 143.345348,26.5394288 143.400979,25.6124134 C143.351182,24.6788315 143.635249,23.7579975 144.202339,23.0147182 C144.733129,22.379919 145.526615,22.0248338 146.353639,22.0520112 C147.114643,22.0174588 147.851642,22.3228998 148.365105,22.8856401 C148.877436,23.504981 149.140186,24.2932302 149.101925,25.0961013 L149.101925,25.7414914 L144.460495,25.7414914 C144.436712,26.3935178 144.650798,27.031952 145.062859,27.5378273 C145.48485,27.9692757 146.074074,28.1951451 146.676334,28.1563262 C147.417269,28.153757 148.14968,27.9981195 148.827635,27.6991748 L148.827635,28.6134775 C148.497818,28.7602337 148.15352,28.8719955 147.800389,28.9469291 C147.416387,29.0253217 147.025216,29.063177 146.633308,29.0598723 L146.633308,29.0598723 Z M146.353639,22.9071531 C145.863372,22.8862745 145.388941,23.0831339 145.057481,23.4449782 C144.70977,23.8575687 144.509207,24.3741145 144.487386,24.9132408 L148.020897,24.9132408 C148.055547,24.3833435 147.903295,23.8580717 147.590637,23.4288435 C147.281414,23.07267 146.824532,22.8799854 146.353639,22.9071531 L146.353639,22.9071531 Z" id="Shape" fill="#3B3F3F"></path>
                <path d="M159.487328,28.9361726 L159.487328,24.5367632 C159.517935,24.1055225 159.396109,23.6772303 159.14312,23.3266567 C158.862948,23.0380857 158.468304,22.8900941 158.06747,22.9232879 C157.538563,22.8769909 157.017523,23.075105 156.65299,23.461113 C156.312346,23.9553699 156.151031,24.5512849 156.195839,25.1498838 L156.195839,28.9146595 L155.173971,28.9146595 L155.173971,24.5367632 C155.204577,24.1055225 155.082752,23.6772303 154.829763,23.3266567 C154.549166,23.0387347 154.154839,22.890862 153.754113,22.9232879 C153.219285,22.8779101 152.695169,23.0919571 152.345011,23.4987607 C151.995661,24.0651833 151.837305,24.7287674 151.893238,25.3919051 L151.893238,28.9361726 L150.87137,28.9361726 L150.87137,22.1595762 L151.704999,22.1595762 L151.871725,23.0846354 L151.920129,23.0846354 C152.118185,22.7612872 152.403383,22.5003215 152.743001,22.3316803 C153.107843,22.1410564 153.514639,22.0448825 153.926217,22.0520112 C155.001867,22.0520112 155.674148,22.433867 155.996843,23.1975787 L156.045248,23.1975787 C156.254598,22.8424928 156.557975,22.5521441 156.921902,22.3585715 C157.327347,22.1496954 157.778173,22.0443795 158.234196,22.0520112 C158.863471,22.0020419 159.485128,22.2164065 159.949858,22.6436188 C160.377207,23.1731981 160.58167,23.8483102 160.519952,24.5260067 L160.519952,28.9361726 L159.487328,28.9361726 Z" id="Path" fill="#3B3F3F"></path>
                <path d="M165.4787,29.0598723 C164.596467,29.1075834 163.735724,28.7769799 163.112269,28.1509479 C162.501733,27.4511635 162.190739,26.5394288 162.246371,25.6124134 C162.196574,24.6788315 162.480641,23.7579975 163.04773,23.0147182 C163.57852,22.379919 164.372007,22.0248338 165.199031,22.0520112 C165.960035,22.0174588 166.697034,22.3228998 167.210497,22.8856401 C167.722827,23.504981 167.985577,24.2932302 167.947317,25.0961013 L167.947317,25.7414914 L163.289752,25.7414914 C163.270491,26.3955786 163.490391,27.0342454 163.908251,27.5378273 C164.330241,27.9692757 164.919466,28.1951451 165.521726,28.1563262 C166.26266,28.153757 166.995072,27.9981195 167.673026,27.6991748 L167.673026,28.6134775 C167.34321,28.7602337 166.998911,28.8719955 166.64578,28.9469291 C166.261779,29.0253217 165.870608,29.063177 165.4787,29.0598723 L165.4787,29.0598723 Z M165.199031,22.9071531 C164.708764,22.8862745 164.234333,23.0831339 163.902872,23.4449782 C163.555162,23.8575687 163.354599,24.3741145 163.332778,24.9132408 L166.866289,24.9132408 C166.900939,24.3833435 166.748686,23.8580717 166.436029,23.4288435 C166.126805,23.07267 165.669924,22.8799854 165.199031,22.9071531 L165.199031,22.9071531 Z" id="Shape" fill="#3B3F3F"></path>
                <path d="M174.336679,28.9361726 L174.336679,24.5636545 C174.372272,24.1185342 174.237733,23.6764786 173.960202,23.3266567 C173.642332,23.0316287 173.214362,22.8850634 172.782365,22.9232879 C172.205245,22.8725977 171.635529,23.0815592 171.22805,23.4933825 C170.849118,24.0502287 170.674315,24.7209402 170.733251,25.3919051 L170.733251,28.9361726 L169.711383,28.9361726 L169.711383,22.1595762 L170.545012,22.1595762 L170.711738,23.0846354 L170.760142,23.0846354 C170.974457,22.7477981 171.280451,22.4791204 171.642176,22.3101673 C172.037077,22.1236531 172.469374,22.0298353 172.906065,22.0358765 C173.573198,21.9829144 174.234258,22.1955359 174.745426,22.6274841 C175.203672,23.1420494 175.427674,23.8237939 175.363925,24.5098719 L175.363925,28.9200378 L174.336679,28.9361726 Z" id="Path" fill="#3B3F3F"></path>
                <path d="M179.634257,28.2154869 C179.814248,28.217289 179.994096,28.2046996 180.172082,28.1778392 C180.306708,28.1591342 180.439744,28.1303697 180.570072,28.0917871 L180.570072,28.8770118 C180.413622,28.9433511 180.249036,28.988567 180.080652,29.0114681 C179.888489,29.0418745 179.694345,29.0580532 179.4998,29.0598723 C178.194678,29.0598723 177.540324,28.3714562 177.536739,26.9946239 L177.536739,22.9716921 L176.568654,22.9716921 L176.568654,22.476893 L177.536739,22.0520112 L177.966999,20.6106399 L178.558606,20.6106399 L178.558606,22.1595762 L180.521668,22.1595762 L180.521668,22.9555574 L178.558606,22.9555574 L178.558606,26.9354632 C178.535321,27.272705 178.638905,27.6064752 178.849032,27.8712788 C179.046311,28.097419 179.33427,28.2236475 179.634257,28.2154869 L179.634257,28.2154869 Z" id="Path" fill="#3B3F3F"></path>
                <path d="M191.084553,22.5468103 C191.130124,23.3592272 190.781822,24.1439077 190.148737,24.6550847 C189.361488,25.1977459 188.413521,25.4574888 187.459612,25.3919051 L186.383962,25.3919051 L186.383962,28.9361726 L185.335203,28.9361726 L185.335203,19.9168455 L187.701633,19.9168455 C189.956913,19.9168455 191.084553,20.7935005 191.084553,22.5468103 Z M186.416231,24.4883589 L187.357425,24.4883589 C188.059898,24.5448242 188.763011,24.387327 189.374269,24.0365859 C189.813672,23.6933781 190.04866,23.1504757 189.998146,22.5952146 C190.037084,22.0807238 189.817281,21.5806218 189.411917,21.2614083 C188.864569,20.929389 188.227011,20.7770522 187.58869,20.82577 L186.416231,20.82577 L186.416231,24.4883589 Z" id="Shape" fill="#3B3F3F"></path>
                <polygon id="Path" fill="#3B3F3F" points="193.843596 28.9361726 192.821728 28.9361726 192.821728 19.3359944 193.843596 19.3359944"></polygon>
                <path d="M200.173797,28.9361726 L199.969424,27.9734656 L199.92102,27.9734656 C199.660565,28.3376631 199.315389,28.6330016 198.915287,28.8339858 C198.516188,28.9964369 198.087458,29.0733885 197.656776,29.0598723 C197.082333,29.0867105 196.519119,28.8944873 196.080948,28.5220472 C195.684595,28.1378149 195.476282,27.5993469 195.510854,27.0484064 C195.510854,25.6823307 196.602639,24.9652305 198.786209,24.897106 L199.937154,24.8594583 L199.937154,24.4399547 C199.970023,24.0184903 199.847596,23.5995584 199.592946,23.2621177 C199.303949,22.9893943 198.913566,22.8508082 198.517296,22.8802619 C197.848619,22.914261 197.196124,23.0980624 196.608017,23.418087 L196.2907,22.6328623 C196.630394,22.4474984 196.991678,22.3047912 197.36635,22.2079805 C197.756189,22.1059397 198.157353,22.0535354 198.560322,22.0520112 C199.203542,22.0011742 199.842482,22.1930481 200.35128,22.5898363 C200.778354,23.0562783 200.989209,23.6810331 200.932131,24.3108767 L200.932131,28.9361726 L200.173797,28.9361726 Z M197.861149,28.2154869 C198.413145,28.2442369 198.953629,28.0505149 199.361682,27.6776618 C199.739403,27.2856171 199.934623,26.7526665 199.899507,26.2093993 L199.899507,25.6124134 L198.877639,25.6554394 C198.26703,25.6342585 197.660761,25.7654937 197.113573,26.0372952 C196.754373,26.2581566 196.547252,26.6599719 196.575747,27.0806759 C196.552206,27.3982774 196.675007,27.7092398 196.909199,27.9250614 C197.18016,28.1353398 197.518953,28.2387004 197.861149,28.2154869 L197.861149,28.2154869 Z" id="Shape" fill="#3B3F3F"></path>
                <path d="M205.229353,28.2154869 C205.409345,28.217289 205.589193,28.2046996 205.767179,28.1778392 C205.901805,28.1591342 206.034841,28.1303697 206.165169,28.0917871 L206.165169,28.8770118 C206.008456,28.9425933 205.843971,28.9877816 205.675748,29.0114681 C205.481807,29.0421 205.285858,29.0582793 205.089519,29.0598723 C203.780811,29.0598723 203.12825,28.3714562 203.131835,26.9946239 L203.131835,22.9716921 L202.158372,22.9716921 L202.158372,22.476893 L203.131835,22.0520112 L203.562096,20.6106399 L204.153703,20.6106399 L204.153703,22.1595762 L206.116765,22.1595762 L206.116765,22.9555574 L204.153703,22.9555574 L204.153703,26.9354632 C204.130418,27.272705 204.234002,27.6064752 204.444129,27.8712788 C204.640946,28.0980473 204.929218,28.2244129 205.229353,28.2154869 L205.229353,28.2154869 Z" id="Path" fill="#3B3F3F"></path>
                <path d="M210.553822,22.9716921 L208.832782,22.9716921 L208.832782,28.9361726 L207.810914,28.9361726 L207.810914,22.9716921 L206.600807,22.9716921 L206.600807,22.5091626 L207.810914,22.1380632 L207.810914,21.7615857 C207.810914,20.1014988 208.536978,19.2714554 209.989106,19.2714554 C210.41675,19.2824925 210.840588,19.3549434 211.247616,19.4865855 L210.978704,20.3040796 C210.652851,20.1915967 210.312093,20.1281577 209.967593,20.1158408 C209.63637,20.0906638 209.314795,20.2342603 209.112451,20.4976967 C208.897047,20.8725594 208.799588,21.303627 208.832782,21.7346944 L208.832782,22.1595762 L210.553822,22.1595762 L210.553822,22.9716921 Z" id="Path" fill="#3B3F3F"></path>
                <path d="M217.626222,25.5532526 C217.681966,26.4878711 217.38442,27.4093061 216.792593,28.1348131 C216.20004,28.7686782 215.357098,29.1074307 214.490702,29.0598723 C213.923734,29.0718525 213.364761,28.9246563 212.877226,28.6349905 C212.404318,28.3451612 212.029529,27.9197763 211.801576,27.4141275 C211.53422,26.8310159 211.403612,26.1945318 211.41972,25.5532526 C211.362331,24.6218541 211.65591,23.7027424 212.242593,22.9770704 C212.833051,22.3434326 213.674301,22.0045683 214.539106,22.0520112 C215.395601,22.0145749 216.224037,22.3617289 216.797971,22.9985834 C217.381916,23.7176322 217.677184,24.6283605 217.626222,25.5532526 L217.626222,25.5532526 Z M212.473858,25.5532526 C212.422422,26.2521226 212.599881,26.9487431 212.979413,27.5378273 C213.369925,27.9694177 213.924797,28.2156543 214.506836,28.2156543 C215.088876,28.2156543 215.643748,27.9694177 216.03426,27.5378273 C216.422866,26.9556328 216.61163,26.2628662 216.572085,25.5640091 C216.613232,24.8683506 216.42423,24.1784918 216.03426,23.6009475 C215.657961,23.1419818 215.082821,22.8934896 214.490702,22.9340444 C213.911671,22.895731 213.349468,23.1378188 212.979413,23.5848128 C212.600017,24.1679523 212.422416,24.8594609 212.473858,25.5532526 L212.473858,25.5532526 Z" id="Shape" fill="#3B3F3F"></path>
                <path d="M222.509674,22.0520112 C222.780409,22.0505055 223.050631,22.0757263 223.316412,22.1273067 L223.19809,23.0738789 C222.954407,23.0184531 222.705741,22.9878204 222.455892,22.9824486 C221.909525,22.9802992 221.39152,23.2254619 221.04679,23.6493518 C220.65223,24.1115479 220.443322,24.7037728 220.46056,25.3112313 L220.46056,28.9361726 L219.433314,28.9361726 L219.433314,22.1595762 L220.2777,22.1595762 L220.396021,23.4127087 L220.444426,23.4127087 C220.66394,23.0076019 220.975214,22.6594898 221.35335,22.3962193 C221.694492,22.1658701 222.098093,22.0457286 222.509674,22.0520112 L222.509674,22.0520112 Z" id="Path" fill="#3B3F3F"></path>
                <path d="M233.201637,28.9361726 L233.201637,24.5367632 C233.232243,24.1055225 233.110418,23.6772303 232.857429,23.3266567 C232.577257,23.0380857 232.182613,22.8900941 231.781779,22.9232879 C231.252872,22.8769909 230.731832,23.075105 230.367299,23.461113 C230.026655,23.9553699 229.86534,24.5512849 229.910147,25.1498838 L229.910147,28.9146595 L228.88828,28.9146595 L228.88828,24.5367632 C228.918886,24.1055225 228.797061,23.6772303 228.544072,23.3266567 C228.263475,23.0387347 227.869148,22.890862 227.468421,22.9232879 C226.933593,22.8779101 226.409478,23.0919571 226.05932,23.4987607 C225.70997,24.0651833 225.551614,24.7287674 225.607547,25.3919051 L225.607547,28.9361726 L224.585679,28.9361726 L224.585679,22.1595762 L225.419308,22.1595762 L225.586034,23.0846354 L225.634438,23.0846354 C225.823735,22.7657372 226.097293,22.5052055 226.425041,22.3316803 C226.789882,22.1410564 227.196678,22.0448825 227.608256,22.0520112 C228.683906,22.0520112 229.356188,22.433867 229.678883,23.1975787 L229.727287,23.1975787 C229.936637,22.8424928 230.240014,22.5521441 230.603942,22.3585715 C231.009387,22.1496954 231.460213,22.0443795 231.916235,22.0520112 C232.54551,22.0020419 233.167167,22.2164065 233.631897,22.6436188 C234.059246,23.1731981 234.263709,23.8483102 234.201992,24.5260067 L234.201992,28.9361726 L233.201637,28.9361726 Z" id="Path" fill="#3B3F3F"></path>
            </g>
        </g>
    </g>
</svg>