<svg xmlns="http://www.w3.org/2000/svg" xmlns:xlink="http://www.w3.org/1999/xlink" viewBox="0 0 1042 844">
<style type="text/css">
	.st0{fill:#FFFFFF;}
	.st1{fill:#F2F2F2;}
	.st2{opacity:0.1;}
	.st3{fill:#4D4D4D;}
</style>
<g>
	<g id="Layer_1">
		<path class="st0" d="M66.9,76.8h916.4c5.5,0,9.9,4.5,9.9,9.9V776c0,5.5-4.5,9.9-9.9,9.9H66.9c-5.5,0-9.9-4.5-9.9-9.9V86.8    C57,81.3,61.4,76.8,66.9,76.8z"></path>
		<path class="st1" d="M993.3,154.6H57V86.8c0-5.5,4.4-10,9.9-10h916.4c5.5,0,9.9,4.5,9.9,10V154.6z"></path>
		<rect x="102.4" y="196.4" class="st1" width="422.7" height="259.3"></rect>
		<rect x="547.6" y="308.5" class="st1" width="397.5" height="22.1"></rect>
		<rect x="547.6" y="346.8" class="st1" width="397.5" height="20.3"></rect>
		<rect x="102.4" y="475.9" class="st1" width="422.7" height="56.6"></rect>
		<rect x="102.4" y="552.8" class="st1" width="422.7" height="183"></rect>
		<rect x="547.6" y="387.8" class="st1" width="397.5" height="348"></rect>
		<g class="st2">
			<path class="st3" d="M66.9,76.8h916.4c5.5,0,9.9,4.5,9.9,9.9V776c0,5.5-4.5,9.9-9.9,9.9H66.9c-5.5,0-9.9-4.5-9.9-9.9V86.8     C56.9,81.3,61.4,76.8,66.9,76.8z"></path>
		</g>
		<path d="M982.7,786H67.5c-5.8,0-10.5-4.7-10.5-10.6c0,0,0,0,0,0v-84.1h936.3v84.1C993.3,781.2,988.6,786,982.7,786    C982.8,786,982.7,786,982.7,786z"></path>
		<rect x="776" y="714.1" class="st0" width="125.1" height="45.9"></rect>
		<path d="M814.5,739.8l-0.9,2.3h-2.2l3.7-9.9h2.3l3.7,9.9h-2.2l-0.9-2.3H814.5z M817.3,738l-1-3.5l-1,3.5H817.3z"></path>
		<path d="M830.5,740.1c-0.9,1.4-2.5,2.2-4.2,2.2c-2.8,0-5.1-2.3-5.1-5.1s2.3-5.1,5.1-5.1c1.6,0,3.2,0.7,4.1,2.1l-1.7,1.2    c-0.5-0.8-1.4-1.3-2.4-1.3c-1.7,0.1-3,1.6-2.8,3.3c0.1,1.5,1.3,2.7,2.8,2.8c1,0,1.9-0.5,2.5-1.4L830.5,740.1z"></path>
		<path d="M840.5,740.1c-0.9,1.4-2.5,2.2-4.2,2.2c-2.8,0-5.1-2.3-5.1-5.1s2.3-5.1,5.1-5.1c1.6,0,3.2,0.7,4.1,2.1l-1.7,1.2    c-0.5-0.8-1.4-1.3-2.4-1.3c-1.7,0.1-3,1.6-2.8,3.3c0.1,1.5,1.3,2.7,2.8,2.8c1,0,1.9-0.5,2.5-1.4L840.5,740.1z"></path>
		<path d="M842,732.2h6.2v1.8h-4.2v2.3h3.7v1.8h-3.7v2.1h4.3v1.8H842V732.2z"></path>
		<path d="M850.3,732.2h4.1c1.8-0.1,3.3,1.3,3.4,3.1c0.1,1.8-1.3,3.3-3.1,3.4c-0.1,0-0.2,0-0.4,0h-2v3.4h-2.1L850.3,732.2z     M852.4,734.1v2.8h1.8c0.7,0,1.3-0.7,1.3-1.4c0,0,0,0,0,0c0.1-0.7-0.5-1.3-1.2-1.4L852.4,734.1z"></path>
		<path d="M858.3,732.2h7.5v1.9h-2.7v8H861v-8h-2.7L858.3,732.2z"></path>
		<path class="st0" d="M115.7,732.2v1.3h-3v8.6h-1.3v-8.6h-3v-1.3H115.7z"></path>
		<path class="st0" d="M118.5,742.1h-1.3v-10.3h1.3v4.6c0.5-0.7,1.3-1.2,2.2-1.2c1.7,0,2.7,1.1,2.7,3v3.9h-1.3v-3.8    c0.1-0.9-0.5-1.7-1.4-1.8c-0.1,0-0.1,0-0.2,0c-1-0.1-1.9,0.7-2,1.8c0,0.1,0,0.1,0,0.2L118.5,742.1z"></path>
		<path class="st0" d="M126.2,732.1c0.5,0,0.8,0.4,0.8,0.9c0,0.5-0.4,0.8-0.9,0.8c-0.5,0-0.8-0.4-0.8-0.9    C125.3,732.5,125.7,732.1,126.2,732.1C126.2,732.1,126.2,732.1,126.2,732.1z M126.8,742.1h-1.3v-6.7h1.3V742.1z"></path>
		<path class="st0" d="M130.5,739.2c-1.2-0.3-1.9-0.9-1.8-2.2c0.2-1.1,1.2-1.8,2.3-1.7c1.1-0.1,2.2,0.7,2.3,1.8c0,0,0,0,0,0.1h-1.2    c-0.2-0.6-0.8-0.9-1.4-0.7c-0.3,0.1-0.5,0.3-0.6,0.5c-0.1,0.2-0.1,0.4,0,0.5c0.2,0.3,0.5,0.5,0.8,0.5l1,0.2c1,0.1,1.7,1,1.7,2    c0,1.3-1.2,2-2.6,2c-1.3,0.1-2.4-0.9-2.5-2.2h1.2c0,0.3,0.3,0.6,0.6,0.8c0.3,0.2,0.7,0.3,1.1,0.2c0.6,0,1-0.4,1-0.9    s-0.4-0.7-0.9-0.8L130.5,739.2z"></path>
		<path class="st0" d="M140.6,739.2c-1.2-0.3-1.9-0.9-1.8-2.2c0.2-1.1,1.2-1.8,2.3-1.7c1.1-0.1,2.2,0.7,2.3,1.8c0,0,0,0,0,0.1h-1.2    c-0.2-0.6-0.8-0.9-1.4-0.7c-0.3,0.1-0.5,0.3-0.6,0.5c-0.1,0.2-0.1,0.4,0,0.5c0.2,0.3,0.5,0.5,0.8,0.5l1,0.2c1,0.1,1.7,1,1.7,2    c0,1.3-1.2,2-2.6,2c-1.3,0.1-2.4-0.9-2.5-2.2h1.2c0,0.3,0.3,0.6,0.6,0.8c0.3,0.2,0.7,0.3,1.1,0.2c0.6,0,1-0.4,1-0.9    s-0.4-0.7-0.9-0.8L140.6,739.2z"></path>
		<path class="st0" d="M146,732.1c0.5-0.1,0.9,0.3,0.9,0.8c0.1,0.5-0.3,0.9-0.8,0.9c-0.1,0-0.1,0-0.2,0c-0.5,0.1-0.9-0.3-0.9-0.8    c-0.1-0.5,0.3-0.9,0.8-0.9C145.9,732.1,145.9,732.1,146,732.1z M146.6,742.1h-1.3v-6.7h1.3V742.1z"></path>
		<path class="st0" d="M152.1,735.4v1.1h-1.4v5.6h-1.3v-5.6h-1.2v-1.1h1.2v-2.5h1.3v2.5H152.1z"></path>
		<path class="st0" d="M159.7,739.2h-5.4c0.1,1.1,1.1,1.9,2.2,1.8c0.8,0,1.5-0.3,1.9-1c0.3,0.2,0.8,0.3,1.1,0.4    c-0.6,1.1-1.8,1.8-3.1,1.8c-1.9,0-3.5-1.6-3.5-3.5s1.6-3.5,3.5-3.5c1.8-0.1,3.3,1.4,3.3,3.1c0,0.1,0,0.2,0,0.3    C159.7,738.9,159.7,739.1,159.7,739.2z M158.4,738.2c-0.1-1-1-1.8-2-1.8c-1.1-0.1-2,0.7-2.1,1.8H158.4z"></path>
		<path class="st0" d="M169.7,735.4h1.3v6.7h-1.3v-1c-0.4,0.7-1.2,1.2-2.1,1.2c-1.7,0-2.6-1.1-2.6-3v-3.9h1.3v3.8    c0,1.1,0.5,1.8,1.5,1.8c1,0.1,1.8-0.7,1.9-1.6c0-0.1,0-0.2,0-0.4L169.7,735.4z"></path>
		<path class="st0" d="M174.7,739.2c-1.2-0.3-1.9-0.9-1.8-2.2c0.2-1.1,1.2-1.8,2.3-1.7c1.1-0.1,2.2,0.7,2.3,1.8c0,0,0,0,0,0.1h-1.2    c-0.2-0.6-0.8-0.9-1.4-0.7c-0.3,0.1-0.5,0.3-0.6,0.5c-0.1,0.2-0.1,0.4,0,0.5c0.2,0.3,0.5,0.5,0.8,0.5l1,0.2c1,0.1,1.7,1,1.7,2    c0,1.3-1.2,2-2.6,2c-1.3,0.1-2.4-0.9-2.5-2.2h1.2c0,0.3,0.2,0.6,0.5,0.8c0.3,0.2,0.7,0.3,1.1,0.2c0.6,0,1-0.4,1-0.9    s-0.4-0.7-0.9-0.8L174.7,739.2z"></path>
		<path class="st0" d="M185.8,739.2h-5.4c0.1,1.1,1.1,1.9,2.2,1.8c0.8,0,1.5-0.3,1.9-1c0.3,0.2,0.8,0.3,1.1,0.4    c-0.6,1.1-1.8,1.8-3.1,1.8c-1.9,0-3.5-1.6-3.5-3.5s1.6-3.5,3.5-3.5c1.8,0,3.3,1.4,3.3,3.1c0,0.1,0,0.2,0,0.3    C185.8,738.9,185.8,739.1,185.8,739.2z M184.5,738.2c-0.1-1-1-1.8-2-1.8c-1.1-0.1-2,0.7-2.1,1.8H184.5z"></path>
		<path class="st0" d="M189,739.2c-1.2-0.3-1.9-0.9-1.8-2.2c0.2-1.1,1.2-1.8,2.3-1.7c1.1-0.1,2.2,0.7,2.3,1.8c0,0,0,0.1,0,0.1h-1.2    c-0.2-0.6-0.8-0.9-1.4-0.7c-0.3,0.1-0.5,0.3-0.6,0.5c-0.1,0.2-0.1,0.4,0,0.5c0.2,0.3,0.5,0.5,0.8,0.5l1,0.2c1,0.1,1.8,1,1.7,2    c0,1.3-1.2,2-2.6,2c-1.3,0.1-2.4-0.9-2.5-2.2h1.2c0,0.3,0.3,0.6,0.6,0.8c0.3,0.2,0.7,0.3,1.1,0.2c0.6,0,1-0.4,1-0.9    s-0.4-0.7-0.9-0.8L189,739.2z"></path>
		<path class="st0" d="M201.2,733h-0.7c-1.1,0-1.2,0.9-1.2,1.7v0.7h1.6v1.1h-1.6v5.6h-1.3v-5.6h-1.3v-1.1h1.3v-0.7    c0-1.8,0.8-3,2.6-3h0.7V733z"></path>
		<path class="st0" d="M206.8,735.4h1.3v6.7h-1.3v-1c-0.4,0.7-1.2,1.2-2.1,1.2c-1.7,0-2.6-1.1-2.6-3v-3.9h1.3v3.8    c0,1.1,0.6,1.8,1.5,1.8c1,0.1,1.8-0.6,1.9-1.6c0-0.1,0-0.3,0-0.4V735.4z"></path>
		<path class="st0" d="M211.6,742.1h-1.3v-6.7h1.3v1c0.4-0.7,1.2-1.2,2.1-1.2c1.7,0,2.6,1.1,2.6,3v3.9H215v-3.8    c0-1.1-0.6-1.8-1.5-1.8c-1-0.1-1.8,0.7-1.9,1.7c0,0.1,0,0.2,0,0.3L211.6,742.1z"></path>
		<path class="st0" d="M221.5,735.3c1,0,1.9,0.4,2.6,1.1l-1,0.8c-0.4-0.4-1-0.6-1.6-0.6c-1.2,0-2.2,0.9-2.2,2.1c0,0,0,0.1,0,0.1    c0,1.2,1,2.2,2.3,2.2c0.6,0,1.2-0.2,1.6-0.7l1,0.8c-0.7,0.7-1.6,1.1-2.6,1.1c-1.9,0-3.5-1.6-3.5-3.5S219.5,735.3,221.5,735.3    L221.5,735.3z"></path>
		<path class="st0" d="M229,735.4v1.1h-1.4v5.6h-1.3v-5.6H225v-1.1h1.2v-2.5h1.3v2.5H229z"></path>
		<path class="st0" d="M231.1,732.1c0.5,0,0.8,0.4,0.8,0.9s-0.4,0.8-0.9,0.8c-0.5,0-0.8-0.4-0.8-0.9    C230.2,732.5,230.6,732.1,231.1,732.1C231,732.1,231.1,732.1,231.1,732.1z M231.7,742.1h-1.3v-6.7h1.3V742.1z"></path>
		<path class="st0" d="M233.5,738.7c0.1-1.9,1.8-3.4,3.8-3.2c1.7,0.1,3.1,1.5,3.2,3.2c0.1,1.9-1.3,3.6-3.2,3.8    c-1.9,0.1-3.6-1.3-3.8-3.2C233.4,739.1,233.4,738.9,233.5,738.7z M239.2,738.7c0-1.2-1-2.2-2.3-2.2c-1.2,0-2.2,1-2.2,2.3    c0,1.2,1,2.2,2.3,2.2c1.2,0,2.2-1,2.2-2.2C239.2,738.8,239.2,738.8,239.2,738.7z"></path>
		<path class="st0" d="M243.5,742.1h-1.3v-6.7h1.3v1c0.4-0.7,1.2-1.2,2.1-1.2c1.7,0,2.6,1.1,2.6,3v3.9h-1.3v-3.8    c0-1.1-0.6-1.8-1.5-1.8c-1-0.1-1.8,0.7-1.9,1.6c0,0.1,0,0.2,0,0.4L243.5,742.1z"></path>
		<path class="st0" d="M255.6,741.1c-0.5,0.8-1.4,1.2-2.4,1.2c-1.9,0-3.5-1.6-3.5-3.5s1.6-3.5,3.5-3.5c0.9,0,1.8,0.4,2.4,1.2v-1h1.3    v6.7h-1.3L255.6,741.1z M253.4,736.5c-1.2,0-2.1,0.9-2.2,2.1c0,0,0,0.1,0,0.1c0,1.2,1,2.2,2.2,2.2s2.2-1,2.2-2.2    C255.6,737.5,254.6,736.5,253.4,736.5C253.4,736.5,253.4,736.5,253.4,736.5z"></path>
		<path class="st0" d="M260.4,731.8v10.3h-1.3v-10.3H260.4z"></path>
		<path class="st0" d="M269.4,735.3c1,0,1.9,0.4,2.6,1.1l-1,0.8c-0.4-0.4-1-0.6-1.6-0.6c-1.2,0-2.2,0.9-2.2,2.1c0,0,0,0.1,0,0.1    c0,1.2,1,2.2,2.2,2.2c0,0,0,0,0.1,0c0.6,0,1.2-0.2,1.6-0.7l1,0.8c-1.4,1.4-3.6,1.5-5,0.1c-0.7-0.7-1.1-1.6-1.1-2.5    c0-1.9,1.5-3.4,3.3-3.5C269.2,735.3,269.3,735.3,269.4,735.3z"></path>
		<path class="st0" d="M273,738.7c0.1-1.9,1.8-3.4,3.8-3.2c1.7,0.1,3.1,1.5,3.2,3.2c0.1,1.9-1.3,3.6-3.2,3.8    c-1.9,0.1-3.6-1.3-3.8-3.2C273,739.1,273,738.9,273,738.7z M278.7,738.7c0-1.2-1-2.2-2.2-2.2c-1.2,0-2.2,1-2.2,2.2    c0,1.2,1,2.2,2.2,2.2c1.2,0,2.2-0.9,2.2-2.1C278.7,738.8,278.7,738.8,278.7,738.7L278.7,738.7z"></path>
		<path class="st0" d="M281.3,738.7c0.1-1.9,1.8-3.4,3.8-3.2c1.7,0.1,3.1,1.5,3.2,3.2c0.1,1.9-1.3,3.6-3.2,3.8    c-1.9,0.1-3.6-1.3-3.8-3.2C281.3,739.1,281.3,738.9,281.3,738.7z M287,738.7c0-1.2-0.9-2.2-2.1-2.2c0,0-0.1,0-0.1,0    c-1.2,0-2.2,0.9-2.2,2c0,0.1,0,0.1,0,0.2c-0.1,1.2,0.9,2.2,2,2.2c0.1,0,0.1,0,0.2,0C286,741,287,740,287,738.7    C287,738.8,287,738.8,287,738.7L287,738.7z"></path>
		<path class="st0" d="M291.4,742.1h-1.3v-10.3h1.3v6l2.3-2.3h1.8l-2.9,2.9l3.5,3.8h-1.7l-3-3.3V742.1z"></path>
		<path class="st0" d="M297.9,732.1c0.5-0.1,0.9,0.3,0.9,0.8s-0.3,0.9-0.8,0.9c-0.1,0-0.1,0-0.2,0c-0.5,0.1-0.9-0.3-0.9-0.8    s0.3-0.9,0.8-0.9C297.8,732.1,297.9,732.1,297.9,732.1z M298.6,742.1h-1.3v-6.7h1.3V742.1z"></path>
		<path class="st0" d="M307,739.2h-5.4c0.1,1.1,1.1,1.9,2.2,1.8c0.8,0,1.5-0.3,1.9-1c0.4,0.2,0.8,0.3,1.1,0.4    c-0.6,1.1-1.8,1.8-3.1,1.8c-1.9,0-3.5-1.6-3.5-3.5s1.6-3.5,3.5-3.5c1.8,0,3.3,1.4,3.3,3.1c0,0.1,0,0.2,0,0.3    C307.1,738.9,307.1,739.1,307,739.2z M305.8,738.2c-0.1-1-1-1.8-2-1.8c-1.1-0.1-2,0.7-2.1,1.8H305.8z"></path>
		<path class="st0" d="M310.2,739.2c-1.2-0.3-1.9-0.9-1.8-2.2c0.2-1.1,1.2-1.8,2.3-1.7c1.1-0.1,2.2,0.7,2.3,1.8c0,0,0,0,0,0.1h-1.2    c-0.2-0.6-0.8-0.9-1.4-0.7c-0.3,0.1-0.5,0.3-0.6,0.5c-0.1,0.2-0.1,0.4,0,0.5c0.2,0.3,0.5,0.5,0.8,0.5l1,0.2c1,0.1,1.7,1,1.7,2    c0,1.3-1.2,2-2.6,2c-1.3,0.1-2.4-0.9-2.5-2.2h1.2c0,0.3,0.2,0.6,0.5,0.8c0.3,0.2,0.7,0.3,1.1,0.2c0.6,0,1-0.4,1-0.9    s-0.4-0.7-0.9-0.8L310.2,739.2z"></path>
		<path class="st0" d="M324.1,741.1c-0.5,0.8-1.4,1.2-2.4,1.2c-1.9,0-3.5-1.6-3.5-3.5s1.6-3.5,3.5-3.5c0.9,0,1.8,0.4,2.4,1.2v-1h1.3    v6.7h-1.3V741.1z M321.8,736.5c-1.2,0-2.2,0.9-2.2,2.1c0,0,0,0.1,0,0.1c0,1.2,0.9,2.2,2.1,2.2c0,0,0.1,0,0.1,0    c1.2,0.1,2.3-0.8,2.4-2.1s-0.8-2.3-2.1-2.4C322,736.5,321.9,736.5,321.8,736.5z"></path>
		<path class="st0" d="M328.9,742.1h-1.3v-6.7h1.3v1c0.4-0.7,1.2-1.2,2.1-1.2c1.7,0,2.6,1.1,2.6,3v3.9h-1.3v-3.8    c0-1.1-0.6-1.8-1.5-1.8c-1-0.1-1.8,0.7-1.9,1.7c0,0.1,0,0.2,0,0.3L328.9,742.1z"></path>
		<path class="st0" d="M340.9,741.1c-0.5,0.8-1.4,1.2-2.4,1.2c-1.9,0-3.4-1.5-3.4-3.3c0-0.1,0-0.1,0-0.2c-0.1-1.8,1.3-3.4,3.1-3.5    c0.1,0,0.1,0,0.2,0c0.9-0.1,1.8,0.4,2.4,1.2v-4.6h1.3v10.3h-1.3L340.9,741.1z M338.7,736.5c-1.2,0-2.1,0.9-2.2,2    c0,0.1,0,0.1,0,0.2c0,1.2,1,2.2,2.2,2.2s2.2-1,2.2-2.2S339.9,736.5,338.7,736.5C338.7,736.5,338.7,736.5,338.7,736.5z"></path>
		<path class="st0" d="M354.4,739.2H349c0.1,1.1,1.1,1.9,2.2,1.8c0.8,0,1.5-0.3,1.9-1c0.4,0.2,0.8,0.3,1.1,0.4    c-0.6,1.1-1.8,1.8-3.1,1.8c-1.9,0-3.5-1.6-3.5-3.5s1.6-3.5,3.5-3.5c1.8-0.1,3.3,1.4,3.3,3.1c0,0.1,0,0.2,0,0.3    C354.5,738.9,354.4,739.1,354.4,739.2z M353.1,738.2c-0.1-1-1-1.8-2-1.8c-1.1-0.1-2,0.7-2.1,1.8H353.1z"></path>
		<path class="st0" d="M357.1,735.4l1.4,2l1.4-2h1.6l-2.2,3l2.7,3.7h-1.5l-1.9-2.6l-1.9,2.6H355l2.6-3.7l-2.2-3H357.1z"></path>
		<path class="st0" d="M366.4,735.4v1.1H365v5.6h-1.3v-5.6h-1.2v-1.1h1.2v-2.5h1.3v2.5H366.4z"></path>
		<path class="st0" d="M374,739.2h-5.4c0.1,1.1,1.1,1.9,2.2,1.8c0.8,0,1.5-0.3,1.9-1c0.3,0.2,0.8,0.3,1.1,0.4    c-0.6,1.1-1.8,1.8-3.1,1.8c-1.9,0-3.5-1.6-3.5-3.5s1.6-3.5,3.5-3.5c1.8-0.1,3.3,1.4,3.3,3.1c0,0.1,0,0.2,0,0.3    C374.1,738.9,374.1,739.1,374,739.2z M372.8,738.2c-0.1-1-1-1.8-2-1.8c-1.1-0.1-2,0.7-2.1,1.8H372.8z"></path>
		<path class="st0" d="M377,742.1h-1.3v-6.7h1.3v1.5c0.4-1.2,1-1.7,1.9-1.7c0.4,0,0.8,0.1,1.2,0.3l-0.2,1.2c-0.3-0.1-0.7-0.2-1-0.2    c-1.3,0-1.8,1.4-1.8,3.2L377,742.1z"></path>
		<path class="st0" d="M382.7,742.1h-1.3v-6.7h1.3v1c0.4-0.7,1.2-1.2,2.1-1.2c1.7,0,2.6,1.1,2.6,3v3.9h-1.3v-3.8    c0-1.1-0.6-1.8-1.5-1.8c-1-0.1-1.8,0.7-1.9,1.7c0,0.1,0,0.2,0,0.3L382.7,742.1z"></path>
		<path class="st0" d="M394.8,741.1c-0.5,0.8-1.4,1.2-2.4,1.2c-1.9,0-3.5-1.6-3.5-3.5s1.6-3.5,3.5-3.5c0.9,0,1.8,0.4,2.4,1.2v-1h1.3    v6.7h-1.3V741.1z M392.5,736.5c-1.2,0-2.2,0.9-2.2,2.1c0,0,0,0.1,0,0.1c0,1.2,1,2.2,2.2,2.2c1.2,0,2.2-1,2.2-2.2    C394.8,737.5,393.8,736.5,392.5,736.5C392.6,736.5,392.6,736.5,392.5,736.5z"></path>
		<path class="st0" d="M399.6,731.8v10.3h-1.3v-10.3H399.6z"></path>
		<path class="st0" d="M407,739.2c-1.2-0.3-1.9-0.9-1.8-2.2c0.2-1.1,1.2-1.8,2.3-1.7c1.1-0.1,2.2,0.7,2.3,1.8c0,0,0,0.1,0,0.1h-1.3    c-0.2-0.6-0.8-0.9-1.4-0.7c-0.3,0.1-0.5,0.3-0.6,0.5c-0.1,0.2-0.1,0.4,0,0.5c0.2,0.3,0.5,0.5,0.8,0.5l1,0.2c1,0.1,1.7,1,1.7,2    c0,1.3-1.2,2-2.6,2c-1.3,0.1-2.4-0.9-2.5-2.2h1.2c0,0.3,0.2,0.6,0.5,0.8c0.3,0.2,0.7,0.3,1.1,0.2c0.6,0,1-0.4,1-0.9    s-0.4-0.7-0.9-0.8L407,739.2z"></path>
		<path class="st0" d="M414.9,735.3c1,0,1.9,0.4,2.6,1.1l-1,0.8c-0.4-0.4-1-0.6-1.6-0.6c-1.2,0-2.2,0.9-2.2,2.1c0,0,0,0.1,0,0.1    c0,1.2,1,2.2,2.3,2.2c0.6,0,1.2-0.2,1.6-0.7l1,0.8c-0.7,0.7-1.6,1.1-2.6,1.1c-1.9,0-3.5-1.6-3.5-3.5S412.9,735.3,414.9,735.3    L414.9,735.3z"></path>
		<path class="st0" d="M420.4,742.1h-1.3v-6.7h1.3v1.5c0.4-1.2,1-1.7,1.9-1.7c0.4,0,0.8,0.1,1.2,0.3l-0.2,1.2    c-0.3-0.1-0.7-0.2-1-0.2c-1.3,0-1.8,1.4-1.8,3.2L420.4,742.1z"></path>
		<path class="st0" d="M425.4,732.1c0.5,0,0.8,0.4,0.8,0.9c0,0.5-0.4,0.8-0.9,0.8c-0.5,0-0.8-0.4-0.8-0.9    C424.5,732.5,424.9,732.1,425.4,732.1C425.4,732.1,425.4,732.1,425.4,732.1z M426.1,742.1h-1.3v-6.7h1.3V742.1z"></path>
		<path class="st0" d="M429.6,736.5c0.5-0.8,1.4-1.2,2.3-1.2c1.9,0,3.4,1.5,3.4,3.3c0,0.1,0,0.1,0,0.2c0.1,1.8-1.3,3.4-3.1,3.5    c-0.1,0-0.2,0-0.2,0c-0.9,0-1.8-0.4-2.3-1.2v4.3h-1.3v-10h1.3V736.5z M431.8,741c1.2,0,2.1-0.9,2.2-2c0-0.1,0-0.1,0-0.2    c0-1.2-1-2.2-2.2-2.2c-1.2,0-2.2,1-2.2,2.2c0,0,0,0,0,0c-0.1,1.2,0.9,2.2,2,2.2C431.7,741,431.7,741,431.8,741L431.8,741z"></path>
		<path class="st0" d="M440.2,735.4v1.1h-1.4v5.6h-1.3v-5.6h-1.2v-1.1h1.2v-2.5h1.3v2.5H440.2z"></path>
		<path class="st0" d="M443.2,739.2c-1.2-0.3-1.9-0.9-1.8-2.2c0.2-1.1,1.2-1.8,2.3-1.7c1.1-0.1,2.2,0.7,2.3,1.8c0,0,0,0.1,0,0.1    h-1.2c-0.2-0.6-0.8-0.9-1.4-0.7c-0.3,0.1-0.5,0.3-0.6,0.5c-0.1,0.2-0.1,0.4,0,0.5c0.2,0.3,0.5,0.5,0.8,0.5l1,0.2    c1,0.1,1.7,1,1.7,2c0,1.3-1.2,2-2.6,2c-1.3,0.1-2.4-0.9-2.5-2.2h1.2c0,0.3,0.2,0.6,0.5,0.8c0.3,0.2,0.7,0.3,1.1,0.2    c0.6,0,1-0.4,1-0.9s-0.4-0.7-0.9-0.8L443.2,739.2z"></path>
		<path class="st0" d="M455,735.4v1.1h-1.4v5.6h-1.3v-5.6H451v-1.1h1.2v-2.5h1.3v2.5H455z"></path>
		<path class="st0" d="M455.9,738.7c0.1-1.9,1.8-3.4,3.8-3.2c1.7,0.1,3.1,1.5,3.2,3.2c0.1,1.9-1.3,3.6-3.2,3.8    c-1.9,0.1-3.6-1.3-3.8-3.2C455.9,739.1,455.9,738.9,455.9,738.7z M461.6,738.7c0-1.2-1-2.2-2.2-2.2c-1.2,0-2.2,1-2.2,2.2    c0,1.2,1,2.2,2.2,2.2c1.2,0,2.2-0.9,2.2-2.1C461.6,738.8,461.6,738.8,461.6,738.7z"></path>
		<path class="st0" d="M469,732.1c0.5-0.1,0.9,0.3,0.9,0.8s-0.3,0.9-0.8,0.9c-0.1,0-0.1,0-0.2,0c-0.5,0.1-0.9-0.3-0.9-0.8    s0.3-0.9,0.8-0.9C468.9,732.1,468.9,732.1,469,732.1z M469.6,742.1h-1.3v-6.7h1.3V742.1z"></path>
		<path class="st0" d="M477.8,738.5v3.6h-1.3v-3.8c0-1.1-0.6-1.8-1.5-1.8c-1-0.1-1.8,0.7-1.9,1.7c0,0.1,0,0.2,0,0.3v3.6h-1.3v-6.7    h1.3v1c0.4-0.7,1.1-1.1,1.9-1.1c0.2,0,0.5,0,0.7,0c0.8,0.1,1.4,0.6,1.8,1.3c0.4-0.9,1.3-1.4,2.3-1.4c1.7,0,2.6,1.1,2.6,3v3.9h-1.3    v-3.8c0-1.1-0.6-1.8-1.5-1.8c-1,0-1.8,0.8-1.8,1.8C477.8,738.4,477.8,738.5,477.8,738.5z"></path>
		<path class="st0" d="M485.8,736.5c0.5-0.8,1.4-1.2,2.3-1.2c1.8,0,3.3,1.5,3.4,3.3c0,0.1,0,0.1,0,0.2c0.1,1.8-1.3,3.4-3.1,3.5    c-0.1,0-0.1,0-0.2,0c-0.9,0-1.8-0.4-2.3-1.2v4.3h-1.3v-10h1.3V736.5z M488,741c1.1,0,2.1-0.8,2.2-2c0-0.1,0-0.1,0-0.2    c0-1.2-1-2.2-2.2-2.2c-1.2,0-2.2,1-2.2,2.2c0,0,0,0,0,0c0,1.2,0.9,2.1,2.1,2.2C487.9,741,488,741,488,741z"></path>
		<path class="st0" d="M494.5,742.1h-1.3v-6.7h1.3v1.5c0.3-1.2,1-1.7,1.9-1.7c0.4,0,0.8,0.1,1.2,0.3l-0.2,1.2    c-0.3-0.1-0.7-0.2-1-0.2c-1.3,0-1.8,1.4-1.8,3.2L494.5,742.1z"></path>
		<path class="st0" d="M498.3,738.7c0.1-1.9,1.8-3.4,3.8-3.2c1.7,0.1,3.1,1.5,3.2,3.2c0.1,1.9-1.3,3.6-3.2,3.8    c-1.9,0.1-3.6-1.3-3.8-3.2C498.3,739.1,498.3,738.9,498.3,738.7z M504,738.7c0-1.2-1-2.2-2.2-2.2c-1.2,0-2.2,1-2.2,2.2    c0,1.2,1,2.2,2.2,2.2c1.2,0,2.2-0.9,2.2-2.1C504,738.8,504,738.8,504,738.7L504,738.7z"></path>
		<path class="st0" d="M507.6,735.4l2,5l2-5h1.4l-2.8,6.7H509l-2.8-6.7H507.6z"></path>
		<path class="st0" d="M520.5,739.2h-5.4c0.1,1.1,1.1,1.9,2.2,1.8c0.8,0,1.5-0.3,1.9-1c0.3,0.2,0.8,0.3,1.1,0.4    c-0.6,1.1-1.8,1.8-3.1,1.8c-1.9,0-3.5-1.6-3.5-3.5s1.6-3.5,3.5-3.5c1.8-0.1,3.3,1.4,3.3,3.1c0,0.1,0,0.2,0,0.3    C520.5,738.9,520.5,739.1,520.5,739.2z M519.2,738.2c-0.1-1-1-1.8-2-1.8c-1.1-0.1-2,0.7-2.1,1.8H519.2z"></path>
		<path class="st0" d="M526.3,745.4l1.4-3.5l-2.7-6.5h1.4l2,4.8l2-4.8h1.4l-4.2,10L526.3,745.4z"></path>
		<path class="st0" d="M532.6,738.7c0.1-1.9,1.8-3.4,3.8-3.2c1.7,0.1,3.1,1.5,3.2,3.2c0.1,1.9-1.3,3.6-3.2,3.8s-3.6-1.3-3.8-3.2    C532.6,739.1,532.6,738.9,532.6,738.7z M538.3,738.7c0-1.2-1-2.2-2.2-2.2s-2.2,1-2.2,2.2c0,1.2,1,2.2,2.2,2.2    c1.2,0,2.2-0.9,2.2-2.1C538.3,738.8,538.3,738.8,538.3,738.7z"></path>
		<path class="st0" d="M545.9,735.4h1.3v6.7h-1.3v-1c-0.4,0.7-1.2,1.2-2.1,1.2c-1.7,0-2.6-1.1-2.6-3v-3.9h1.3v3.8    c0,1.1,0.5,1.8,1.5,1.8c1,0.1,1.8-0.6,1.9-1.6c0-0.1,0-0.3,0-0.4V735.4z"></path>
		<path class="st0" d="M550.7,742.1h-1.3v-6.7h1.3v1.5c0.3-1.2,1-1.7,1.9-1.7c0.4,0,0.8,0.1,1.2,0.3l-0.2,1.2    c-0.3-0.1-0.7-0.2-1-0.2c-1.3,0-1.8,1.4-1.8,3.2L550.7,742.1z"></path>
		<path class="st0" d="M564.8,739.2h-5.4c0.1,1.1,1.1,1.9,2.2,1.8c0.8,0,1.5-0.3,1.9-1c0.3,0.2,0.8,0.3,1.1,0.4    c-0.6,1.1-1.8,1.8-3.1,1.8c-1.9,0-3.5-1.6-3.5-3.5s1.6-3.5,3.5-3.5c1.8-0.1,3.3,1.4,3.3,3.1c0,0.1,0,0.2,0,0.3    C564.8,738.9,564.8,739.1,564.8,739.2z M563.5,738.2c-0.1-1-1-1.8-2-1.8c-1.1-0.1-2,0.7-2.1,1.8H563.5z"></path>
		<path class="st0" d="M567.4,735.4l1.4,2l1.4-2h1.6l-2.2,3l2.7,3.7h-1.5l-1.9-2.6l-1.9,2.6h-1.5l2.7-3.7l-2.2-3H567.4z"></path>
		<path class="st0" d="M574.8,736.5c0.5-0.8,1.4-1.2,2.3-1.2c1.9,0,3.4,1.5,3.4,3.3c0,0.1,0,0.1,0,0.2c0.1,1.8-1.3,3.4-3.1,3.5    c-0.1,0-0.2,0-0.2,0c-0.9,0-1.8-0.4-2.3-1.2v4.3h-1.3v-10h1.3V736.5z M577,741c1.2,0,2.1-0.9,2.2-2c0-0.1,0-0.1,0-0.2    c0-1.2-1-2.2-2.2-2.2c-1.2,0-2.2,1-2.2,2.2c0,0,0,0,0,0c0,1.2,0.9,2.1,2.1,2.2C576.9,741,577,741,577,741z"></path>
		<path class="st0" d="M588.5,739.2h-5.4c0.1,1.1,1.1,1.9,2.2,1.8c0.8,0,1.5-0.3,1.9-1c0.3,0.2,0.8,0.3,1.1,0.4    c-0.6,1.1-1.8,1.8-3.1,1.8c-1.9,0-3.5-1.6-3.5-3.5s1.6-3.5,3.5-3.5c1.8-0.1,3.3,1.4,3.3,3.1c0,0.1,0,0.2,0,0.3    C588.5,738.9,588.5,739.1,588.5,739.2z M587.2,738.2c-0.1-1-1-1.8-2-1.8c-1.1-0.1-2,0.7-2.1,1.8H587.2z"></path>
		<path class="st0" d="M591.5,742.1h-1.3v-6.7h1.3v1.5c0.3-1.2,1-1.7,1.9-1.7c0.4,0,0.8,0.1,1.2,0.3l-0.2,1.2    c-0.3-0.1-0.7-0.2-1-0.2c-1.3,0-1.8,1.4-1.8,3.2L591.5,742.1z"></path>
		<path class="st0" d="M596.5,732.1c0.5,0,0.8,0.4,0.8,0.9s-0.4,0.8-0.9,0.8c-0.5,0-0.8-0.4-0.8-0.9    C595.6,732.5,596,732.1,596.5,732.1C596.5,732.1,596.5,732.1,596.5,732.1z M597.2,742.1h-1.3v-6.7h1.3V742.1z"></path>
		<path class="st0" d="M605.6,739.2h-5.4c0.1,1.1,1.1,1.9,2.2,1.8c0.8,0,1.5-0.3,1.9-1c0.3,0.2,0.8,0.3,1.1,0.4    c-0.6,1.1-1.8,1.8-3.1,1.8c-1.9,0-3.5-1.6-3.5-3.5s1.6-3.5,3.5-3.5c1.8-0.1,3.3,1.4,3.3,3.1c0,0.1,0,0.2,0,0.3    C605.7,738.9,605.7,739.1,605.6,739.2z M604.4,738.2c-0.1-1-1-1.8-2-1.8c-1.1-0.1-2,0.7-2.1,1.8H604.4z"></path>
		<path class="st0" d="M608.6,742.1h-1.3v-6.7h1.3v1c0.4-0.7,1.2-1.2,2.1-1.2c1.7,0,2.6,1.1,2.6,3v3.9H612v-3.8    c0-1.1-0.6-1.8-1.5-1.8c-1-0.1-1.8,0.7-1.9,1.7c0,0.1,0,0.2,0,0.3V742.1z"></path>
		<path class="st0" d="M618.5,735.3c1,0,1.9,0.4,2.6,1.1l-1,0.8c-0.4-0.4-1-0.6-1.6-0.6c-1.2,0-2.2,0.9-2.2,2.1c0,0,0,0.1,0,0.1    c0,1.2,1,2.2,2.3,2.2c0.6,0,1.2-0.2,1.6-0.7l1,0.8c-0.7,0.7-1.6,1.1-2.6,1.1c-1.9,0-3.5-1.6-3.5-3.5S616.5,735.3,618.5,735.3    L618.5,735.3z"></path>
		<path class="st0" d="M628.9,739.2h-5.4c0.1,1.1,1.1,1.9,2.2,1.8c0.8,0,1.5-0.3,1.9-1c0.3,0.2,0.8,0.3,1.1,0.4    c-0.6,1.1-1.8,1.8-3.1,1.8c-1.9,0-3.5-1.6-3.5-3.5s1.6-3.5,3.5-3.5c1.8-0.1,3.3,1.4,3.3,3.1c0,0.1,0,0.2,0,0.3    C628.9,738.9,628.9,739.1,628.9,739.2z M627.6,738.2c-0.1-1-1-1.8-2-1.8c-1.1-0.1-2,0.7-2.1,1.8H627.6z"></path>
		<path class="st0" d="M631.4,740.5c0.5-0.1,0.9,0.3,1,0.8c0.1,0.5-0.3,0.9-0.8,1c-0.1,0-0.1,0-0.2,0c-0.5,0.1-0.9-0.3-1-0.8    c-0.1-0.5,0.3-0.9,0.8-1C631.2,740.5,631.3,740.5,631.4,740.5z"></path>
		<path class="st0" d="M677.8,732.2h1.2l1.2,9.9h-1.3l-0.9-7.4l-3.1,6.3h-1.2l-3.1-6.3l-0.9,7.4h-1.3l1.2-9.9h1.2l3.5,7.3    L677.8,732.2z"></path>
		<path class="st0" d="M682.4,745.4l1.4-3.5l-2.7-6.5h1.4l2,4.8l2-4.8h1.4l-4.2,10L682.4,745.4z"></path>
		<path class="st0" d="M694.1,739.2c-1.2-0.3-1.9-0.9-1.8-2.2c0.2-1.1,1.2-1.8,2.3-1.7c1.1-0.1,2.2,0.7,2.3,1.8c0,0,0,0.1,0,0.1    h-1.2c-0.2-0.6-0.9-0.9-1.5-0.6c-0.2,0.1-0.4,0.3-0.5,0.5c-0.1,0.2-0.1,0.4,0,0.5c0.2,0.3,0.5,0.5,0.8,0.5l1,0.2    c1,0.1,1.7,1,1.7,2c0,1.3-1.2,2-2.6,2c-1.3,0.1-2.4-0.9-2.5-2.2h1.2c0,0.3,0.2,0.6,0.5,0.8c0.3,0.2,0.7,0.3,1.1,0.2    c0.6,0,1-0.4,1-0.9s-0.4-0.7-0.9-0.8L694.1,739.2z"></path>
		<path class="st0" d="M705.2,739.2h-5.4c0.1,1.1,1.1,1.9,2.2,1.8c0.8,0,1.5-0.3,1.9-1c0.3,0.2,0.8,0.3,1.1,0.4    c-0.6,1.1-1.8,1.8-3.1,1.8c-1.9,0-3.5-1.6-3.5-3.5s1.6-3.5,3.5-3.5c1.8,0,3.3,1.4,3.3,3.1c0,0.1,0,0.2,0,0.3    C705.2,738.9,705.2,739.1,705.2,739.2z M703.9,738.2c-0.1-1-1-1.8-2-1.8c-1.1-0.1-2,0.7-2.1,1.8H703.9z"></path>
		<path class="st0" d="M710.1,735.4v1.1h-1.4v5.6h-1.3v-5.6h-1.2v-1.1h1.2v-2.5h1.3v2.5H710.1z"></path>
		<path class="st0" d="M714.8,735.4v1.1h-1.4v5.6h-1.3v-5.6h-1.2v-1.1h1.2v-2.5h1.3v2.5H714.8z"></path>
		<path class="st0" d="M717,732.1c0.5,0,0.8,0.4,0.8,0.9s-0.4,0.8-0.9,0.8c-0.5,0-0.8-0.4-0.8-0.9    C716.1,732.5,716.5,732.1,717,732.1C717,732.1,717,732.1,717,732.1z M717.7,742.1h-1.3v-6.7h1.3V742.1z"></path>
		<path class="st0" d="M721.1,742.1h-1.3v-6.7h1.3v1c0.4-0.7,1.2-1.2,2.1-1.2c1.7,0,2.6,1.1,2.6,3v3.9h-1.3v-3.8    c0-1.1-0.6-1.8-1.5-1.8c-1-0.1-1.8,0.7-1.9,1.6c0,0.1,0,0.2,0,0.4V742.1z"></path>
		<path class="st0" d="M730.8,744.2c1.4,0,2.4-0.8,2.4-3c0,0,0-0.1,0-0.2c-0.5,0.8-1.4,1.3-2.3,1.2c-1.8,0-3.4-1.4-3.4-3.3    c0-0.1,0-0.1,0-0.2c-0.1-1.9,1.4-3.4,3.2-3.5c0.1,0,0.1,0,0.2,0c0.9,0,1.8,0.4,2.3,1.2v-1h1.3v5.7c0,3.2-1.4,4.4-3.7,4.4    c-1.3,0-2.4-0.7-3-1.8c0.2-0.1,0.9-0.5,1.1-0.6C729.3,743.8,730,744.2,730.8,744.2z M730.9,736.5c-1.2,0-2.2,0.9-2.2,2.1    c0,0,0,0.1,0,0.1c-0.1,1.2,0.8,2.1,2,2.2c0.1,0,0.1,0,0.2,0c1.2,0,2.2-0.9,2.2-2.1c0,0,0-0.1,0-0.1c0.1-1.2-0.8-2.2-2-2.2    C731.1,736.5,731,736.5,730.9,736.5L730.9,736.5z"></path>
		<path class="st0" d="M738.2,739.2c-1.2-0.3-1.9-0.9-1.8-2.2c0.2-1.1,1.2-1.8,2.3-1.7c1.1-0.1,2.2,0.7,2.3,1.8c0,0,0,0,0,0.1h-1.2    c-0.2-0.6-0.9-0.9-1.5-0.6c-0.2,0.1-0.4,0.3-0.5,0.5c-0.1,0.2-0.1,0.4,0,0.5c0.2,0.3,0.5,0.5,0.8,0.5l1,0.2c1,0.1,1.7,1,1.7,2    c0,1.3-1.2,2-2.6,2c-1.3,0.1-2.4-0.9-2.5-2.2h1.2c0,0.3,0.2,0.6,0.5,0.8c0.3,0.2,0.7,0.3,1.1,0.2c0.6,0,1-0.4,1-0.9    s-0.4-0.7-0.9-0.8L738.2,739.2z"></path>
		<path class="st0" d="M667.6,743.9v-0.7h74.2v0.7H667.6z"></path>
		<path d="M129.4,120.9h4.6l-6.7,19.8h-3.3l-2.8-10.4l-2.7,10.4H115l-6.7-19.8h4.5l3.8,12.5c0.9-3.1,1.8-6.5,2.7-9.7h3.4l2.6,9.7    L129.4,120.9z"></path>
		<path d="M136.2,120.9h8.1c3.6,0,6.5,2.9,6.5,6.5c0,3.6-2.9,6.5-6.5,6.5h-3.9v6.8h-4.2V120.9z M140.4,124.6v5.6h3.7    c1.5-0.1,2.6-1.3,2.5-2.8c0.1-1.4-1-2.7-2.4-2.8H140.4z"></path>
		<path d="M178,126.6c-1.1-1.3-2.7-2-4.4-2c-3.5,0.2-6.1,3.2-5.9,6.6c0.2,3.2,2.7,5.7,5.9,5.9c2.1,0,4.8-1.4,4.8-3.4h-5.3v-3.4h10.2    c0,7.4-4,10.7-9.7,10.7c-5.6,0-10.2-4.5-10.2-10.2c0-5.6,4.5-10.2,10.2-10.2l0,0c2.8-0.1,5.6,1.1,7.4,3.2L178,126.6z"></path>
		<path d="M185.5,140.8V121h7.8c5.7,0,8.9,4.3,8.9,10c0,5.6-3.3,9.9-8.9,9.9H185.5z M189.7,136.9h3.6c3.1,0,4.7-2.8,4.7-6    s-1.6-6.1-4.7-6.1h-3.6V136.9z"></path>
		<path d="M204.9,120.9h8.1c3.6,0,6.5,2.9,6.5,6.5c0,3.6-2.9,6.5-6.5,6.5l0,0h-3.9v6.8h-4.2L204.9,120.9z M209.2,124.6v5.6h3.7    c1.5-0.1,2.6-1.3,2.5-2.8c0.1-1.4-1-2.7-2.4-2.8H209.2z"></path>
		<path d="M236.9,140.8h-5.1l-4.4-6.8h-0.9v6.8h-4.2V121h8.1c3.4-0.2,6.4,2.4,6.6,5.9c0,0.2,0,0.4,0,0.6c0.1,3.1-2,5.7-5,6.3    L236.9,140.8z M226.5,124.7v5.6h3.6c1.5-0.1,2.6-1.3,2.5-2.8c0.1-1.4-1-2.7-2.4-2.8L226.5,124.7z"></path>
		<path d="M119.9,165.2c2.1,0.5,3.7,2.3,3.7,4.5c0,3.3-2.6,6-5.9,6.1c-0.1,0-0.3,0-0.4,0h-8.5v-19.8h7.9c3.6,0,5.9,2.2,5.9,5.5    C122.6,163.1,121.5,164.7,119.9,165.2z M116.4,163.8c1,0,1.8-0.8,1.8-1.9c0,0,0-0.1,0-0.1c0-1.2-0.6-2.1-1.9-2.1h-3.3v4.1    L116.4,163.8z M113.1,167.2v4.8h4.1c1.2-0.1,2.2-1.1,2.1-2.4c0,0,0-0.1,0-0.1c0.1-1.2-0.9-2.3-2.1-2.4c0,0-0.1,0-0.1,0    L113.1,167.2z"></path>
		<path d="M136.6,174.2c-0.8,1.3-2.9,1.8-3.9,1.8c-3.9,0-7-3.1-7-7s3.1-7,7-7c1.5,0,2.9,0.6,3.9,1.8v-1.5h4v13.4h-4V174.2z     M133.4,172.2c1.8,0,3.2-1.4,3.2-3.2s-1.4-3.2-3.2-3.2s-3.2,1.4-3.2,3.2S131.6,172.2,133.4,172.2z"></path>
		<path d="M148.2,175.7h-4v-13.4h4v2c0.8-1.4,2.3-2.3,3.9-2.2c3,0,4.9,1.9,4.9,5.7v8h-4v-7.2c0-1.8-1-2.7-2.3-2.7s-2.5,0.7-2.5,2.7    V175.7z"></path>
		<path d="M164.6,175.7h-4v-13.4h4v2c0.8-1.4,2.3-2.3,3.9-2.2c3,0,4.9,1.9,4.9,5.7v8h-4v-7.2c0-1.8-1-2.7-2.3-2.7s-2.5,0.7-2.5,2.7    L164.6,175.7z"></path>
		<path d="M189.2,173.3c-1.4,2-3.8,2.7-6.1,2.7c-3.8,0.1-6.9-2.9-7-6.7c0-0.1,0-0.2,0-0.3c0-3.8,3.2-6.9,7-6.9s6.9,3.2,6.9,7    c0,0.3,0,0.9-0.1,1.2h-9.8c0.2,1.6,1.9,2.2,3.3,2.2c1.1,0.1,2.2-0.4,2.9-1.3L189.2,173.3z M186,167.8c-0.2-1.4-1.4-2.4-2.8-2.3    c-1.4-0.1-2.7,0.9-3,2.3H186z"></path>
		<path d="M196.7,175.7h-4v-13.4h4v3.2c0.7-2.5,2.4-3.5,3.8-3.5c0.8,0,1.6,0.2,2.3,0.5l-0.7,3.6c-0.6-0.3-1.3-0.4-2-0.4    c-2.3,0-3.3,1.8-3.3,5.4L196.7,175.7z"></path>
	</g>
</g>
</svg>
