<svg viewBox="0 0 2500 1489" xmlns="http://www.w3.org/2000/svg"><path d="M2266.963 0C2395.752 0 2500 104.248 2500 233.037v776.768c0 128.789-104.248 233.037-233.037 233.037h-729.756l100.166 245.293-440.518-245.293H233.037c-128.78 0-233.035-104.248-233.035-233.037V233.037C-1.016 105.273 103.222 0 232.022 0h2034.94zM1141.348 158.535c-19.307-15.244-40.645-22.353-64.024-20.332-29.472 2.041-51.836 16.27-67.07 44.727-63.008 114.834-107.725 300.81-134.15 558.935-38.614-97.558-71.133-212.402-96.543-347.558-11.182-59.961-38.614-88.409-83.33-85.362-30.489 2.032-55.899 22.354-76.231 60.977l-222.559 423.78c-36.582-147.354-71.132-327.237-102.636-539.64-7.11-52.851-36.582-77.236-88.418-73.164-28.457 2.032-49.795 12.188-64.024 31.504-14.228 18.282-20.322 41.66-16.25 68.086 59.951 381.094 115.85 638.213 167.676 771.348 20.322 48.77 43.691 72.148 71.133 70.117 42.685-3.047 93.496-61.992 153.457-176.836 31.504-65.039 80.283-162.597 146.348-292.676 54.873 192.07 130.078 336.377 224.59 432.93 26.425 27.441 53.857 39.629 80.283 37.598 23.379-2.032 41.66-14.229 53.867-36.582 10.156-19.317 14.228-41.68 12.187-67.07-6.093-92.481 3.057-221.553 28.457-387.208 26.416-170.722 58.946-293.691 98.584-366.865 8.125-15.244 11.172-30.488 10.157-48.78-2.032-23.378-12.198-42.685-31.504-57.929zm967.48 89.434c-97.558 0-176.826 50.81-238.818 152.441-52.852 86.377-79.268 181.904-79.268 286.582 0 78.252 16.26 145.322 48.78 201.22 36.582 64.024 90.449 102.638 162.597 117.882 19.307 4.072 37.598 6.103 54.883 6.103 98.574 0 177.842-50.81 238.818-152.441 52.842-87.402 79.268-182.93 79.268-287.598 1.016-79.267-16.26-145.332-48.78-200.205-36.581-64.023-90.449-102.637-162.597-117.89-19.316-4.063-37.598-6.094-54.883-6.094zm-636.182 0c-97.558 0-176.826 50.81-238.818 152.441-52.842 86.377-79.267 181.904-79.267 286.582 0 78.252 16.26 145.322 48.779 201.22 36.582 64.024 90.45 102.638 162.598 117.882 19.316 4.072 37.597 6.103 54.882 6.103 98.575 0 177.842-50.81 238.819-152.441 52.851-87.402 79.267-182.93 79.267-287.598 0-79.267-16.26-145.332-48.779-200.205-36.582-64.023-91.465-102.637-162.598-117.89-19.306-4.063-37.597-6.094-54.883-6.094zm654.473 171.748c24.395 5.078 44.727 26.426 59.961 66.054 12.197 31.504 18.291 63.008 18.291 92.481 0 26.426-2.031 51.826-7.11 75.195v.01c-14.228 67.07-39.638 116.865-77.245 150.4-29.463 26.426-56.905 37.598-82.305 32.52-24.395-5.078-44.727-26.416-59.961-66.055-12.207-31.504-18.291-63.008-18.291-92.48 0-25.4 2.031-50.81 7.11-74.18 9.15-41.67 26.425-82.324 53.857-120.937 33.545-49.805 69.111-70.118 105.693-63.008zm-637.197 0c24.394 5.078 44.726 26.426 59.96 66.054 12.208 31.504 18.292 63.008 18.292 92.481 1.025 26.426-2.031 51.826-7.11 75.195v.01c-14.228 67.07-39.638 116.865-77.236 150.4-29.473 26.426-56.914 37.598-82.324 32.52-24.385-5.078-44.707-26.416-59.961-66.055-12.188-31.504-18.281-63.008-18.281-92.48 0-25.4 2.031-50.81 7.11-74.18 9.15-41.67 26.425-82.324 53.866-120.937 33.535-49.805 69.102-70.118 105.684-63.008z" fill="#9B5C8F" fill-rule="nonzero"/></svg>
