<svg viewBox="0 0 40 59" xmlns="http://www.w3.org/2000/svg"><g fill="#000" fill-rule="evenodd"><path d="M20 18.326c11.046 0 20 8.971 20 20.037C40 49.43 31.046 58.4 20 58.4S0 49.43 0 38.363c0-11.066 8.954-20.037 20-20.037zm0 4.887c-8.352 0-15.122 6.783-15.122 15.15s6.77 15.15 15.122 15.15 15.122-6.783 15.122-15.15-6.77-15.15-15.122-15.15zm-.122 9.286a4.028 4.028 0 014.024 4.032 4.033 4.033 0 01-2.438 3.706v2.283a1.707 1.707 0 11-3.415 0v-2.397a4.032 4.032 0 01-2.195-3.592 4.028 4.028 0 014.024-4.032z"/><path d="M20 0c7.14 0 12.927 5.798 12.927 12.95v11.485h-4.878V12.951c0-4.454-3.604-8.064-8.049-8.064-4.445 0-8.049 3.61-8.049 8.064v11.484H7.073V12.951C7.073 5.798 12.861 0 20 0z"/></g></svg>
